<mxfile host="app.diagrams.net" modified="2023-08-09T21:40:56.710Z" agent="Mozilla/5.0 (Windows NT 10.0; Win64; x64) AppleWebKit/537.36 (KHTML, like Gecko) Chrome/115.0.0.0 Safari/537.36" etag="tX3Npgb9HsW_OIeKaXRx" version="21.6.7" type="google">
  <diagram id="C5RBs43oDa-KdzZeNtuy" name="Page-1">
    <mxGraphModel grid="1" page="1" gridSize="10" guides="1" tooltips="1" connect="1" arrows="1" fold="1" pageScale="1" pageWidth="10000" pageHeight="5000" math="0" shadow="0">
      <root>
        <mxCell id="WIyWlLk6GJQsqaUBKTNV-0" />
        <mxCell id="WIyWlLk6GJQsqaUBKTNV-1" parent="WIyWlLk6GJQsqaUBKTNV-0" />
        <mxCell id="MlXYabZcb-Fr3cg8tZfr-0" value="Start" style="ellipse;whiteSpace=wrap;html=1;" vertex="1" parent="WIyWlLk6GJQsqaUBKTNV-1">
          <mxGeometry x="4495" width="120" height="80" as="geometry" />
        </mxCell>
        <mxCell id="MlXYabZcb-Fr3cg8tZfr-2" value="" style="endArrow=classic;html=1;rounded=0;" edge="1" parent="WIyWlLk6GJQsqaUBKTNV-1" source="MlXYabZcb-Fr3cg8tZfr-0">
          <mxGeometry width="50" height="50" relative="1" as="geometry">
            <mxPoint x="4555" y="130" as="sourcePoint" />
            <mxPoint x="4555" y="150.71067811865476" as="targetPoint" />
          </mxGeometry>
        </mxCell>
        <mxCell id="MlXYabZcb-Fr3cg8tZfr-3" value="Print &quot;Welcome to the text-adventure, answer questions to progress the story, please type Y for yes and N for no.\nYou are a detective trying to solve a case. Bob has been murdered, and you have a line up of 3 suspects to question, but only enough time to question 1 of them, and once you chose not to question a suspect they leave and can&#39;t be contacted. Would you like to question suspect 1, John the janitor who was cleaning when bob was murdered?&quot;" style="shape=parallelogram;perimeter=parallelogramPerimeter;whiteSpace=wrap;html=1;fixedSize=1;" vertex="1" parent="WIyWlLk6GJQsqaUBKTNV-1">
          <mxGeometry x="4320" y="260" width="480" height="100" as="geometry" />
        </mxCell>
        <mxCell id="MlXYabZcb-Fr3cg8tZfr-4" value="" style="endArrow=classic;html=1;rounded=0;entryX=0.5;entryY=0;entryDx=0;entryDy=0;" edge="1" parent="WIyWlLk6GJQsqaUBKTNV-1" source="MlXYabZcb-Fr3cg8tZfr-3" target="MlXYabZcb-Fr3cg8tZfr-5">
          <mxGeometry width="50" height="50" relative="1" as="geometry">
            <mxPoint x="4555" y="390" as="sourcePoint" />
            <mxPoint x="4555" y="410.71067811865476" as="targetPoint" />
          </mxGeometry>
        </mxCell>
        <mxCell id="MlXYabZcb-Fr3cg8tZfr-5" value="Read user input to strUserResponse" style="shape=parallelogram;perimeter=parallelogramPerimeter;whiteSpace=wrap;html=1;fixedSize=1;" vertex="1" parent="WIyWlLk6GJQsqaUBKTNV-1">
          <mxGeometry x="4495" y="410" width="120" height="60" as="geometry" />
        </mxCell>
        <mxCell id="MlXYabZcb-Fr3cg8tZfr-6" value="final String STRYES = &quot;Y&quot;;&lt;br&gt;String strUserReponse;" style="rounded=0;whiteSpace=wrap;html=1;" vertex="1" parent="WIyWlLk6GJQsqaUBKTNV-1">
          <mxGeometry x="4495" y="150" width="120" height="60" as="geometry" />
        </mxCell>
        <mxCell id="MlXYabZcb-Fr3cg8tZfr-7" value="" style="endArrow=classic;html=1;rounded=0;entryX=0.5;entryY=0;entryDx=0;entryDy=0;" edge="1" parent="WIyWlLk6GJQsqaUBKTNV-1" source="MlXYabZcb-Fr3cg8tZfr-6" target="MlXYabZcb-Fr3cg8tZfr-3">
          <mxGeometry width="50" height="50" relative="1" as="geometry">
            <mxPoint x="4555" y="260" as="sourcePoint" />
            <mxPoint x="4555" y="280.71067811865476" as="targetPoint" />
          </mxGeometry>
        </mxCell>
        <mxCell id="MlXYabZcb-Fr3cg8tZfr-9" value="" style="endArrow=classic;html=1;rounded=0;entryX=0.5;entryY=0;entryDx=0;entryDy=0;" edge="1" parent="WIyWlLk6GJQsqaUBKTNV-1" source="MlXYabZcb-Fr3cg8tZfr-5" target="MlXYabZcb-Fr3cg8tZfr-10">
          <mxGeometry width="50" height="50" relative="1" as="geometry">
            <mxPoint x="4555" y="520" as="sourcePoint" />
            <mxPoint x="4555" y="540.7106781186548" as="targetPoint" />
          </mxGeometry>
        </mxCell>
        <mxCell id="MlXYabZcb-Fr3cg8tZfr-10" value="if&amp;nbsp;(strUserReponse.&lt;br&gt;equals(STRYES))" style="rhombus;whiteSpace=wrap;html=1;" vertex="1" parent="WIyWlLk6GJQsqaUBKTNV-1">
          <mxGeometry x="4487.5" y="540" width="135" height="110" as="geometry" />
        </mxCell>
        <mxCell id="MlXYabZcb-Fr3cg8tZfr-12" value="" style="endArrow=classic;html=1;rounded=0;entryX=1;entryY=0.5;entryDx=0;entryDy=0;exitX=0;exitY=0.5;exitDx=0;exitDy=0;" edge="1" parent="WIyWlLk6GJQsqaUBKTNV-1" source="MlXYabZcb-Fr3cg8tZfr-10" target="MlXYabZcb-Fr3cg8tZfr-14">
          <mxGeometry width="50" height="50" relative="1" as="geometry">
            <mxPoint x="2372.5" y="595" as="sourcePoint" />
            <mxPoint x="2301.789321881345" y="595" as="targetPoint" />
          </mxGeometry>
        </mxCell>
        <mxCell id="MlXYabZcb-Fr3cg8tZfr-13" value="" style="endArrow=classic;html=1;rounded=0;entryX=0;entryY=0.5;entryDx=0;entryDy=0;" edge="1" parent="WIyWlLk6GJQsqaUBKTNV-1" source="MlXYabZcb-Fr3cg8tZfr-10" target="MlXYabZcb-Fr3cg8tZfr-15">
          <mxGeometry width="50" height="50" relative="1" as="geometry">
            <mxPoint x="4622.5" y="645" as="sourcePoint" />
            <mxPoint x="4693.210678118655" y="595" as="targetPoint" />
          </mxGeometry>
        </mxCell>
        <mxCell id="MlXYabZcb-Fr3cg8tZfr-14" value="false" style="rounded=0;whiteSpace=wrap;html=1;" vertex="1" parent="WIyWlLk6GJQsqaUBKTNV-1">
          <mxGeometry x="2180" y="565" width="120" height="60" as="geometry" />
        </mxCell>
        <mxCell id="MlXYabZcb-Fr3cg8tZfr-15" value="true" style="rounded=0;whiteSpace=wrap;html=1;" vertex="1" parent="WIyWlLk6GJQsqaUBKTNV-1">
          <mxGeometry x="6810" y="565" width="120" height="60" as="geometry" />
        </mxCell>
        <mxCell id="MlXYabZcb-Fr3cg8tZfr-17" value="" style="endArrow=classic;html=1;rounded=0;entryX=0.5;entryY=0;entryDx=0;entryDy=0;" edge="1" parent="WIyWlLk6GJQsqaUBKTNV-1" source="MlXYabZcb-Fr3cg8tZfr-14" target="MlXYabZcb-Fr3cg8tZfr-30">
          <mxGeometry width="50" height="50" relative="1" as="geometry">
            <mxPoint x="2240" y="675" as="sourcePoint" />
            <mxPoint x="2240" y="695.7106781186548" as="targetPoint" />
          </mxGeometry>
        </mxCell>
        <mxCell id="MlXYabZcb-Fr3cg8tZfr-30" value="Print &quot;You have chosen to let John go, would you like to question Pat, bob&#39;s friend who can remember what they were doing during bob&#39;s murder.&quot;" style="shape=parallelogram;perimeter=parallelogramPerimeter;whiteSpace=wrap;html=1;fixedSize=1;" vertex="1" parent="WIyWlLk6GJQsqaUBKTNV-1">
          <mxGeometry x="2140" y="700" width="200" height="90" as="geometry" />
        </mxCell>
        <mxCell id="MlXYabZcb-Fr3cg8tZfr-31" value="" style="endArrow=classic;html=1;rounded=0;entryX=0.5;entryY=0;entryDx=0;entryDy=0;" edge="1" parent="WIyWlLk6GJQsqaUBKTNV-1" source="MlXYabZcb-Fr3cg8tZfr-30" target="MlXYabZcb-Fr3cg8tZfr-32">
          <mxGeometry width="50" height="50" relative="1" as="geometry">
            <mxPoint x="2240" y="810" as="sourcePoint" />
            <mxPoint x="2240" y="830.7106781186548" as="targetPoint" />
          </mxGeometry>
        </mxCell>
        <mxCell id="MlXYabZcb-Fr3cg8tZfr-32" value="Read user input to strUserResponse" style="shape=parallelogram;perimeter=parallelogramPerimeter;whiteSpace=wrap;html=1;fixedSize=1;" vertex="1" parent="WIyWlLk6GJQsqaUBKTNV-1">
          <mxGeometry x="2180" y="830" width="120" height="60" as="geometry" />
        </mxCell>
        <mxCell id="MlXYabZcb-Fr3cg8tZfr-33" value="" style="endArrow=classic;html=1;rounded=0;entryX=0.5;entryY=0;entryDx=0;entryDy=0;" edge="1" parent="WIyWlLk6GJQsqaUBKTNV-1" source="MlXYabZcb-Fr3cg8tZfr-32" target="MlXYabZcb-Fr3cg8tZfr-34">
          <mxGeometry width="50" height="50" relative="1" as="geometry">
            <mxPoint x="2240" y="940" as="sourcePoint" />
            <mxPoint x="2240" y="960.7106781186548" as="targetPoint" />
          </mxGeometry>
        </mxCell>
        <mxCell id="MlXYabZcb-Fr3cg8tZfr-34" value="if&amp;nbsp;(strUserReponse.&lt;br&gt;equals(STRYES))" style="rhombus;whiteSpace=wrap;html=1;" vertex="1" parent="WIyWlLk6GJQsqaUBKTNV-1">
          <mxGeometry x="2172.5" y="960" width="135" height="110" as="geometry" />
        </mxCell>
        <mxCell id="MlXYabZcb-Fr3cg8tZfr-35" value="" style="endArrow=classic;html=1;rounded=0;entryX=1;entryY=0.5;entryDx=0;entryDy=0;" edge="1" parent="WIyWlLk6GJQsqaUBKTNV-1" source="MlXYabZcb-Fr3cg8tZfr-34" target="MlXYabZcb-Fr3cg8tZfr-37">
          <mxGeometry width="50" height="50" relative="1" as="geometry">
            <mxPoint x="2101.789321881345" y="1065" as="sourcePoint" />
            <mxPoint x="2100" y="1015" as="targetPoint" />
          </mxGeometry>
        </mxCell>
        <mxCell id="MlXYabZcb-Fr3cg8tZfr-36" value="" style="endArrow=classic;html=1;rounded=0;entryX=0;entryY=0.5;entryDx=0;entryDy=0;" edge="1" parent="WIyWlLk6GJQsqaUBKTNV-1" source="MlXYabZcb-Fr3cg8tZfr-34" target="MlXYabZcb-Fr3cg8tZfr-38">
          <mxGeometry width="50" height="50" relative="1" as="geometry">
            <mxPoint x="2307.5" y="1065" as="sourcePoint" />
            <mxPoint x="2378.210678118655" y="1015" as="targetPoint" />
          </mxGeometry>
        </mxCell>
        <mxCell id="MlXYabZcb-Fr3cg8tZfr-37" value="false" style="rounded=0;whiteSpace=wrap;html=1;" vertex="1" parent="WIyWlLk6GJQsqaUBKTNV-1">
          <mxGeometry x="1030" y="985" width="120" height="60" as="geometry" />
        </mxCell>
        <mxCell id="MlXYabZcb-Fr3cg8tZfr-38" value="true" style="rounded=0;whiteSpace=wrap;html=1;" vertex="1" parent="WIyWlLk6GJQsqaUBKTNV-1">
          <mxGeometry x="3330" y="980" width="120" height="60" as="geometry" />
        </mxCell>
        <mxCell id="MlXYabZcb-Fr3cg8tZfr-40" value="" style="endArrow=classic;html=1;rounded=0;entryX=0.5;entryY=0;entryDx=0;entryDy=0;" edge="1" parent="WIyWlLk6GJQsqaUBKTNV-1" source="MlXYabZcb-Fr3cg8tZfr-37" target="MlXYabZcb-Fr3cg8tZfr-41">
          <mxGeometry width="50" height="50" relative="1" as="geometry">
            <mxPoint x="1090" y="1095" as="sourcePoint" />
            <mxPoint x="1090" y="1115.7106781186549" as="targetPoint" />
          </mxGeometry>
        </mxCell>
        <mxCell id="MlXYabZcb-Fr3cg8tZfr-41" value="Print &quot;You have let Pat leave, would you like to question Tim, who was found walking quickly away from the crime scene, but says he was just on his way home&quot;" style="shape=parallelogram;perimeter=parallelogramPerimeter;whiteSpace=wrap;html=1;fixedSize=1;" vertex="1" parent="WIyWlLk6GJQsqaUBKTNV-1">
          <mxGeometry x="995" y="1120" width="190" height="90" as="geometry" />
        </mxCell>
        <mxCell id="MlXYabZcb-Fr3cg8tZfr-42" value="" style="endArrow=classic;html=1;rounded=0;entryX=0.5;entryY=0;entryDx=0;entryDy=0;" edge="1" parent="WIyWlLk6GJQsqaUBKTNV-1" source="MlXYabZcb-Fr3cg8tZfr-41" target="MlXYabZcb-Fr3cg8tZfr-43">
          <mxGeometry width="50" height="50" relative="1" as="geometry">
            <mxPoint x="1090" y="1230" as="sourcePoint" />
            <mxPoint x="1090" y="1250.7106781186549" as="targetPoint" />
          </mxGeometry>
        </mxCell>
        <mxCell id="MlXYabZcb-Fr3cg8tZfr-43" value="Read user input to strUserResponse" style="shape=parallelogram;perimeter=parallelogramPerimeter;whiteSpace=wrap;html=1;fixedSize=1;" vertex="1" parent="WIyWlLk6GJQsqaUBKTNV-1">
          <mxGeometry x="1030" y="1250" width="120" height="60" as="geometry" />
        </mxCell>
        <mxCell id="MlXYabZcb-Fr3cg8tZfr-44" value="" style="endArrow=classic;html=1;rounded=0;entryX=0.5;entryY=0;entryDx=0;entryDy=0;" edge="1" parent="WIyWlLk6GJQsqaUBKTNV-1" source="MlXYabZcb-Fr3cg8tZfr-43" target="MlXYabZcb-Fr3cg8tZfr-45">
          <mxGeometry width="50" height="50" relative="1" as="geometry">
            <mxPoint x="1090" y="1360" as="sourcePoint" />
            <mxPoint x="1090" y="1380.7106781186549" as="targetPoint" />
          </mxGeometry>
        </mxCell>
        <mxCell id="MlXYabZcb-Fr3cg8tZfr-45" value="if&amp;nbsp;(strUserReponse.&lt;br&gt;equals(STRYES))" style="rhombus;whiteSpace=wrap;html=1;" vertex="1" parent="WIyWlLk6GJQsqaUBKTNV-1">
          <mxGeometry x="1022.5" y="1380" width="135" height="110" as="geometry" />
        </mxCell>
        <mxCell id="MlXYabZcb-Fr3cg8tZfr-46" value="" style="endArrow=classic;html=1;rounded=0;entryX=1;entryY=0.5;entryDx=0;entryDy=0;exitX=0;exitY=0.5;exitDx=0;exitDy=0;" edge="1" parent="WIyWlLk6GJQsqaUBKTNV-1" source="MlXYabZcb-Fr3cg8tZfr-45" target="MlXYabZcb-Fr3cg8tZfr-48">
          <mxGeometry width="50" height="50" relative="1" as="geometry">
            <mxPoint x="672.5" y="1435" as="sourcePoint" />
            <mxPoint x="601.7893218813452" y="1435" as="targetPoint" />
          </mxGeometry>
        </mxCell>
        <mxCell id="MlXYabZcb-Fr3cg8tZfr-47" value="" style="endArrow=classic;html=1;rounded=0;entryX=0;entryY=0.5;entryDx=0;entryDy=0;exitX=1;exitY=0.5;exitDx=0;exitDy=0;" edge="1" parent="WIyWlLk6GJQsqaUBKTNV-1" source="MlXYabZcb-Fr3cg8tZfr-45" target="MlXYabZcb-Fr3cg8tZfr-49">
          <mxGeometry width="50" height="50" relative="1" as="geometry">
            <mxPoint x="1160" y="1440" as="sourcePoint" />
            <mxPoint x="1228.2106781186549" y="1455" as="targetPoint" />
          </mxGeometry>
        </mxCell>
        <mxCell id="MlXYabZcb-Fr3cg8tZfr-48" value="false" style="rounded=0;whiteSpace=wrap;html=1;" vertex="1" parent="WIyWlLk6GJQsqaUBKTNV-1">
          <mxGeometry x="480" y="1405" width="120" height="60" as="geometry" />
        </mxCell>
        <mxCell id="MlXYabZcb-Fr3cg8tZfr-49" value="true" style="rounded=0;whiteSpace=wrap;html=1;" vertex="1" parent="WIyWlLk6GJQsqaUBKTNV-1">
          <mxGeometry x="1580" y="1405" width="120" height="60" as="geometry" />
        </mxCell>
        <mxCell id="MlXYabZcb-Fr3cg8tZfr-51" value="" style="endArrow=classic;html=1;rounded=0;entryX=0.5;entryY=0;entryDx=0;entryDy=0;" edge="1" parent="WIyWlLk6GJQsqaUBKTNV-1" source="MlXYabZcb-Fr3cg8tZfr-48" target="MlXYabZcb-Fr3cg8tZfr-52">
          <mxGeometry width="50" height="50" relative="1" as="geometry">
            <mxPoint x="540" y="1515" as="sourcePoint" />
            <mxPoint x="540" y="1535.7106781186549" as="targetPoint" />
          </mxGeometry>
        </mxCell>
        <mxCell id="MlXYabZcb-Fr3cg8tZfr-52" value="Print &quot;You have let all of the suspects leave. Would you like to go to the crime scene to try and find evidence?&quot;" style="shape=parallelogram;perimeter=parallelogramPerimeter;whiteSpace=wrap;html=1;fixedSize=1;" vertex="1" parent="WIyWlLk6GJQsqaUBKTNV-1">
          <mxGeometry x="445" y="1540" width="190" height="60" as="geometry" />
        </mxCell>
        <mxCell id="MlXYabZcb-Fr3cg8tZfr-53" value="" style="endArrow=classic;html=1;rounded=0;entryX=0.5;entryY=0;entryDx=0;entryDy=0;" edge="1" parent="WIyWlLk6GJQsqaUBKTNV-1" source="MlXYabZcb-Fr3cg8tZfr-52" target="MlXYabZcb-Fr3cg8tZfr-54">
          <mxGeometry width="50" height="50" relative="1" as="geometry">
            <mxPoint x="540" y="1650" as="sourcePoint" />
            <mxPoint x="540" y="1670.7106781186549" as="targetPoint" />
          </mxGeometry>
        </mxCell>
        <mxCell id="MlXYabZcb-Fr3cg8tZfr-54" value="Read user input to strUserResponse" style="shape=parallelogram;perimeter=parallelogramPerimeter;whiteSpace=wrap;html=1;fixedSize=1;" vertex="1" parent="WIyWlLk6GJQsqaUBKTNV-1">
          <mxGeometry x="480" y="1670" width="120" height="60" as="geometry" />
        </mxCell>
        <mxCell id="MlXYabZcb-Fr3cg8tZfr-55" value="" style="endArrow=classic;html=1;rounded=0;entryX=0.5;entryY=0;entryDx=0;entryDy=0;" edge="1" parent="WIyWlLk6GJQsqaUBKTNV-1" source="MlXYabZcb-Fr3cg8tZfr-54" target="MlXYabZcb-Fr3cg8tZfr-56">
          <mxGeometry width="50" height="50" relative="1" as="geometry">
            <mxPoint x="540" y="1780" as="sourcePoint" />
            <mxPoint x="540" y="1800.7106781186549" as="targetPoint" />
          </mxGeometry>
        </mxCell>
        <mxCell id="MlXYabZcb-Fr3cg8tZfr-56" value="if&amp;nbsp;(strUserReponse.&lt;br&gt;equals(STRYES))" style="rhombus;whiteSpace=wrap;html=1;" vertex="1" parent="WIyWlLk6GJQsqaUBKTNV-1">
          <mxGeometry x="472.5" y="1800" width="135" height="110" as="geometry" />
        </mxCell>
        <mxCell id="MlXYabZcb-Fr3cg8tZfr-57" value="" style="endArrow=classic;html=1;rounded=0;entryX=1;entryY=0.5;entryDx=0;entryDy=0;exitX=0;exitY=0.5;exitDx=0;exitDy=0;" edge="1" parent="WIyWlLk6GJQsqaUBKTNV-1" source="MlXYabZcb-Fr3cg8tZfr-56" target="MlXYabZcb-Fr3cg8tZfr-59">
          <mxGeometry width="50" height="50" relative="1" as="geometry">
            <mxPoint x="470" y="1855" as="sourcePoint" />
            <mxPoint x="321.78932188134524" y="1855" as="targetPoint" />
          </mxGeometry>
        </mxCell>
        <mxCell id="MlXYabZcb-Fr3cg8tZfr-58" value="" style="endArrow=classic;html=1;rounded=0;entryX=0;entryY=0.5;entryDx=0;entryDy=0;" edge="1" parent="WIyWlLk6GJQsqaUBKTNV-1" source="MlXYabZcb-Fr3cg8tZfr-56" target="MlXYabZcb-Fr3cg8tZfr-60">
          <mxGeometry width="50" height="50" relative="1" as="geometry">
            <mxPoint x="607.5" y="1905" as="sourcePoint" />
            <mxPoint x="678.2106781186549" y="1855" as="targetPoint" />
          </mxGeometry>
        </mxCell>
        <mxCell id="MlXYabZcb-Fr3cg8tZfr-59" value="false" style="rounded=0;whiteSpace=wrap;html=1;" vertex="1" parent="WIyWlLk6GJQsqaUBKTNV-1">
          <mxGeometry x="200" y="1825" width="120" height="60" as="geometry" />
        </mxCell>
        <mxCell id="MlXYabZcb-Fr3cg8tZfr-60" value="true" style="rounded=0;whiteSpace=wrap;html=1;" vertex="1" parent="WIyWlLk6GJQsqaUBKTNV-1">
          <mxGeometry x="760" y="1825" width="120" height="60" as="geometry" />
        </mxCell>
        <mxCell id="MlXYabZcb-Fr3cg8tZfr-62" value="" style="endArrow=classic;html=1;rounded=0;entryX=0.5;entryY=0;entryDx=0;entryDy=0;entryPerimeter=0;" edge="1" parent="WIyWlLk6GJQsqaUBKTNV-1" source="MlXYabZcb-Fr3cg8tZfr-59" target="MlXYabZcb-Fr3cg8tZfr-63">
          <mxGeometry width="50" height="50" relative="1" as="geometry">
            <mxPoint x="260" y="1935" as="sourcePoint" />
            <mxPoint x="260" y="1955.7106781186549" as="targetPoint" />
          </mxGeometry>
        </mxCell>
        <mxCell id="MlXYabZcb-Fr3cg8tZfr-63" value="Print &quot;You don&#39;t go to the crime scene, pretty lazy aren&#39;t ya? Would you like to search the [CLASSIFIED] files in the office for anything on bob or his killer? (You aren&#39;t really suppose to look in them. . .)&quot;" style="shape=parallelogram;perimeter=parallelogramPerimeter;whiteSpace=wrap;html=1;fixedSize=1;" vertex="1" parent="WIyWlLk6GJQsqaUBKTNV-1">
          <mxGeometry x="160" y="1950" width="200" height="100" as="geometry" />
        </mxCell>
        <mxCell id="MlXYabZcb-Fr3cg8tZfr-64" value="" style="endArrow=classic;html=1;rounded=0;entryX=0.5;entryY=0;entryDx=0;entryDy=0;" edge="1" parent="WIyWlLk6GJQsqaUBKTNV-1" source="MlXYabZcb-Fr3cg8tZfr-63" target="MlXYabZcb-Fr3cg8tZfr-65">
          <mxGeometry width="50" height="50" relative="1" as="geometry">
            <mxPoint x="260" y="2070" as="sourcePoint" />
            <mxPoint x="260" y="2090.710678118655" as="targetPoint" />
          </mxGeometry>
        </mxCell>
        <mxCell id="MlXYabZcb-Fr3cg8tZfr-65" value="Read user input to strUserResponse" style="shape=parallelogram;perimeter=parallelogramPerimeter;whiteSpace=wrap;html=1;fixedSize=1;" vertex="1" parent="WIyWlLk6GJQsqaUBKTNV-1">
          <mxGeometry x="200" y="2090" width="120" height="60" as="geometry" />
        </mxCell>
        <mxCell id="MlXYabZcb-Fr3cg8tZfr-66" value="" style="endArrow=classic;html=1;rounded=0;entryX=0.5;entryY=0;entryDx=0;entryDy=0;" edge="1" parent="WIyWlLk6GJQsqaUBKTNV-1" source="MlXYabZcb-Fr3cg8tZfr-65" target="MlXYabZcb-Fr3cg8tZfr-67">
          <mxGeometry width="50" height="50" relative="1" as="geometry">
            <mxPoint x="260" y="2200" as="sourcePoint" />
            <mxPoint x="260" y="2220.710678118655" as="targetPoint" />
          </mxGeometry>
        </mxCell>
        <mxCell id="MlXYabZcb-Fr3cg8tZfr-67" value="if&amp;nbsp;(strUserReponse.&lt;br&gt;equals(STRYES))" style="rhombus;whiteSpace=wrap;html=1;" vertex="1" parent="WIyWlLk6GJQsqaUBKTNV-1">
          <mxGeometry x="192.5" y="2220" width="135" height="110" as="geometry" />
        </mxCell>
        <mxCell id="MlXYabZcb-Fr3cg8tZfr-68" value="" style="endArrow=classic;html=1;rounded=0;entryX=1;entryY=0.5;entryDx=0;entryDy=0;" edge="1" parent="WIyWlLk6GJQsqaUBKTNV-1" source="MlXYabZcb-Fr3cg8tZfr-67" target="MlXYabZcb-Fr3cg8tZfr-70">
          <mxGeometry width="50" height="50" relative="1" as="geometry">
            <mxPoint x="121.78932188134524" y="2325" as="sourcePoint" />
            <mxPoint x="121.78932188134524" y="2275" as="targetPoint" />
          </mxGeometry>
        </mxCell>
        <mxCell id="MlXYabZcb-Fr3cg8tZfr-69" value="" style="endArrow=classic;html=1;rounded=0;entryX=0;entryY=0.5;entryDx=0;entryDy=0;" edge="1" parent="WIyWlLk6GJQsqaUBKTNV-1" source="MlXYabZcb-Fr3cg8tZfr-67" target="MlXYabZcb-Fr3cg8tZfr-71">
          <mxGeometry width="50" height="50" relative="1" as="geometry">
            <mxPoint x="327.5" y="2325" as="sourcePoint" />
            <mxPoint x="398.21067811865487" y="2275" as="targetPoint" />
          </mxGeometry>
        </mxCell>
        <mxCell id="MlXYabZcb-Fr3cg8tZfr-70" value="false" style="rounded=0;whiteSpace=wrap;html=1;" vertex="1" parent="WIyWlLk6GJQsqaUBKTNV-1">
          <mxGeometry y="2245" width="120" height="60" as="geometry" />
        </mxCell>
        <mxCell id="MlXYabZcb-Fr3cg8tZfr-71" value="true" style="rounded=0;whiteSpace=wrap;html=1;" vertex="1" parent="WIyWlLk6GJQsqaUBKTNV-1">
          <mxGeometry x="400" y="2245" width="120" height="60" as="geometry" />
        </mxCell>
        <mxCell id="MlXYabZcb-Fr3cg8tZfr-72" value="" style="endArrow=classic;html=1;rounded=0;entryX=0.713;entryY=0.017;entryDx=0;entryDy=0;entryPerimeter=0;" edge="1" parent="WIyWlLk6GJQsqaUBKTNV-1" source="MlXYabZcb-Fr3cg8tZfr-71" target="MlXYabZcb-Fr3cg8tZfr-75">
          <mxGeometry width="50" height="50" relative="1" as="geometry">
            <mxPoint x="460" y="2355" as="sourcePoint" />
            <mxPoint x="460" y="2375.710678118655" as="targetPoint" />
          </mxGeometry>
        </mxCell>
        <mxCell id="MlXYabZcb-Fr3cg8tZfr-73" value="" style="endArrow=classic;html=1;rounded=0;" edge="1" parent="WIyWlLk6GJQsqaUBKTNV-1" source="MlXYabZcb-Fr3cg8tZfr-70">
          <mxGeometry width="50" height="50" relative="1" as="geometry">
            <mxPoint x="60" y="2355" as="sourcePoint" />
            <mxPoint x="60" y="2379" as="targetPoint" />
          </mxGeometry>
        </mxCell>
        <mxCell id="MlXYabZcb-Fr3cg8tZfr-416" style="edgeStyle=orthogonalEdgeStyle;rounded=0;orthogonalLoop=1;jettySize=auto;html=1;exitX=0.5;exitY=1;exitDx=0;exitDy=0;entryX=0;entryY=0.5;entryDx=0;entryDy=0;" edge="1" parent="WIyWlLk6GJQsqaUBKTNV-1" source="MlXYabZcb-Fr3cg8tZfr-74" target="MlXYabZcb-Fr3cg8tZfr-403">
          <mxGeometry relative="1" as="geometry">
            <Array as="points">
              <mxPoint x="85" y="2700" />
              <mxPoint x="4500" y="2700" />
              <mxPoint x="4500" y="2680" />
            </Array>
          </mxGeometry>
        </mxCell>
        <mxCell id="MlXYabZcb-Fr3cg8tZfr-74" value="Print &quot;While you sit around doing nothing, your the head of police comes in and fires you for wasting 14 days.&quot;" style="shape=parallelogram;perimeter=parallelogramPerimeter;whiteSpace=wrap;html=1;fixedSize=1;" vertex="1" parent="WIyWlLk6GJQsqaUBKTNV-1">
          <mxGeometry y="2380" width="170" height="70" as="geometry" />
        </mxCell>
        <mxCell id="MlXYabZcb-Fr3cg8tZfr-415" style="edgeStyle=orthogonalEdgeStyle;rounded=0;orthogonalLoop=1;jettySize=auto;html=1;exitX=0.5;exitY=1;exitDx=0;exitDy=0;entryX=0;entryY=0.5;entryDx=0;entryDy=0;" edge="1" parent="WIyWlLk6GJQsqaUBKTNV-1" source="MlXYabZcb-Fr3cg8tZfr-75" target="MlXYabZcb-Fr3cg8tZfr-403">
          <mxGeometry relative="1" as="geometry">
            <Array as="points">
              <mxPoint x="415" y="2700" />
              <mxPoint x="4497" y="2700" />
            </Array>
          </mxGeometry>
        </mxCell>
        <mxCell id="MlXYabZcb-Fr3cg8tZfr-75" value="Print &quot;You turn up with nothing. While searching your superior comes in and asks what you are doing looking in classified files that you aren&#39;t allow to be looking at. They don&#39;t take looking for info on bob or his killer as a valid answer because it&#39;s a minor case. You are detained and interrogated.&quot;" style="shape=parallelogram;perimeter=parallelogramPerimeter;whiteSpace=wrap;html=1;fixedSize=1;" vertex="1" parent="WIyWlLk6GJQsqaUBKTNV-1">
          <mxGeometry x="310" y="2380" width="210" height="140" as="geometry" />
        </mxCell>
        <mxCell id="MlXYabZcb-Fr3cg8tZfr-76" value="" style="endArrow=classic;html=1;rounded=0;entryX=0.5;entryY=0;entryDx=0;entryDy=0;entryPerimeter=0;" edge="1" parent="WIyWlLk6GJQsqaUBKTNV-1" target="MlXYabZcb-Fr3cg8tZfr-77">
          <mxGeometry width="50" height="50" relative="1" as="geometry">
            <mxPoint x="820" y="1885" as="sourcePoint" />
            <mxPoint x="820" y="1955.7106781186549" as="targetPoint" />
            <Array as="points" />
          </mxGeometry>
        </mxCell>
        <mxCell id="MlXYabZcb-Fr3cg8tZfr-77" value="Print &quot;You decide to go to the crime scene. On the way to the crime scene you see a dark alley, you have a gut feeling that something is going on in that alley. Do you walk in?&quot;" style="shape=parallelogram;perimeter=parallelogramPerimeter;whiteSpace=wrap;html=1;fixedSize=1;" vertex="1" parent="WIyWlLk6GJQsqaUBKTNV-1">
          <mxGeometry x="725" y="1960" width="190" height="100" as="geometry" />
        </mxCell>
        <mxCell id="MlXYabZcb-Fr3cg8tZfr-78" value="" style="endArrow=classic;html=1;rounded=0;entryX=0.5;entryY=0;entryDx=0;entryDy=0;" edge="1" parent="WIyWlLk6GJQsqaUBKTNV-1" source="MlXYabZcb-Fr3cg8tZfr-77" target="MlXYabZcb-Fr3cg8tZfr-79">
          <mxGeometry width="50" height="50" relative="1" as="geometry">
            <mxPoint x="820" y="2070" as="sourcePoint" />
            <mxPoint x="820" y="2090.710678118655" as="targetPoint" />
          </mxGeometry>
        </mxCell>
        <mxCell id="MlXYabZcb-Fr3cg8tZfr-79" value="Read user input to strUserResponse" style="shape=parallelogram;perimeter=parallelogramPerimeter;whiteSpace=wrap;html=1;fixedSize=1;" vertex="1" parent="WIyWlLk6GJQsqaUBKTNV-1">
          <mxGeometry x="760" y="2090" width="120" height="60" as="geometry" />
        </mxCell>
        <mxCell id="MlXYabZcb-Fr3cg8tZfr-80" value="" style="endArrow=classic;html=1;rounded=0;entryX=0.5;entryY=0;entryDx=0;entryDy=0;" edge="1" parent="WIyWlLk6GJQsqaUBKTNV-1" source="MlXYabZcb-Fr3cg8tZfr-79" target="MlXYabZcb-Fr3cg8tZfr-81">
          <mxGeometry width="50" height="50" relative="1" as="geometry">
            <mxPoint x="820" y="2200" as="sourcePoint" />
            <mxPoint x="820" y="2220.710678118655" as="targetPoint" />
          </mxGeometry>
        </mxCell>
        <mxCell id="MlXYabZcb-Fr3cg8tZfr-81" value="if&amp;nbsp;(strUserReponse.&lt;br&gt;equals(STRYES))" style="rhombus;whiteSpace=wrap;html=1;" vertex="1" parent="WIyWlLk6GJQsqaUBKTNV-1">
          <mxGeometry x="752.5" y="2220" width="135" height="110" as="geometry" />
        </mxCell>
        <mxCell id="MlXYabZcb-Fr3cg8tZfr-82" value="" style="endArrow=classic;html=1;rounded=0;entryX=1;entryY=0.5;entryDx=0;entryDy=0;" edge="1" parent="WIyWlLk6GJQsqaUBKTNV-1" source="MlXYabZcb-Fr3cg8tZfr-81" target="MlXYabZcb-Fr3cg8tZfr-84">
          <mxGeometry width="50" height="50" relative="1" as="geometry">
            <mxPoint x="681.7893218813451" y="2325" as="sourcePoint" />
            <mxPoint x="681.7893218813451" y="2275" as="targetPoint" />
          </mxGeometry>
        </mxCell>
        <mxCell id="MlXYabZcb-Fr3cg8tZfr-83" value="" style="endArrow=classic;html=1;rounded=0;entryX=0;entryY=0.5;entryDx=0;entryDy=0;" edge="1" parent="WIyWlLk6GJQsqaUBKTNV-1" source="MlXYabZcb-Fr3cg8tZfr-81" target="MlXYabZcb-Fr3cg8tZfr-85">
          <mxGeometry width="50" height="50" relative="1" as="geometry">
            <mxPoint x="887.5" y="2325" as="sourcePoint" />
            <mxPoint x="958.2106781186549" y="2275" as="targetPoint" />
          </mxGeometry>
        </mxCell>
        <mxCell id="MlXYabZcb-Fr3cg8tZfr-84" value="false" style="rounded=0;whiteSpace=wrap;html=1;" vertex="1" parent="WIyWlLk6GJQsqaUBKTNV-1">
          <mxGeometry x="560" y="2245" width="120" height="60" as="geometry" />
        </mxCell>
        <mxCell id="MlXYabZcb-Fr3cg8tZfr-85" value="true" style="rounded=0;whiteSpace=wrap;html=1;" vertex="1" parent="WIyWlLk6GJQsqaUBKTNV-1">
          <mxGeometry x="960" y="2245" width="120" height="60" as="geometry" />
        </mxCell>
        <mxCell id="MlXYabZcb-Fr3cg8tZfr-86" value="" style="endArrow=classic;html=1;rounded=0;entryX=0.75;entryY=0;entryDx=0;entryDy=0;" edge="1" parent="WIyWlLk6GJQsqaUBKTNV-1" source="MlXYabZcb-Fr3cg8tZfr-85" target="MlXYabZcb-Fr3cg8tZfr-89">
          <mxGeometry width="50" height="50" relative="1" as="geometry">
            <mxPoint x="1020" y="2355" as="sourcePoint" />
            <mxPoint x="1020" y="2375.710678118655" as="targetPoint" />
          </mxGeometry>
        </mxCell>
        <mxCell id="MlXYabZcb-Fr3cg8tZfr-87" value="" style="endArrow=classic;html=1;rounded=0;entryX=0.323;entryY=0.006;entryDx=0;entryDy=0;entryPerimeter=0;" edge="1" parent="WIyWlLk6GJQsqaUBKTNV-1" source="MlXYabZcb-Fr3cg8tZfr-84" target="MlXYabZcb-Fr3cg8tZfr-88">
          <mxGeometry width="50" height="50" relative="1" as="geometry">
            <mxPoint x="620" y="2355" as="sourcePoint" />
            <mxPoint x="620" y="2375.710678118655" as="targetPoint" />
          </mxGeometry>
        </mxCell>
        <mxCell id="MlXYabZcb-Fr3cg8tZfr-414" style="edgeStyle=orthogonalEdgeStyle;rounded=0;orthogonalLoop=1;jettySize=auto;html=1;exitX=0.5;exitY=1;exitDx=0;exitDy=0;entryX=0;entryY=0.5;entryDx=0;entryDy=0;" edge="1" parent="WIyWlLk6GJQsqaUBKTNV-1" source="MlXYabZcb-Fr3cg8tZfr-88" target="MlXYabZcb-Fr3cg8tZfr-403">
          <mxGeometry relative="1" as="geometry">
            <Array as="points">
              <mxPoint x="655" y="2700" />
              <mxPoint x="2610" y="2700" />
              <mxPoint x="2610" y="2690" />
              <mxPoint x="4497" y="2690" />
            </Array>
          </mxGeometry>
        </mxCell>
        <mxCell id="MlXYabZcb-Fr3cg8tZfr-88" value="Print &quot;You make it to the crime scene, but who ever was here was very meticulous leaving no traces behind, only a business card with Cicada 3301 printed on it. There is not enough information to continue the case, so it&#39;s put on hold and you go to work on other more mundane cases.&quot;" style="shape=parallelogram;perimeter=parallelogramPerimeter;whiteSpace=wrap;html=1;fixedSize=1;" vertex="1" parent="WIyWlLk6GJQsqaUBKTNV-1">
          <mxGeometry x="560" y="2380" width="190" height="140" as="geometry" />
        </mxCell>
        <mxCell id="MlXYabZcb-Fr3cg8tZfr-413" style="edgeStyle=orthogonalEdgeStyle;rounded=0;orthogonalLoop=1;jettySize=auto;html=1;exitX=0.5;exitY=1;exitDx=0;exitDy=0;entryX=0;entryY=0.5;entryDx=0;entryDy=0;" edge="1" parent="WIyWlLk6GJQsqaUBKTNV-1" source="MlXYabZcb-Fr3cg8tZfr-89" target="MlXYabZcb-Fr3cg8tZfr-403">
          <mxGeometry relative="1" as="geometry">
            <Array as="points">
              <mxPoint x="965" y="2690" />
              <mxPoint x="4497" y="2690" />
            </Array>
          </mxGeometry>
        </mxCell>
        <mxCell id="MlXYabZcb-Fr3cg8tZfr-89" value="Print &quot;Walking into the alley, you find a few garbage cans that smells a lot like rotting bodies, but nothing else. While opening one of the garbage cans someone who was hiding in one of the garbage cans pulls out a gun and shoots you. The police find you a few days later along with another body (Bob) in the garbage cans, along with a card with Cicada 3301 printed on it.&quot;" style="shape=parallelogram;perimeter=parallelogramPerimeter;whiteSpace=wrap;html=1;fixedSize=1;" vertex="1" parent="WIyWlLk6GJQsqaUBKTNV-1">
          <mxGeometry x="850" y="2380" width="230" height="160" as="geometry" />
        </mxCell>
        <mxCell id="MlXYabZcb-Fr3cg8tZfr-91" value="" style="endArrow=classic;html=1;rounded=0;entryX=0.5;entryY=0;entryDx=0;entryDy=0;" edge="1" parent="WIyWlLk6GJQsqaUBKTNV-1" target="MlXYabZcb-Fr3cg8tZfr-92">
          <mxGeometry width="50" height="50" relative="1" as="geometry">
            <mxPoint x="1640" y="1465" as="sourcePoint" />
            <mxPoint x="1640" y="1535.7106781186549" as="targetPoint" />
          </mxGeometry>
        </mxCell>
        <mxCell id="MlXYabZcb-Fr3cg8tZfr-92" value="Print &quot;You decide to interrogate Tim, who says that he was just walking home from work and while passing by where Bob was said to have been murdered, he never heard any noise. Do you think he lying?&quot;" style="shape=parallelogram;perimeter=parallelogramPerimeter;whiteSpace=wrap;html=1;fixedSize=1;" vertex="1" parent="WIyWlLk6GJQsqaUBKTNV-1">
          <mxGeometry x="1545" y="1540" width="190" height="100" as="geometry" />
        </mxCell>
        <mxCell id="MlXYabZcb-Fr3cg8tZfr-93" value="" style="endArrow=classic;html=1;rounded=0;entryX=0.5;entryY=0;entryDx=0;entryDy=0;" edge="1" parent="WIyWlLk6GJQsqaUBKTNV-1" source="MlXYabZcb-Fr3cg8tZfr-92" target="MlXYabZcb-Fr3cg8tZfr-94">
          <mxGeometry width="50" height="50" relative="1" as="geometry">
            <mxPoint x="1640" y="1650" as="sourcePoint" />
            <mxPoint x="1640" y="1670.7106781186549" as="targetPoint" />
          </mxGeometry>
        </mxCell>
        <mxCell id="MlXYabZcb-Fr3cg8tZfr-94" value="Read user input to strUserResponse" style="shape=parallelogram;perimeter=parallelogramPerimeter;whiteSpace=wrap;html=1;fixedSize=1;" vertex="1" parent="WIyWlLk6GJQsqaUBKTNV-1">
          <mxGeometry x="1580" y="1670" width="120" height="60" as="geometry" />
        </mxCell>
        <mxCell id="MlXYabZcb-Fr3cg8tZfr-95" value="" style="endArrow=classic;html=1;rounded=0;entryX=0.5;entryY=0;entryDx=0;entryDy=0;" edge="1" parent="WIyWlLk6GJQsqaUBKTNV-1" source="MlXYabZcb-Fr3cg8tZfr-94" target="MlXYabZcb-Fr3cg8tZfr-96">
          <mxGeometry width="50" height="50" relative="1" as="geometry">
            <mxPoint x="1640" y="1780" as="sourcePoint" />
            <mxPoint x="1640" y="1800.7106781186549" as="targetPoint" />
          </mxGeometry>
        </mxCell>
        <mxCell id="MlXYabZcb-Fr3cg8tZfr-96" value="if&amp;nbsp;(strUserReponse.&lt;br&gt;equals(STRYES))" style="rhombus;whiteSpace=wrap;html=1;" vertex="1" parent="WIyWlLk6GJQsqaUBKTNV-1">
          <mxGeometry x="1572.5" y="1800" width="135" height="110" as="geometry" />
        </mxCell>
        <mxCell id="MlXYabZcb-Fr3cg8tZfr-97" value="" style="endArrow=classic;html=1;rounded=0;entryX=1;entryY=0.5;entryDx=0;entryDy=0;exitX=0;exitY=0.5;exitDx=0;exitDy=0;" edge="1" parent="WIyWlLk6GJQsqaUBKTNV-1" source="MlXYabZcb-Fr3cg8tZfr-96" target="MlXYabZcb-Fr3cg8tZfr-99">
          <mxGeometry width="50" height="50" relative="1" as="geometry">
            <mxPoint x="1570" y="1855" as="sourcePoint" />
            <mxPoint x="1421.7893218813451" y="1855" as="targetPoint" />
          </mxGeometry>
        </mxCell>
        <mxCell id="MlXYabZcb-Fr3cg8tZfr-98" value="" style="endArrow=classic;html=1;rounded=0;entryX=0;entryY=0.5;entryDx=0;entryDy=0;" edge="1" parent="WIyWlLk6GJQsqaUBKTNV-1" source="MlXYabZcb-Fr3cg8tZfr-96" target="MlXYabZcb-Fr3cg8tZfr-100">
          <mxGeometry width="50" height="50" relative="1" as="geometry">
            <mxPoint x="1707.5" y="1905" as="sourcePoint" />
            <mxPoint x="1778.2106781186549" y="1855" as="targetPoint" />
          </mxGeometry>
        </mxCell>
        <mxCell id="MlXYabZcb-Fr3cg8tZfr-99" value="false" style="rounded=0;whiteSpace=wrap;html=1;" vertex="1" parent="WIyWlLk6GJQsqaUBKTNV-1">
          <mxGeometry x="1300" y="1825" width="120" height="60" as="geometry" />
        </mxCell>
        <mxCell id="MlXYabZcb-Fr3cg8tZfr-100" value="true" style="rounded=0;whiteSpace=wrap;html=1;" vertex="1" parent="WIyWlLk6GJQsqaUBKTNV-1">
          <mxGeometry x="1860" y="1825" width="120" height="60" as="geometry" />
        </mxCell>
        <mxCell id="MlXYabZcb-Fr3cg8tZfr-101" value="" style="endArrow=classic;html=1;rounded=0;entryX=0.5;entryY=0;entryDx=0;entryDy=0;entryPerimeter=0;" edge="1" parent="WIyWlLk6GJQsqaUBKTNV-1" source="MlXYabZcb-Fr3cg8tZfr-99" target="MlXYabZcb-Fr3cg8tZfr-102">
          <mxGeometry width="50" height="50" relative="1" as="geometry">
            <mxPoint x="1360" y="1935" as="sourcePoint" />
            <mxPoint x="1360" y="1955.7106781186549" as="targetPoint" />
          </mxGeometry>
        </mxCell>
        <mxCell id="MlXYabZcb-Fr3cg8tZfr-102" value="Print &quot;You decide to not press Tim further, because you think that he&#39;s not lying. But it would be odd if there was no noise during a murder. Is Bob really dead or maybe he was kidnapped with the use of chloroform. No, the body was there. . . wait. You rush to the crime scene. The body WAS there where is the body, leaving just some blood behind. How did it vanish??? You hear something being dragged around the corner. Do you immediately draw a weapon and attempt to kill/maim whatever/whoever is on the scene?&quot;" style="shape=parallelogram;perimeter=parallelogramPerimeter;whiteSpace=wrap;html=1;fixedSize=1;" vertex="1" parent="WIyWlLk6GJQsqaUBKTNV-1">
          <mxGeometry x="1180" y="1900" width="360" height="150" as="geometry" />
        </mxCell>
        <mxCell id="MlXYabZcb-Fr3cg8tZfr-103" value="" style="endArrow=classic;html=1;rounded=0;entryX=0.5;entryY=0;entryDx=0;entryDy=0;" edge="1" parent="WIyWlLk6GJQsqaUBKTNV-1" source="MlXYabZcb-Fr3cg8tZfr-102" target="MlXYabZcb-Fr3cg8tZfr-104">
          <mxGeometry width="50" height="50" relative="1" as="geometry">
            <mxPoint x="1360" y="2070" as="sourcePoint" />
            <mxPoint x="1360" y="2090.710678118655" as="targetPoint" />
          </mxGeometry>
        </mxCell>
        <mxCell id="MlXYabZcb-Fr3cg8tZfr-104" value="Read user input to strUserResponse" style="shape=parallelogram;perimeter=parallelogramPerimeter;whiteSpace=wrap;html=1;fixedSize=1;" vertex="1" parent="WIyWlLk6GJQsqaUBKTNV-1">
          <mxGeometry x="1300" y="2090" width="120" height="60" as="geometry" />
        </mxCell>
        <mxCell id="MlXYabZcb-Fr3cg8tZfr-105" value="" style="endArrow=classic;html=1;rounded=0;entryX=0.5;entryY=0;entryDx=0;entryDy=0;" edge="1" parent="WIyWlLk6GJQsqaUBKTNV-1" source="MlXYabZcb-Fr3cg8tZfr-104" target="MlXYabZcb-Fr3cg8tZfr-106">
          <mxGeometry width="50" height="50" relative="1" as="geometry">
            <mxPoint x="1360" y="2200" as="sourcePoint" />
            <mxPoint x="1360" y="2220.710678118655" as="targetPoint" />
          </mxGeometry>
        </mxCell>
        <mxCell id="MlXYabZcb-Fr3cg8tZfr-106" value="if&amp;nbsp;(strUserReponse.&lt;br&gt;equals(STRYES))" style="rhombus;whiteSpace=wrap;html=1;" vertex="1" parent="WIyWlLk6GJQsqaUBKTNV-1">
          <mxGeometry x="1292.5" y="2220" width="135" height="110" as="geometry" />
        </mxCell>
        <mxCell id="MlXYabZcb-Fr3cg8tZfr-107" value="" style="endArrow=classic;html=1;rounded=0;entryX=1;entryY=0.5;entryDx=0;entryDy=0;" edge="1" parent="WIyWlLk6GJQsqaUBKTNV-1" source="MlXYabZcb-Fr3cg8tZfr-106" target="MlXYabZcb-Fr3cg8tZfr-109">
          <mxGeometry width="50" height="50" relative="1" as="geometry">
            <mxPoint x="1221.7893218813451" y="2325" as="sourcePoint" />
            <mxPoint x="1221.7893218813451" y="2275" as="targetPoint" />
          </mxGeometry>
        </mxCell>
        <mxCell id="MlXYabZcb-Fr3cg8tZfr-108" value="" style="endArrow=classic;html=1;rounded=0;entryX=0;entryY=0.5;entryDx=0;entryDy=0;" edge="1" parent="WIyWlLk6GJQsqaUBKTNV-1" source="MlXYabZcb-Fr3cg8tZfr-106" target="MlXYabZcb-Fr3cg8tZfr-110">
          <mxGeometry width="50" height="50" relative="1" as="geometry">
            <mxPoint x="1427.5" y="2325" as="sourcePoint" />
            <mxPoint x="1498.2106781186549" y="2275" as="targetPoint" />
          </mxGeometry>
        </mxCell>
        <mxCell id="MlXYabZcb-Fr3cg8tZfr-109" value="false" style="rounded=0;whiteSpace=wrap;html=1;" vertex="1" parent="WIyWlLk6GJQsqaUBKTNV-1">
          <mxGeometry x="1100" y="2245" width="120" height="60" as="geometry" />
        </mxCell>
        <mxCell id="MlXYabZcb-Fr3cg8tZfr-110" value="true" style="rounded=0;whiteSpace=wrap;html=1;" vertex="1" parent="WIyWlLk6GJQsqaUBKTNV-1">
          <mxGeometry x="1500" y="2245" width="120" height="60" as="geometry" />
        </mxCell>
        <mxCell id="MlXYabZcb-Fr3cg8tZfr-111" value="" style="endArrow=classic;html=1;rounded=0;entryX=0.5;entryY=0;entryDx=0;entryDy=0;" edge="1" parent="WIyWlLk6GJQsqaUBKTNV-1" source="MlXYabZcb-Fr3cg8tZfr-110">
          <mxGeometry width="50" height="50" relative="1" as="geometry">
            <mxPoint x="1560" y="2355" as="sourcePoint" />
            <mxPoint x="1560" y="2380" as="targetPoint" />
          </mxGeometry>
        </mxCell>
        <mxCell id="MlXYabZcb-Fr3cg8tZfr-112" value="" style="endArrow=classic;html=1;rounded=0;entryX=0.25;entryY=0;entryDx=0;entryDy=0;" edge="1" parent="WIyWlLk6GJQsqaUBKTNV-1" source="MlXYabZcb-Fr3cg8tZfr-109" target="MlXYabZcb-Fr3cg8tZfr-113">
          <mxGeometry width="50" height="50" relative="1" as="geometry">
            <mxPoint x="1160" y="2355" as="sourcePoint" />
            <mxPoint x="1160" y="2390" as="targetPoint" />
          </mxGeometry>
        </mxCell>
        <mxCell id="MlXYabZcb-Fr3cg8tZfr-412" style="edgeStyle=orthogonalEdgeStyle;rounded=0;orthogonalLoop=1;jettySize=auto;html=1;exitX=0.5;exitY=1;exitDx=0;exitDy=0;entryX=0;entryY=0.5;entryDx=0;entryDy=0;" edge="1" parent="WIyWlLk6GJQsqaUBKTNV-1" source="MlXYabZcb-Fr3cg8tZfr-113" target="MlXYabZcb-Fr3cg8tZfr-403">
          <mxGeometry relative="1" as="geometry">
            <Array as="points">
              <mxPoint x="1220" y="2680" />
            </Array>
          </mxGeometry>
        </mxCell>
        <mxCell id="MlXYabZcb-Fr3cg8tZfr-113" value="Print you walk closer to find out what is making the noise, as you approach you make out a wild dog dragging a body away. You chase the dog of but, it&#39;s not Bob&#39;s body. . . Where where did it go? You continue the case, but nothing comes of it." style="shape=parallelogram;perimeter=parallelogramPerimeter;whiteSpace=wrap;html=1;fixedSize=1;" vertex="1" parent="WIyWlLk6GJQsqaUBKTNV-1">
          <mxGeometry x="1100" y="2380" width="240" height="180" as="geometry" />
        </mxCell>
        <mxCell id="MlXYabZcb-Fr3cg8tZfr-115" value="" style="endArrow=classic;html=1;rounded=0;entryX=0.5;entryY=0;entryDx=0;entryDy=0;entryPerimeter=0;" edge="1" parent="WIyWlLk6GJQsqaUBKTNV-1" target="MlXYabZcb-Fr3cg8tZfr-116">
          <mxGeometry width="50" height="50" relative="1" as="geometry">
            <mxPoint x="1920" y="1885" as="sourcePoint" />
            <mxPoint x="1920" y="1955.7106781186549" as="targetPoint" />
            <Array as="points" />
          </mxGeometry>
        </mxCell>
        <mxCell id="MlXYabZcb-Fr3cg8tZfr-116" value="Print &quot;You don&#39;t believe that Tim is telling the truth so you press him for more details about his life, but he can&#39;t tell you anything about his job, perhaps he is the killer or perhaps he works a confidential job which he can&#39;t disclose. But he won&#39;t tell you anything about his job or where he works. Do you think he is the killer?&quot;" style="shape=parallelogram;perimeter=parallelogramPerimeter;whiteSpace=wrap;html=1;fixedSize=1;" vertex="1" parent="WIyWlLk6GJQsqaUBKTNV-1">
          <mxGeometry x="1790" y="1910" width="260" height="160" as="geometry" />
        </mxCell>
        <mxCell id="MlXYabZcb-Fr3cg8tZfr-117" value="" style="endArrow=classic;html=1;rounded=0;entryX=0.5;entryY=0;entryDx=0;entryDy=0;" edge="1" parent="WIyWlLk6GJQsqaUBKTNV-1" source="MlXYabZcb-Fr3cg8tZfr-116" target="MlXYabZcb-Fr3cg8tZfr-118">
          <mxGeometry width="50" height="50" relative="1" as="geometry">
            <mxPoint x="1920" y="2070" as="sourcePoint" />
            <mxPoint x="1920" y="2090.710678118655" as="targetPoint" />
          </mxGeometry>
        </mxCell>
        <mxCell id="MlXYabZcb-Fr3cg8tZfr-118" value="Read user input to strUserResponse" style="shape=parallelogram;perimeter=parallelogramPerimeter;whiteSpace=wrap;html=1;fixedSize=1;" vertex="1" parent="WIyWlLk6GJQsqaUBKTNV-1">
          <mxGeometry x="1860" y="2090" width="120" height="60" as="geometry" />
        </mxCell>
        <mxCell id="MlXYabZcb-Fr3cg8tZfr-119" value="" style="endArrow=classic;html=1;rounded=0;entryX=0.5;entryY=0;entryDx=0;entryDy=0;" edge="1" parent="WIyWlLk6GJQsqaUBKTNV-1" source="MlXYabZcb-Fr3cg8tZfr-118" target="MlXYabZcb-Fr3cg8tZfr-120">
          <mxGeometry width="50" height="50" relative="1" as="geometry">
            <mxPoint x="1920" y="2200" as="sourcePoint" />
            <mxPoint x="1920" y="2220.710678118655" as="targetPoint" />
          </mxGeometry>
        </mxCell>
        <mxCell id="MlXYabZcb-Fr3cg8tZfr-120" value="if&amp;nbsp;(strUserReponse.&lt;br&gt;equals(STRYES))" style="rhombus;whiteSpace=wrap;html=1;" vertex="1" parent="WIyWlLk6GJQsqaUBKTNV-1">
          <mxGeometry x="1852.5" y="2220" width="135" height="110" as="geometry" />
        </mxCell>
        <mxCell id="MlXYabZcb-Fr3cg8tZfr-121" value="" style="endArrow=classic;html=1;rounded=0;entryX=1;entryY=0.5;entryDx=0;entryDy=0;" edge="1" parent="WIyWlLk6GJQsqaUBKTNV-1" source="MlXYabZcb-Fr3cg8tZfr-120" target="MlXYabZcb-Fr3cg8tZfr-123">
          <mxGeometry width="50" height="50" relative="1" as="geometry">
            <mxPoint x="1781.7893218813451" y="2325" as="sourcePoint" />
            <mxPoint x="1781.7893218813451" y="2275" as="targetPoint" />
          </mxGeometry>
        </mxCell>
        <mxCell id="MlXYabZcb-Fr3cg8tZfr-122" value="" style="endArrow=classic;html=1;rounded=0;entryX=0;entryY=0.5;entryDx=0;entryDy=0;" edge="1" parent="WIyWlLk6GJQsqaUBKTNV-1" source="MlXYabZcb-Fr3cg8tZfr-120" target="MlXYabZcb-Fr3cg8tZfr-124">
          <mxGeometry width="50" height="50" relative="1" as="geometry">
            <mxPoint x="1987.5" y="2325" as="sourcePoint" />
            <mxPoint x="2058.210678118655" y="2275" as="targetPoint" />
          </mxGeometry>
        </mxCell>
        <mxCell id="MlXYabZcb-Fr3cg8tZfr-123" value="false" style="rounded=0;whiteSpace=wrap;html=1;" vertex="1" parent="WIyWlLk6GJQsqaUBKTNV-1">
          <mxGeometry x="1660" y="2245" width="120" height="60" as="geometry" />
        </mxCell>
        <mxCell id="MlXYabZcb-Fr3cg8tZfr-124" value="true" style="rounded=0;whiteSpace=wrap;html=1;" vertex="1" parent="WIyWlLk6GJQsqaUBKTNV-1">
          <mxGeometry x="2060" y="2245" width="120" height="60" as="geometry" />
        </mxCell>
        <mxCell id="MlXYabZcb-Fr3cg8tZfr-125" value="" style="endArrow=classic;html=1;rounded=0;entryX=0.556;entryY=-0.008;entryDx=0;entryDy=0;entryPerimeter=0;" edge="1" parent="WIyWlLk6GJQsqaUBKTNV-1" source="MlXYabZcb-Fr3cg8tZfr-124" target="MlXYabZcb-Fr3cg8tZfr-128">
          <mxGeometry width="50" height="50" relative="1" as="geometry">
            <mxPoint x="2120" y="2355" as="sourcePoint" />
            <mxPoint x="2120" y="2375.710678118655" as="targetPoint" />
          </mxGeometry>
        </mxCell>
        <mxCell id="MlXYabZcb-Fr3cg8tZfr-126" value="" style="endArrow=classic;html=1;rounded=0;" edge="1" parent="WIyWlLk6GJQsqaUBKTNV-1" source="MlXYabZcb-Fr3cg8tZfr-123">
          <mxGeometry width="50" height="50" relative="1" as="geometry">
            <mxPoint x="1720" y="2355" as="sourcePoint" />
            <mxPoint x="1720" y="2380" as="targetPoint" />
          </mxGeometry>
        </mxCell>
        <mxCell id="MlXYabZcb-Fr3cg8tZfr-410" style="edgeStyle=orthogonalEdgeStyle;rounded=0;orthogonalLoop=1;jettySize=auto;html=1;exitX=0.5;exitY=1;exitDx=0;exitDy=0;entryX=0;entryY=0.5;entryDx=0;entryDy=0;" edge="1" parent="WIyWlLk6GJQsqaUBKTNV-1" source="MlXYabZcb-Fr3cg8tZfr-127" target="MlXYabZcb-Fr3cg8tZfr-403">
          <mxGeometry relative="1" as="geometry">
            <Array as="points">
              <mxPoint x="1745" y="2690" />
              <mxPoint x="4497" y="2690" />
            </Array>
          </mxGeometry>
        </mxCell>
        <mxCell id="MlXYabZcb-Fr3cg8tZfr-127" value="Print &quot;He thanks you for believing him that he is not the killer and, he tells you that he looks forward to working with you on the case, leaving you confused. For the rest of the case, out of the corner of your eye you sometimes see Tim, but when you turn your head to look directly at him he isn&#39;t there. The case is never solve, and left open.&quot;" style="shape=parallelogram;perimeter=parallelogramPerimeter;whiteSpace=wrap;html=1;fixedSize=1;" vertex="1" parent="WIyWlLk6GJQsqaUBKTNV-1">
          <mxGeometry x="1660" y="2380" width="170" height="200" as="geometry" />
        </mxCell>
        <mxCell id="MlXYabZcb-Fr3cg8tZfr-409" style="edgeStyle=orthogonalEdgeStyle;rounded=0;orthogonalLoop=1;jettySize=auto;html=1;exitX=0.5;exitY=1;exitDx=0;exitDy=0;entryX=0;entryY=0.5;entryDx=0;entryDy=0;" edge="1" parent="WIyWlLk6GJQsqaUBKTNV-1" source="MlXYabZcb-Fr3cg8tZfr-128" target="MlXYabZcb-Fr3cg8tZfr-403">
          <mxGeometry relative="1" as="geometry">
            <Array as="points">
              <mxPoint x="2111" y="2680" />
            </Array>
          </mxGeometry>
        </mxCell>
        <mxCell id="MlXYabZcb-Fr3cg8tZfr-128" value="Print &quot;You tell the police you are working with that Tim is the murder, and he is take to jail, but just a day later he&#39;s out and no one will tell you why, what happened or who he his. The case is closed publicly, with media headlines saying that Tom killed bob, but privately the case is still ongoing, known to only those working on it. It is eventually closed internally.&quot;" style="shape=parallelogram;perimeter=parallelogramPerimeter;whiteSpace=wrap;html=1;fixedSize=1;" vertex="1" parent="WIyWlLk6GJQsqaUBKTNV-1">
          <mxGeometry x="2020" y="2380" width="181" height="190" as="geometry" />
        </mxCell>
        <mxCell id="MlXYabZcb-Fr3cg8tZfr-130" value="" style="endArrow=classic;html=1;rounded=0;entryX=0.5;entryY=0;entryDx=0;entryDy=0;" edge="1" parent="WIyWlLk6GJQsqaUBKTNV-1" target="MlXYabZcb-Fr3cg8tZfr-131">
          <mxGeometry width="50" height="50" relative="1" as="geometry">
            <mxPoint x="3390" y="1040" as="sourcePoint" />
            <mxPoint x="3390" y="1110.7106781186549" as="targetPoint" />
          </mxGeometry>
        </mxCell>
        <mxCell id="MlXYabZcb-Fr3cg8tZfr-131" value="Print &quot;Pat says that he was drunk, and probably with Bob when he was murdered but can&#39;t remember. He says he might know something and hands you a small card with ##)! written on it. He says that he found it in his pocket, but never put it there. Do you know what could mean? &quot;" style="shape=parallelogram;perimeter=parallelogramPerimeter;whiteSpace=wrap;html=1;fixedSize=1;" vertex="1" parent="WIyWlLk6GJQsqaUBKTNV-1">
          <mxGeometry x="3295" y="1080" width="190" height="130" as="geometry" />
        </mxCell>
        <mxCell id="MlXYabZcb-Fr3cg8tZfr-132" value="" style="endArrow=classic;html=1;rounded=0;entryX=0.5;entryY=0;entryDx=0;entryDy=0;" edge="1" parent="WIyWlLk6GJQsqaUBKTNV-1" source="MlXYabZcb-Fr3cg8tZfr-131" target="MlXYabZcb-Fr3cg8tZfr-133">
          <mxGeometry width="50" height="50" relative="1" as="geometry">
            <mxPoint x="3390" y="1225" as="sourcePoint" />
            <mxPoint x="3390" y="1245.7106781186549" as="targetPoint" />
          </mxGeometry>
        </mxCell>
        <mxCell id="MlXYabZcb-Fr3cg8tZfr-133" value="Read user input to strUserResponse" style="shape=parallelogram;perimeter=parallelogramPerimeter;whiteSpace=wrap;html=1;fixedSize=1;" vertex="1" parent="WIyWlLk6GJQsqaUBKTNV-1">
          <mxGeometry x="3330" y="1245" width="120" height="60" as="geometry" />
        </mxCell>
        <mxCell id="MlXYabZcb-Fr3cg8tZfr-134" value="" style="endArrow=classic;html=1;rounded=0;entryX=0.5;entryY=0;entryDx=0;entryDy=0;" edge="1" parent="WIyWlLk6GJQsqaUBKTNV-1" source="MlXYabZcb-Fr3cg8tZfr-133" target="MlXYabZcb-Fr3cg8tZfr-135">
          <mxGeometry width="50" height="50" relative="1" as="geometry">
            <mxPoint x="3390" y="1355" as="sourcePoint" />
            <mxPoint x="3390" y="1375.7106781186549" as="targetPoint" />
          </mxGeometry>
        </mxCell>
        <mxCell id="MlXYabZcb-Fr3cg8tZfr-135" value="if&amp;nbsp;(strUserReponse.&lt;br&gt;equals(STRYES))" style="rhombus;whiteSpace=wrap;html=1;" vertex="1" parent="WIyWlLk6GJQsqaUBKTNV-1">
          <mxGeometry x="3322.5" y="1375" width="135" height="110" as="geometry" />
        </mxCell>
        <mxCell id="MlXYabZcb-Fr3cg8tZfr-136" value="" style="endArrow=classic;html=1;rounded=0;entryX=1;entryY=0.5;entryDx=0;entryDy=0;exitX=0;exitY=0.5;exitDx=0;exitDy=0;" edge="1" parent="WIyWlLk6GJQsqaUBKTNV-1" source="MlXYabZcb-Fr3cg8tZfr-135" target="MlXYabZcb-Fr3cg8tZfr-138">
          <mxGeometry width="50" height="50" relative="1" as="geometry">
            <mxPoint x="2972.5" y="1430" as="sourcePoint" />
            <mxPoint x="2901.789321881345" y="1430" as="targetPoint" />
          </mxGeometry>
        </mxCell>
        <mxCell id="MlXYabZcb-Fr3cg8tZfr-137" value="" style="endArrow=classic;html=1;rounded=0;entryX=0;entryY=0.5;entryDx=0;entryDy=0;exitX=1;exitY=0.5;exitDx=0;exitDy=0;" edge="1" parent="WIyWlLk6GJQsqaUBKTNV-1" source="MlXYabZcb-Fr3cg8tZfr-135" target="MlXYabZcb-Fr3cg8tZfr-139">
          <mxGeometry width="50" height="50" relative="1" as="geometry">
            <mxPoint x="3460" y="1435" as="sourcePoint" />
            <mxPoint x="3528.210678118655" y="1450" as="targetPoint" />
          </mxGeometry>
        </mxCell>
        <mxCell id="MlXYabZcb-Fr3cg8tZfr-138" value="false" style="rounded=0;whiteSpace=wrap;html=1;" vertex="1" parent="WIyWlLk6GJQsqaUBKTNV-1">
          <mxGeometry x="2780" y="1400" width="120" height="60" as="geometry" />
        </mxCell>
        <mxCell id="MlXYabZcb-Fr3cg8tZfr-139" value="true" style="rounded=0;whiteSpace=wrap;html=1;" vertex="1" parent="WIyWlLk6GJQsqaUBKTNV-1">
          <mxGeometry x="3880" y="1400" width="120" height="60" as="geometry" />
        </mxCell>
        <mxCell id="MlXYabZcb-Fr3cg8tZfr-140" value="" style="endArrow=classic;html=1;rounded=0;entryX=0.5;entryY=0;entryDx=0;entryDy=0;" edge="1" parent="WIyWlLk6GJQsqaUBKTNV-1" source="MlXYabZcb-Fr3cg8tZfr-138" target="MlXYabZcb-Fr3cg8tZfr-141">
          <mxGeometry width="50" height="50" relative="1" as="geometry">
            <mxPoint x="2840" y="1510" as="sourcePoint" />
            <mxPoint x="2840" y="1530.7106781186549" as="targetPoint" />
          </mxGeometry>
        </mxCell>
        <mxCell id="MlXYabZcb-Fr3cg8tZfr-141" value="Print &quot;You have no idea what they 4 character could mean and ask pat what it could be, Pat says that they have no idea. Bring it to a specialist to try and find out who it belongs to or what it means. But this will take time, would you like to go out to eat lunch?&quot;" style="shape=parallelogram;perimeter=parallelogramPerimeter;whiteSpace=wrap;html=1;fixedSize=1;" vertex="1" parent="WIyWlLk6GJQsqaUBKTNV-1">
          <mxGeometry x="2710" y="1500" width="260" height="150" as="geometry" />
        </mxCell>
        <mxCell id="MlXYabZcb-Fr3cg8tZfr-142" value="" style="endArrow=classic;html=1;rounded=0;entryX=0.5;entryY=0;entryDx=0;entryDy=0;" edge="1" parent="WIyWlLk6GJQsqaUBKTNV-1" source="MlXYabZcb-Fr3cg8tZfr-141" target="MlXYabZcb-Fr3cg8tZfr-143">
          <mxGeometry width="50" height="50" relative="1" as="geometry">
            <mxPoint x="2840" y="1645" as="sourcePoint" />
            <mxPoint x="2840" y="1665.7106781186549" as="targetPoint" />
          </mxGeometry>
        </mxCell>
        <mxCell id="MlXYabZcb-Fr3cg8tZfr-143" value="Read user input to strUserResponse" style="shape=parallelogram;perimeter=parallelogramPerimeter;whiteSpace=wrap;html=1;fixedSize=1;" vertex="1" parent="WIyWlLk6GJQsqaUBKTNV-1">
          <mxGeometry x="2780" y="1665" width="120" height="60" as="geometry" />
        </mxCell>
        <mxCell id="MlXYabZcb-Fr3cg8tZfr-144" value="" style="endArrow=classic;html=1;rounded=0;entryX=0.5;entryY=0;entryDx=0;entryDy=0;" edge="1" parent="WIyWlLk6GJQsqaUBKTNV-1" source="MlXYabZcb-Fr3cg8tZfr-143" target="MlXYabZcb-Fr3cg8tZfr-145">
          <mxGeometry width="50" height="50" relative="1" as="geometry">
            <mxPoint x="2840" y="1775" as="sourcePoint" />
            <mxPoint x="2840" y="1795.7106781186549" as="targetPoint" />
          </mxGeometry>
        </mxCell>
        <mxCell id="MlXYabZcb-Fr3cg8tZfr-145" value="if&amp;nbsp;(strUserReponse.&lt;br&gt;equals(STRYES))" style="rhombus;whiteSpace=wrap;html=1;" vertex="1" parent="WIyWlLk6GJQsqaUBKTNV-1">
          <mxGeometry x="2772.5" y="1795" width="135" height="110" as="geometry" />
        </mxCell>
        <mxCell id="MlXYabZcb-Fr3cg8tZfr-146" value="" style="endArrow=classic;html=1;rounded=0;entryX=1;entryY=0.5;entryDx=0;entryDy=0;exitX=0;exitY=0.5;exitDx=0;exitDy=0;" edge="1" parent="WIyWlLk6GJQsqaUBKTNV-1" source="MlXYabZcb-Fr3cg8tZfr-145" target="MlXYabZcb-Fr3cg8tZfr-148">
          <mxGeometry width="50" height="50" relative="1" as="geometry">
            <mxPoint x="2770" y="1850" as="sourcePoint" />
            <mxPoint x="2621.789321881345" y="1850" as="targetPoint" />
          </mxGeometry>
        </mxCell>
        <mxCell id="MlXYabZcb-Fr3cg8tZfr-147" value="" style="endArrow=classic;html=1;rounded=0;entryX=0;entryY=0.5;entryDx=0;entryDy=0;" edge="1" parent="WIyWlLk6GJQsqaUBKTNV-1" source="MlXYabZcb-Fr3cg8tZfr-145" target="MlXYabZcb-Fr3cg8tZfr-149">
          <mxGeometry width="50" height="50" relative="1" as="geometry">
            <mxPoint x="2907.5" y="1900" as="sourcePoint" />
            <mxPoint x="2978.210678118655" y="1850" as="targetPoint" />
          </mxGeometry>
        </mxCell>
        <mxCell id="MlXYabZcb-Fr3cg8tZfr-148" value="false" style="rounded=0;whiteSpace=wrap;html=1;" vertex="1" parent="WIyWlLk6GJQsqaUBKTNV-1">
          <mxGeometry x="2500" y="1820" width="120" height="60" as="geometry" />
        </mxCell>
        <mxCell id="MlXYabZcb-Fr3cg8tZfr-149" value="true" style="rounded=0;whiteSpace=wrap;html=1;" vertex="1" parent="WIyWlLk6GJQsqaUBKTNV-1">
          <mxGeometry x="3060" y="1820" width="120" height="60" as="geometry" />
        </mxCell>
        <mxCell id="MlXYabZcb-Fr3cg8tZfr-150" value="" style="endArrow=classic;html=1;rounded=0;entryX=0.5;entryY=0;entryDx=0;entryDy=0;entryPerimeter=0;" edge="1" parent="WIyWlLk6GJQsqaUBKTNV-1" source="MlXYabZcb-Fr3cg8tZfr-148" target="MlXYabZcb-Fr3cg8tZfr-151">
          <mxGeometry width="50" height="50" relative="1" as="geometry">
            <mxPoint x="2560" y="1930" as="sourcePoint" />
            <mxPoint x="2560" y="1950.7106781186549" as="targetPoint" />
          </mxGeometry>
        </mxCell>
        <mxCell id="MlXYabZcb-Fr3cg8tZfr-151" value="Print &quot;You sit in your office waiting for the specialist to find out more about the card, you wonder about DSA, when would you use a multi-dimensional segtree, how could you hash in O(logN) time? How should you approach 7p+ construction problems? Ah, the specialist is done, back to work. The specialist says that it&#39;s the sign of a organization called Cicada, and you could probably find there meeting spot in &quot;The Whiskey Bar&quot; Would you like to go to try and find them?&quot;" style="shape=parallelogram;perimeter=parallelogramPerimeter;whiteSpace=wrap;html=1;fixedSize=1;" vertex="1" parent="WIyWlLk6GJQsqaUBKTNV-1">
          <mxGeometry x="2420" y="1920" width="280" height="150" as="geometry" />
        </mxCell>
        <mxCell id="MlXYabZcb-Fr3cg8tZfr-152" value="" style="endArrow=classic;html=1;rounded=0;entryX=0.5;entryY=0;entryDx=0;entryDy=0;" edge="1" parent="WIyWlLk6GJQsqaUBKTNV-1" source="MlXYabZcb-Fr3cg8tZfr-151" target="MlXYabZcb-Fr3cg8tZfr-153">
          <mxGeometry width="50" height="50" relative="1" as="geometry">
            <mxPoint x="2560" y="2065" as="sourcePoint" />
            <mxPoint x="2560" y="2085.710678118655" as="targetPoint" />
          </mxGeometry>
        </mxCell>
        <mxCell id="MlXYabZcb-Fr3cg8tZfr-153" value="Read user input to strUserResponse" style="shape=parallelogram;perimeter=parallelogramPerimeter;whiteSpace=wrap;html=1;fixedSize=1;" vertex="1" parent="WIyWlLk6GJQsqaUBKTNV-1">
          <mxGeometry x="2500" y="2085" width="120" height="60" as="geometry" />
        </mxCell>
        <mxCell id="MlXYabZcb-Fr3cg8tZfr-154" value="" style="endArrow=classic;html=1;rounded=0;entryX=0.5;entryY=0;entryDx=0;entryDy=0;" edge="1" parent="WIyWlLk6GJQsqaUBKTNV-1" source="MlXYabZcb-Fr3cg8tZfr-153" target="MlXYabZcb-Fr3cg8tZfr-155">
          <mxGeometry width="50" height="50" relative="1" as="geometry">
            <mxPoint x="2560" y="2195" as="sourcePoint" />
            <mxPoint x="2560" y="2215.710678118655" as="targetPoint" />
          </mxGeometry>
        </mxCell>
        <mxCell id="MlXYabZcb-Fr3cg8tZfr-155" value="if&amp;nbsp;(strUserReponse.&lt;br&gt;equals(STRYES))" style="rhombus;whiteSpace=wrap;html=1;" vertex="1" parent="WIyWlLk6GJQsqaUBKTNV-1">
          <mxGeometry x="2492.5" y="2215" width="135" height="110" as="geometry" />
        </mxCell>
        <mxCell id="MlXYabZcb-Fr3cg8tZfr-156" value="" style="endArrow=classic;html=1;rounded=0;entryX=1;entryY=0.5;entryDx=0;entryDy=0;" edge="1" parent="WIyWlLk6GJQsqaUBKTNV-1" source="MlXYabZcb-Fr3cg8tZfr-155" target="MlXYabZcb-Fr3cg8tZfr-158">
          <mxGeometry width="50" height="50" relative="1" as="geometry">
            <mxPoint x="2421.789321881345" y="2320" as="sourcePoint" />
            <mxPoint x="2421.789321881345" y="2270" as="targetPoint" />
          </mxGeometry>
        </mxCell>
        <mxCell id="MlXYabZcb-Fr3cg8tZfr-157" value="" style="endArrow=classic;html=1;rounded=0;entryX=0;entryY=0.5;entryDx=0;entryDy=0;" edge="1" parent="WIyWlLk6GJQsqaUBKTNV-1" source="MlXYabZcb-Fr3cg8tZfr-155" target="MlXYabZcb-Fr3cg8tZfr-159">
          <mxGeometry width="50" height="50" relative="1" as="geometry">
            <mxPoint x="2627.5" y="2320" as="sourcePoint" />
            <mxPoint x="2698.210678118655" y="2270" as="targetPoint" />
          </mxGeometry>
        </mxCell>
        <mxCell id="MlXYabZcb-Fr3cg8tZfr-158" value="false" style="rounded=0;whiteSpace=wrap;html=1;" vertex="1" parent="WIyWlLk6GJQsqaUBKTNV-1">
          <mxGeometry x="2300" y="2240" width="120" height="60" as="geometry" />
        </mxCell>
        <mxCell id="MlXYabZcb-Fr3cg8tZfr-159" value="true" style="rounded=0;whiteSpace=wrap;html=1;" vertex="1" parent="WIyWlLk6GJQsqaUBKTNV-1">
          <mxGeometry x="2700" y="2240" width="120" height="60" as="geometry" />
        </mxCell>
        <mxCell id="MlXYabZcb-Fr3cg8tZfr-160" value="" style="endArrow=classic;html=1;rounded=0;" edge="1" parent="WIyWlLk6GJQsqaUBKTNV-1" source="MlXYabZcb-Fr3cg8tZfr-159">
          <mxGeometry width="50" height="50" relative="1" as="geometry">
            <mxPoint x="2760" y="2350" as="sourcePoint" />
            <mxPoint x="2760" y="2380" as="targetPoint" />
          </mxGeometry>
        </mxCell>
        <mxCell id="MlXYabZcb-Fr3cg8tZfr-161" value="" style="endArrow=classic;html=1;rounded=0;entryX=0.25;entryY=0;entryDx=0;entryDy=0;" edge="1" parent="WIyWlLk6GJQsqaUBKTNV-1" source="MlXYabZcb-Fr3cg8tZfr-158" target="MlXYabZcb-Fr3cg8tZfr-162">
          <mxGeometry width="50" height="50" relative="1" as="geometry">
            <mxPoint x="2360" y="2350" as="sourcePoint" />
            <mxPoint x="2360" y="2370.710678118655" as="targetPoint" />
          </mxGeometry>
        </mxCell>
        <mxCell id="MlXYabZcb-Fr3cg8tZfr-408" style="edgeStyle=orthogonalEdgeStyle;rounded=0;orthogonalLoop=1;jettySize=auto;html=1;exitX=0.5;exitY=1;exitDx=0;exitDy=0;entryX=0;entryY=0.5;entryDx=0;entryDy=0;" edge="1" parent="WIyWlLk6GJQsqaUBKTNV-1" source="MlXYabZcb-Fr3cg8tZfr-162" target="MlXYabZcb-Fr3cg8tZfr-403">
          <mxGeometry relative="1" as="geometry">
            <Array as="points">
              <mxPoint x="2420" y="2680" />
            </Array>
          </mxGeometry>
        </mxCell>
        <mxCell id="MlXYabZcb-Fr3cg8tZfr-162" value="Print &quot;You decide to send in operatives to raid the place instead of going yourself. After the raid they detain around 16 people, but none of them admit to killing Bob and there is no hard evidence so they are all released in just a few days. You will have to continue working on this case.&quot;" style="shape=parallelogram;perimeter=parallelogramPerimeter;whiteSpace=wrap;html=1;fixedSize=1;" vertex="1" parent="WIyWlLk6GJQsqaUBKTNV-1">
          <mxGeometry x="2300" y="2375" width="240" height="175" as="geometry" />
        </mxCell>
        <mxCell id="MlXYabZcb-Fr3cg8tZfr-406" style="edgeStyle=orthogonalEdgeStyle;rounded=0;orthogonalLoop=1;jettySize=auto;html=1;exitX=0.5;exitY=1;exitDx=0;exitDy=0;entryX=0;entryY=0.5;entryDx=0;entryDy=0;" edge="1" parent="WIyWlLk6GJQsqaUBKTNV-1" source="MlXYabZcb-Fr3cg8tZfr-163" target="MlXYabZcb-Fr3cg8tZfr-403">
          <mxGeometry relative="1" as="geometry">
            <Array as="points">
              <mxPoint x="2695" y="2670" />
              <mxPoint x="4498" y="2670" />
            </Array>
          </mxGeometry>
        </mxCell>
        <mxCell id="MlXYabZcb-Fr3cg8tZfr-163" value="Print &quot;Upon entering the bar everyone looks at you, you sit down at the bar and ask the bartender &quot;if the job was done&quot; (trying to act like you fit in). The bartender replies &quot;Yes&quot;, but his expression slowly changes from surprised to suspicion, but he still serves you a drink, after just touching the drink with your lips you realize you&#39;ve been poisoned and everything fades to black. You are never heard from again.&quot;" style="shape=parallelogram;perimeter=parallelogramPerimeter;whiteSpace=wrap;html=1;fixedSize=1;" vertex="1" parent="WIyWlLk6GJQsqaUBKTNV-1">
          <mxGeometry x="2570" y="2375" width="250" height="175" as="geometry" />
        </mxCell>
        <mxCell id="MlXYabZcb-Fr3cg8tZfr-164" value="" style="endArrow=classic;html=1;rounded=0;entryX=0.5;entryY=0;entryDx=0;entryDy=0;entryPerimeter=0;" edge="1" parent="WIyWlLk6GJQsqaUBKTNV-1" target="MlXYabZcb-Fr3cg8tZfr-165">
          <mxGeometry width="50" height="50" relative="1" as="geometry">
            <mxPoint x="3120" y="1880" as="sourcePoint" />
            <mxPoint x="3120" y="1950.7106781186549" as="targetPoint" />
            <Array as="points" />
          </mxGeometry>
        </mxCell>
        <mxCell id="MlXYabZcb-Fr3cg8tZfr-165" value="Print &quot;You step out to have some lunch at your local [GENERIC] restaurant. After getting your food someone quickly walks over your table, and slides you a card that has Cicada 3301 printed on it, and StOP inVEsTiGATIng NOW on it. They walk away quickly. Do you try to follow them?" style="shape=parallelogram;perimeter=parallelogramPerimeter;whiteSpace=wrap;html=1;fixedSize=1;" vertex="1" parent="WIyWlLk6GJQsqaUBKTNV-1">
          <mxGeometry x="3010" y="1920" width="220" height="120" as="geometry" />
        </mxCell>
        <mxCell id="MlXYabZcb-Fr3cg8tZfr-166" value="" style="endArrow=classic;html=1;rounded=0;entryX=0.5;entryY=0;entryDx=0;entryDy=0;" edge="1" parent="WIyWlLk6GJQsqaUBKTNV-1" source="MlXYabZcb-Fr3cg8tZfr-165" target="MlXYabZcb-Fr3cg8tZfr-167">
          <mxGeometry width="50" height="50" relative="1" as="geometry">
            <mxPoint x="3120" y="2065" as="sourcePoint" />
            <mxPoint x="3120" y="2085.710678118655" as="targetPoint" />
          </mxGeometry>
        </mxCell>
        <mxCell id="MlXYabZcb-Fr3cg8tZfr-167" value="Read user input to strUserResponse" style="shape=parallelogram;perimeter=parallelogramPerimeter;whiteSpace=wrap;html=1;fixedSize=1;" vertex="1" parent="WIyWlLk6GJQsqaUBKTNV-1">
          <mxGeometry x="3060" y="2085" width="120" height="60" as="geometry" />
        </mxCell>
        <mxCell id="MlXYabZcb-Fr3cg8tZfr-168" value="" style="endArrow=classic;html=1;rounded=0;entryX=0.5;entryY=0;entryDx=0;entryDy=0;" edge="1" parent="WIyWlLk6GJQsqaUBKTNV-1" source="MlXYabZcb-Fr3cg8tZfr-167" target="MlXYabZcb-Fr3cg8tZfr-169">
          <mxGeometry width="50" height="50" relative="1" as="geometry">
            <mxPoint x="3120" y="2195" as="sourcePoint" />
            <mxPoint x="3120" y="2215.710678118655" as="targetPoint" />
          </mxGeometry>
        </mxCell>
        <mxCell id="MlXYabZcb-Fr3cg8tZfr-169" value="if&amp;nbsp;(strUserReponse.&lt;br&gt;equals(STRYES))" style="rhombus;whiteSpace=wrap;html=1;" vertex="1" parent="WIyWlLk6GJQsqaUBKTNV-1">
          <mxGeometry x="3052.5" y="2215" width="135" height="110" as="geometry" />
        </mxCell>
        <mxCell id="MlXYabZcb-Fr3cg8tZfr-170" value="" style="endArrow=classic;html=1;rounded=0;entryX=1;entryY=0.5;entryDx=0;entryDy=0;" edge="1" parent="WIyWlLk6GJQsqaUBKTNV-1" source="MlXYabZcb-Fr3cg8tZfr-169" target="MlXYabZcb-Fr3cg8tZfr-172">
          <mxGeometry width="50" height="50" relative="1" as="geometry">
            <mxPoint x="2981.789321881345" y="2320" as="sourcePoint" />
            <mxPoint x="2981.789321881345" y="2270" as="targetPoint" />
          </mxGeometry>
        </mxCell>
        <mxCell id="MlXYabZcb-Fr3cg8tZfr-171" value="" style="endArrow=classic;html=1;rounded=0;entryX=0;entryY=0.5;entryDx=0;entryDy=0;" edge="1" parent="WIyWlLk6GJQsqaUBKTNV-1" source="MlXYabZcb-Fr3cg8tZfr-169" target="MlXYabZcb-Fr3cg8tZfr-173">
          <mxGeometry width="50" height="50" relative="1" as="geometry">
            <mxPoint x="3187.5" y="2320" as="sourcePoint" />
            <mxPoint x="3258.210678118655" y="2270" as="targetPoint" />
          </mxGeometry>
        </mxCell>
        <mxCell id="MlXYabZcb-Fr3cg8tZfr-172" value="false" style="rounded=0;whiteSpace=wrap;html=1;" vertex="1" parent="WIyWlLk6GJQsqaUBKTNV-1">
          <mxGeometry x="2860" y="2240" width="120" height="60" as="geometry" />
        </mxCell>
        <mxCell id="MlXYabZcb-Fr3cg8tZfr-173" value="true" style="rounded=0;whiteSpace=wrap;html=1;" vertex="1" parent="WIyWlLk6GJQsqaUBKTNV-1">
          <mxGeometry x="3260" y="2240" width="120" height="60" as="geometry" />
        </mxCell>
        <mxCell id="MlXYabZcb-Fr3cg8tZfr-174" value="" style="endArrow=classic;html=1;rounded=0;entryX=0.75;entryY=0;entryDx=0;entryDy=0;" edge="1" parent="WIyWlLk6GJQsqaUBKTNV-1" source="MlXYabZcb-Fr3cg8tZfr-173" target="MlXYabZcb-Fr3cg8tZfr-177">
          <mxGeometry width="50" height="50" relative="1" as="geometry">
            <mxPoint x="3320" y="2350" as="sourcePoint" />
            <mxPoint x="3320" y="2370.710678118655" as="targetPoint" />
          </mxGeometry>
        </mxCell>
        <mxCell id="MlXYabZcb-Fr3cg8tZfr-175" value="" style="endArrow=classic;html=1;rounded=0;entryX=0.301;entryY=0.014;entryDx=0;entryDy=0;entryPerimeter=0;" edge="1" parent="WIyWlLk6GJQsqaUBKTNV-1" source="MlXYabZcb-Fr3cg8tZfr-172" target="MlXYabZcb-Fr3cg8tZfr-176">
          <mxGeometry width="50" height="50" relative="1" as="geometry">
            <mxPoint x="2920" y="2350" as="sourcePoint" />
            <mxPoint x="2920" y="2370.710678118655" as="targetPoint" />
          </mxGeometry>
        </mxCell>
        <mxCell id="MlXYabZcb-Fr3cg8tZfr-404" style="edgeStyle=orthogonalEdgeStyle;rounded=0;orthogonalLoop=1;jettySize=auto;html=1;exitX=0.5;exitY=1;exitDx=0;exitDy=0;entryX=0;entryY=0.5;entryDx=0;entryDy=0;" edge="1" parent="WIyWlLk6GJQsqaUBKTNV-1" source="MlXYabZcb-Fr3cg8tZfr-176" target="MlXYabZcb-Fr3cg8tZfr-403">
          <mxGeometry relative="1" as="geometry">
            <Array as="points">
              <mxPoint x="2960" y="2680" />
            </Array>
          </mxGeometry>
        </mxCell>
        <mxCell id="MlXYabZcb-Fr3cg8tZfr-176" value="Print, you enjoy your lunch, and return with the card in hand. The specialist tells you what was on the card lines up with part of what is printed on the card you received. As you continue to work on the case you see more and more people watching you. But in the end you never solve the case. Closing it until someone else tries to solve it." style="shape=parallelogram;perimeter=parallelogramPerimeter;whiteSpace=wrap;html=1;fixedSize=1;" vertex="1" parent="WIyWlLk6GJQsqaUBKTNV-1">
          <mxGeometry x="2860" y="2375" width="200" height="175" as="geometry" />
        </mxCell>
        <mxCell id="MlXYabZcb-Fr3cg8tZfr-405" style="edgeStyle=orthogonalEdgeStyle;rounded=0;orthogonalLoop=1;jettySize=auto;html=1;exitX=0.5;exitY=1;exitDx=0;exitDy=0;entryX=0;entryY=0.5;entryDx=0;entryDy=0;" edge="1" parent="WIyWlLk6GJQsqaUBKTNV-1" source="MlXYabZcb-Fr3cg8tZfr-177" target="MlXYabZcb-Fr3cg8tZfr-403">
          <mxGeometry relative="1" as="geometry">
            <mxPoint x="3250" y="3010" as="targetPoint" />
            <Array as="points">
              <mxPoint x="3260" y="2680" />
            </Array>
          </mxGeometry>
        </mxCell>
        <mxCell id="MlXYabZcb-Fr3cg8tZfr-177" value="Print &quot;You try to follow the person through winding alleys and twisting streets, they go through the backdoor of a bar. You try to the door that they went through, it&#39;s locked. As soon as it&#39;s rattled half a dozen high bullets wiz through the door, multiple of them hit you. You are later found dead in the forest.&quot;" style="shape=parallelogram;perimeter=parallelogramPerimeter;whiteSpace=wrap;html=1;fixedSize=1;" vertex="1" parent="WIyWlLk6GJQsqaUBKTNV-1">
          <mxGeometry x="3140" y="2375" width="240" height="165" as="geometry" />
        </mxCell>
        <mxCell id="MlXYabZcb-Fr3cg8tZfr-178" value="" style="endArrow=classic;html=1;rounded=0;entryX=0.5;entryY=0;entryDx=0;entryDy=0;" edge="1" parent="WIyWlLk6GJQsqaUBKTNV-1" target="MlXYabZcb-Fr3cg8tZfr-179">
          <mxGeometry width="50" height="50" relative="1" as="geometry">
            <mxPoint x="3940" y="1460" as="sourcePoint" />
            <mxPoint x="3940" y="1530.7106781186549" as="targetPoint" />
          </mxGeometry>
        </mxCell>
        <mxCell id="MlXYabZcb-Fr3cg8tZfr-179" value="Print &quot;This code is so obvious and you easily break it (go ahead). Does it say oozy when decoded?&quot;" style="shape=parallelogram;perimeter=parallelogramPerimeter;whiteSpace=wrap;html=1;fixedSize=1;" vertex="1" parent="WIyWlLk6GJQsqaUBKTNV-1">
          <mxGeometry x="3845" y="1535" width="190" height="60" as="geometry" />
        </mxCell>
        <mxCell id="MlXYabZcb-Fr3cg8tZfr-180" value="" style="endArrow=classic;html=1;rounded=0;entryX=0.5;entryY=0;entryDx=0;entryDy=0;" edge="1" parent="WIyWlLk6GJQsqaUBKTNV-1" source="MlXYabZcb-Fr3cg8tZfr-179" target="MlXYabZcb-Fr3cg8tZfr-181">
          <mxGeometry width="50" height="50" relative="1" as="geometry">
            <mxPoint x="3940" y="1645" as="sourcePoint" />
            <mxPoint x="3940" y="1665.7106781186549" as="targetPoint" />
          </mxGeometry>
        </mxCell>
        <mxCell id="MlXYabZcb-Fr3cg8tZfr-181" value="Read user input to strUserResponse" style="shape=parallelogram;perimeter=parallelogramPerimeter;whiteSpace=wrap;html=1;fixedSize=1;" vertex="1" parent="WIyWlLk6GJQsqaUBKTNV-1">
          <mxGeometry x="3880" y="1665" width="120" height="60" as="geometry" />
        </mxCell>
        <mxCell id="MlXYabZcb-Fr3cg8tZfr-182" value="" style="endArrow=classic;html=1;rounded=0;entryX=0.5;entryY=0;entryDx=0;entryDy=0;" edge="1" parent="WIyWlLk6GJQsqaUBKTNV-1" source="MlXYabZcb-Fr3cg8tZfr-181" target="MlXYabZcb-Fr3cg8tZfr-183">
          <mxGeometry width="50" height="50" relative="1" as="geometry">
            <mxPoint x="3940" y="1775" as="sourcePoint" />
            <mxPoint x="3940" y="1795.7106781186549" as="targetPoint" />
          </mxGeometry>
        </mxCell>
        <mxCell id="MlXYabZcb-Fr3cg8tZfr-183" value="if&amp;nbsp;(strUserReponse.&lt;br&gt;equals(STRYES))" style="rhombus;whiteSpace=wrap;html=1;" vertex="1" parent="WIyWlLk6GJQsqaUBKTNV-1">
          <mxGeometry x="3872.5" y="1795" width="135" height="110" as="geometry" />
        </mxCell>
        <mxCell id="MlXYabZcb-Fr3cg8tZfr-184" value="" style="endArrow=classic;html=1;rounded=0;entryX=1;entryY=0.5;entryDx=0;entryDy=0;exitX=0;exitY=0.5;exitDx=0;exitDy=0;" edge="1" parent="WIyWlLk6GJQsqaUBKTNV-1" source="MlXYabZcb-Fr3cg8tZfr-183" target="MlXYabZcb-Fr3cg8tZfr-186">
          <mxGeometry width="50" height="50" relative="1" as="geometry">
            <mxPoint x="3870" y="1850" as="sourcePoint" />
            <mxPoint x="3721.789321881345" y="1850" as="targetPoint" />
          </mxGeometry>
        </mxCell>
        <mxCell id="MlXYabZcb-Fr3cg8tZfr-185" value="" style="endArrow=classic;html=1;rounded=0;entryX=0;entryY=0.5;entryDx=0;entryDy=0;" edge="1" parent="WIyWlLk6GJQsqaUBKTNV-1" source="MlXYabZcb-Fr3cg8tZfr-183" target="MlXYabZcb-Fr3cg8tZfr-187">
          <mxGeometry width="50" height="50" relative="1" as="geometry">
            <mxPoint x="4007.5" y="1900" as="sourcePoint" />
            <mxPoint x="4078.210678118655" y="1850" as="targetPoint" />
          </mxGeometry>
        </mxCell>
        <mxCell id="MlXYabZcb-Fr3cg8tZfr-186" value="false" style="rounded=0;whiteSpace=wrap;html=1;" vertex="1" parent="WIyWlLk6GJQsqaUBKTNV-1">
          <mxGeometry x="3600" y="1820" width="120" height="60" as="geometry" />
        </mxCell>
        <mxCell id="MlXYabZcb-Fr3cg8tZfr-187" value="true" style="rounded=0;whiteSpace=wrap;html=1;" vertex="1" parent="WIyWlLk6GJQsqaUBKTNV-1">
          <mxGeometry x="4160" y="1820" width="120" height="60" as="geometry" />
        </mxCell>
        <mxCell id="MlXYabZcb-Fr3cg8tZfr-188" value="" style="endArrow=classic;html=1;rounded=0;entryX=0.5;entryY=0;entryDx=0;entryDy=0;entryPerimeter=0;" edge="1" parent="WIyWlLk6GJQsqaUBKTNV-1" source="MlXYabZcb-Fr3cg8tZfr-186" target="MlXYabZcb-Fr3cg8tZfr-189">
          <mxGeometry width="50" height="50" relative="1" as="geometry">
            <mxPoint x="3660" y="1930" as="sourcePoint" />
            <mxPoint x="3660" y="1950.7106781186549" as="targetPoint" />
          </mxGeometry>
        </mxCell>
        <mxCell id="MlXYabZcb-Fr3cg8tZfr-189" value="Print &quot;Ahah, you know that it says 3301. That&#39;s part of the name of a organization (Cicada 3301). After looking through your files the meeting spot of Cicada 3301 in &quot;The Whiskey Bar&quot; Would you like to go to try and find them?&lt;br&gt;&quot;" style="shape=parallelogram;perimeter=parallelogramPerimeter;whiteSpace=wrap;html=1;fixedSize=1;" vertex="1" parent="WIyWlLk6GJQsqaUBKTNV-1">
          <mxGeometry x="3565" y="1920" width="190" height="120" as="geometry" />
        </mxCell>
        <mxCell id="MlXYabZcb-Fr3cg8tZfr-190" value="" style="endArrow=classic;html=1;rounded=0;entryX=0.5;entryY=0;entryDx=0;entryDy=0;" edge="1" parent="WIyWlLk6GJQsqaUBKTNV-1" source="MlXYabZcb-Fr3cg8tZfr-189" target="MlXYabZcb-Fr3cg8tZfr-191">
          <mxGeometry width="50" height="50" relative="1" as="geometry">
            <mxPoint x="3660" y="2065" as="sourcePoint" />
            <mxPoint x="3660" y="2085.710678118655" as="targetPoint" />
          </mxGeometry>
        </mxCell>
        <mxCell id="MlXYabZcb-Fr3cg8tZfr-191" value="Read user input to strUserResponse" style="shape=parallelogram;perimeter=parallelogramPerimeter;whiteSpace=wrap;html=1;fixedSize=1;" vertex="1" parent="WIyWlLk6GJQsqaUBKTNV-1">
          <mxGeometry x="3600" y="2085" width="120" height="60" as="geometry" />
        </mxCell>
        <mxCell id="MlXYabZcb-Fr3cg8tZfr-192" value="" style="endArrow=classic;html=1;rounded=0;entryX=0.5;entryY=0;entryDx=0;entryDy=0;" edge="1" parent="WIyWlLk6GJQsqaUBKTNV-1" source="MlXYabZcb-Fr3cg8tZfr-191" target="MlXYabZcb-Fr3cg8tZfr-193">
          <mxGeometry width="50" height="50" relative="1" as="geometry">
            <mxPoint x="3660" y="2195" as="sourcePoint" />
            <mxPoint x="3660" y="2215.710678118655" as="targetPoint" />
          </mxGeometry>
        </mxCell>
        <mxCell id="MlXYabZcb-Fr3cg8tZfr-193" value="if&amp;nbsp;(strUserReponse.&lt;br&gt;equals(STRYES))" style="rhombus;whiteSpace=wrap;html=1;" vertex="1" parent="WIyWlLk6GJQsqaUBKTNV-1">
          <mxGeometry x="3592.5" y="2215" width="135" height="110" as="geometry" />
        </mxCell>
        <mxCell id="MlXYabZcb-Fr3cg8tZfr-194" value="" style="endArrow=classic;html=1;rounded=0;entryX=1;entryY=0.5;entryDx=0;entryDy=0;" edge="1" parent="WIyWlLk6GJQsqaUBKTNV-1" source="MlXYabZcb-Fr3cg8tZfr-193" target="MlXYabZcb-Fr3cg8tZfr-196">
          <mxGeometry width="50" height="50" relative="1" as="geometry">
            <mxPoint x="3521.789321881345" y="2320" as="sourcePoint" />
            <mxPoint x="3521.789321881345" y="2270" as="targetPoint" />
          </mxGeometry>
        </mxCell>
        <mxCell id="MlXYabZcb-Fr3cg8tZfr-195" value="" style="endArrow=classic;html=1;rounded=0;entryX=0;entryY=0.5;entryDx=0;entryDy=0;" edge="1" parent="WIyWlLk6GJQsqaUBKTNV-1" source="MlXYabZcb-Fr3cg8tZfr-193" target="MlXYabZcb-Fr3cg8tZfr-197">
          <mxGeometry width="50" height="50" relative="1" as="geometry">
            <mxPoint x="3727.5" y="2320" as="sourcePoint" />
            <mxPoint x="3798.210678118655" y="2270" as="targetPoint" />
          </mxGeometry>
        </mxCell>
        <mxCell id="MlXYabZcb-Fr3cg8tZfr-196" value="false" style="rounded=0;whiteSpace=wrap;html=1;" vertex="1" parent="WIyWlLk6GJQsqaUBKTNV-1">
          <mxGeometry x="3400" y="2240" width="120" height="60" as="geometry" />
        </mxCell>
        <mxCell id="MlXYabZcb-Fr3cg8tZfr-197" value="true" style="rounded=0;whiteSpace=wrap;html=1;" vertex="1" parent="WIyWlLk6GJQsqaUBKTNV-1">
          <mxGeometry x="3800" y="2240" width="120" height="60" as="geometry" />
        </mxCell>
        <mxCell id="MlXYabZcb-Fr3cg8tZfr-198" value="" style="endArrow=classic;html=1;rounded=0;" edge="1" parent="WIyWlLk6GJQsqaUBKTNV-1" source="MlXYabZcb-Fr3cg8tZfr-197">
          <mxGeometry width="50" height="50" relative="1" as="geometry">
            <mxPoint x="3860" y="2350" as="sourcePoint" />
            <mxPoint x="3860" y="2380" as="targetPoint" />
          </mxGeometry>
        </mxCell>
        <mxCell id="MlXYabZcb-Fr3cg8tZfr-199" value="" style="endArrow=classic;html=1;rounded=0;entryX=0.326;entryY=-0.009;entryDx=0;entryDy=0;entryPerimeter=0;" edge="1" parent="WIyWlLk6GJQsqaUBKTNV-1" source="MlXYabZcb-Fr3cg8tZfr-196" target="MlXYabZcb-Fr3cg8tZfr-200">
          <mxGeometry width="50" height="50" relative="1" as="geometry">
            <mxPoint x="3460" y="2350" as="sourcePoint" />
            <mxPoint x="3460" y="2370.710678118655" as="targetPoint" />
          </mxGeometry>
        </mxCell>
        <mxCell id="MlXYabZcb-Fr3cg8tZfr-407" style="edgeStyle=orthogonalEdgeStyle;rounded=0;orthogonalLoop=1;jettySize=auto;html=1;exitX=0.5;exitY=1;exitDx=0;exitDy=0;entryX=0;entryY=0.5;entryDx=0;entryDy=0;" edge="1" parent="WIyWlLk6GJQsqaUBKTNV-1" source="MlXYabZcb-Fr3cg8tZfr-200" target="MlXYabZcb-Fr3cg8tZfr-403">
          <mxGeometry relative="1" as="geometry">
            <Array as="points">
              <mxPoint x="3495" y="2680" />
            </Array>
          </mxGeometry>
        </mxCell>
        <mxCell id="MlXYabZcb-Fr3cg8tZfr-200" value="Print &quot;You decide to send in operatives to raid the place instead of going yourself. After the raid they detain around 8 people, but none of them admit to killing Bob and there is no hard evidence so they are all released in just a few days. You will have to continue working on this case.&quot;" style="shape=parallelogram;perimeter=parallelogramPerimeter;whiteSpace=wrap;html=1;fixedSize=1;" vertex="1" parent="WIyWlLk6GJQsqaUBKTNV-1">
          <mxGeometry x="3400" y="2375" width="190" height="155" as="geometry" />
        </mxCell>
        <mxCell id="MlXYabZcb-Fr3cg8tZfr-417" style="edgeStyle=orthogonalEdgeStyle;rounded=0;orthogonalLoop=1;jettySize=auto;html=1;exitX=0.5;exitY=1;exitDx=0;exitDy=0;entryX=0;entryY=0.5;entryDx=0;entryDy=0;" edge="1" parent="WIyWlLk6GJQsqaUBKTNV-1" source="MlXYabZcb-Fr3cg8tZfr-201" target="MlXYabZcb-Fr3cg8tZfr-403">
          <mxGeometry relative="1" as="geometry">
            <Array as="points">
              <mxPoint x="3800" y="2680" />
            </Array>
          </mxGeometry>
        </mxCell>
        <mxCell id="MlXYabZcb-Fr3cg8tZfr-201" value="Print &quot;Upon entering the bar everyone looks at you, you sit down at the bar and ask the bartender &quot;if the job was done&quot; (trying to act like you fit in). The bartender replies &quot;Yes&quot;, but his expression slowly changes from surprised to suspicion, but he still serves you a drink, after just touching the drink with your lips you realize you&#39;ve been poisoned and everything fades to black. You are never heard from again.&quot;" style="shape=parallelogram;perimeter=parallelogramPerimeter;whiteSpace=wrap;html=1;fixedSize=1;" vertex="1" parent="WIyWlLk6GJQsqaUBKTNV-1">
          <mxGeometry x="3680" y="2375" width="240" height="195" as="geometry" />
        </mxCell>
        <mxCell id="MlXYabZcb-Fr3cg8tZfr-202" value="" style="endArrow=classic;html=1;rounded=0;entryX=0.5;entryY=0;entryDx=0;entryDy=0;entryPerimeter=0;" edge="1" parent="WIyWlLk6GJQsqaUBKTNV-1" target="MlXYabZcb-Fr3cg8tZfr-203">
          <mxGeometry width="50" height="50" relative="1" as="geometry">
            <mxPoint x="4220" y="1880" as="sourcePoint" />
            <mxPoint x="4220" y="1950.7106781186549" as="targetPoint" />
            <Array as="points" />
          </mxGeometry>
        </mxCell>
        <mxCell id="MlXYabZcb-Fr3cg8tZfr-203" value="Print &quot;It&#39;s definitely oozy, you search the files but come up with nothing but a slime company. Would a slime company have something to do with this murder? Do you do investigate the slime company?&quot;&amp;nbsp;" style="shape=parallelogram;perimeter=parallelogramPerimeter;whiteSpace=wrap;html=1;fixedSize=1;" vertex="1" parent="WIyWlLk6GJQsqaUBKTNV-1">
          <mxGeometry x="4125" y="1930" width="190" height="110" as="geometry" />
        </mxCell>
        <mxCell id="MlXYabZcb-Fr3cg8tZfr-204" value="" style="endArrow=classic;html=1;rounded=0;entryX=0.5;entryY=0;entryDx=0;entryDy=0;" edge="1" parent="WIyWlLk6GJQsqaUBKTNV-1" source="MlXYabZcb-Fr3cg8tZfr-203" target="MlXYabZcb-Fr3cg8tZfr-205">
          <mxGeometry width="50" height="50" relative="1" as="geometry">
            <mxPoint x="4220" y="2065" as="sourcePoint" />
            <mxPoint x="4220" y="2085.710678118655" as="targetPoint" />
          </mxGeometry>
        </mxCell>
        <mxCell id="MlXYabZcb-Fr3cg8tZfr-205" value="Read user input to strUserResponse" style="shape=parallelogram;perimeter=parallelogramPerimeter;whiteSpace=wrap;html=1;fixedSize=1;" vertex="1" parent="WIyWlLk6GJQsqaUBKTNV-1">
          <mxGeometry x="4160" y="2085" width="120" height="60" as="geometry" />
        </mxCell>
        <mxCell id="MlXYabZcb-Fr3cg8tZfr-206" value="" style="endArrow=classic;html=1;rounded=0;entryX=0.5;entryY=0;entryDx=0;entryDy=0;" edge="1" parent="WIyWlLk6GJQsqaUBKTNV-1" source="MlXYabZcb-Fr3cg8tZfr-205" target="MlXYabZcb-Fr3cg8tZfr-207">
          <mxGeometry width="50" height="50" relative="1" as="geometry">
            <mxPoint x="4220" y="2195" as="sourcePoint" />
            <mxPoint x="4220" y="2215.710678118655" as="targetPoint" />
          </mxGeometry>
        </mxCell>
        <mxCell id="MlXYabZcb-Fr3cg8tZfr-207" value="if&amp;nbsp;(strUserReponse.&lt;br&gt;equals(STRYES))" style="rhombus;whiteSpace=wrap;html=1;" vertex="1" parent="WIyWlLk6GJQsqaUBKTNV-1">
          <mxGeometry x="4152.5" y="2215" width="135" height="110" as="geometry" />
        </mxCell>
        <mxCell id="MlXYabZcb-Fr3cg8tZfr-208" value="" style="endArrow=classic;html=1;rounded=0;entryX=1;entryY=0.5;entryDx=0;entryDy=0;" edge="1" parent="WIyWlLk6GJQsqaUBKTNV-1" source="MlXYabZcb-Fr3cg8tZfr-207" target="MlXYabZcb-Fr3cg8tZfr-210">
          <mxGeometry width="50" height="50" relative="1" as="geometry">
            <mxPoint x="4081.789321881345" y="2320" as="sourcePoint" />
            <mxPoint x="4081.789321881345" y="2270" as="targetPoint" />
          </mxGeometry>
        </mxCell>
        <mxCell id="MlXYabZcb-Fr3cg8tZfr-209" value="" style="endArrow=classic;html=1;rounded=0;entryX=0;entryY=0.5;entryDx=0;entryDy=0;" edge="1" parent="WIyWlLk6GJQsqaUBKTNV-1" source="MlXYabZcb-Fr3cg8tZfr-207" target="MlXYabZcb-Fr3cg8tZfr-211">
          <mxGeometry width="50" height="50" relative="1" as="geometry">
            <mxPoint x="4287.5" y="2320" as="sourcePoint" />
            <mxPoint x="4358.210678118655" y="2270" as="targetPoint" />
          </mxGeometry>
        </mxCell>
        <mxCell id="MlXYabZcb-Fr3cg8tZfr-210" value="false" style="rounded=0;whiteSpace=wrap;html=1;" vertex="1" parent="WIyWlLk6GJQsqaUBKTNV-1">
          <mxGeometry x="3960" y="2240" width="120" height="60" as="geometry" />
        </mxCell>
        <mxCell id="MlXYabZcb-Fr3cg8tZfr-211" value="true" style="rounded=0;whiteSpace=wrap;html=1;" vertex="1" parent="WIyWlLk6GJQsqaUBKTNV-1">
          <mxGeometry x="4360" y="2240" width="120" height="60" as="geometry" />
        </mxCell>
        <mxCell id="MlXYabZcb-Fr3cg8tZfr-212" value="" style="endArrow=classic;html=1;rounded=0;entryX=0.5;entryY=0;entryDx=0;entryDy=0;" edge="1" parent="WIyWlLk6GJQsqaUBKTNV-1" source="MlXYabZcb-Fr3cg8tZfr-211" target="MlXYabZcb-Fr3cg8tZfr-215">
          <mxGeometry width="50" height="50" relative="1" as="geometry">
            <mxPoint x="4420" y="2350" as="sourcePoint" />
            <mxPoint x="4420" y="2370.710678118655" as="targetPoint" />
          </mxGeometry>
        </mxCell>
        <mxCell id="MlXYabZcb-Fr3cg8tZfr-213" value="" style="endArrow=classic;html=1;rounded=0;entryX=0.333;entryY=0.016;entryDx=0;entryDy=0;entryPerimeter=0;" edge="1" parent="WIyWlLk6GJQsqaUBKTNV-1" source="MlXYabZcb-Fr3cg8tZfr-210" target="MlXYabZcb-Fr3cg8tZfr-214">
          <mxGeometry width="50" height="50" relative="1" as="geometry">
            <mxPoint x="4020" y="2350" as="sourcePoint" />
            <mxPoint x="4020" y="2370.710678118655" as="targetPoint" />
          </mxGeometry>
        </mxCell>
        <mxCell id="MlXYabZcb-Fr3cg8tZfr-418" style="edgeStyle=orthogonalEdgeStyle;rounded=0;orthogonalLoop=1;jettySize=auto;html=1;exitX=0.5;exitY=1;exitDx=0;exitDy=0;entryX=0;entryY=0.5;entryDx=0;entryDy=0;" edge="1" parent="WIyWlLk6GJQsqaUBKTNV-1" source="MlXYabZcb-Fr3cg8tZfr-214" target="MlXYabZcb-Fr3cg8tZfr-403">
          <mxGeometry relative="1" as="geometry">
            <Array as="points">
              <mxPoint x="4050" y="2680" />
            </Array>
          </mxGeometry>
        </mxCell>
        <mxCell id="MlXYabZcb-Fr3cg8tZfr-214" value="Print &quot;You don&#39;t think that the slime company has anything to do with the murder. You send the message to be analyzed but no one ever gets back to you. Without the information you can&#39;t continue the case and it closes.&quot;" style="shape=parallelogram;perimeter=parallelogramPerimeter;whiteSpace=wrap;html=1;fixedSize=1;" vertex="1" parent="WIyWlLk6GJQsqaUBKTNV-1">
          <mxGeometry x="3960" y="2375" width="180" height="145" as="geometry" />
        </mxCell>
        <mxCell id="MlXYabZcb-Fr3cg8tZfr-419" style="edgeStyle=orthogonalEdgeStyle;rounded=0;orthogonalLoop=1;jettySize=auto;html=1;exitX=0.5;exitY=1;exitDx=0;exitDy=0;entryX=0;entryY=0.5;entryDx=0;entryDy=0;" edge="1" parent="WIyWlLk6GJQsqaUBKTNV-1" source="MlXYabZcb-Fr3cg8tZfr-215" target="MlXYabZcb-Fr3cg8tZfr-403">
          <mxGeometry relative="1" as="geometry">
            <Array as="points">
              <mxPoint x="4420" y="2680" />
            </Array>
          </mxGeometry>
        </mxCell>
        <mxCell id="MlXYabZcb-Fr3cg8tZfr-215" value="Print &quot;You find nothing but some really oozy slime, the case is closed due to you wasting the whole budget buying slime&quot;" style="shape=parallelogram;perimeter=parallelogramPerimeter;whiteSpace=wrap;html=1;fixedSize=1;" vertex="1" parent="WIyWlLk6GJQsqaUBKTNV-1">
          <mxGeometry x="4350" y="2375" width="140" height="95" as="geometry" />
        </mxCell>
        <mxCell id="MlXYabZcb-Fr3cg8tZfr-217" value="" style="endArrow=classic;html=1;rounded=0;entryX=0.5;entryY=0;entryDx=0;entryDy=0;" edge="1" parent="WIyWlLk6GJQsqaUBKTNV-1" target="MlXYabZcb-Fr3cg8tZfr-218">
          <mxGeometry width="50" height="50" relative="1" as="geometry">
            <mxPoint x="6870" y="625" as="sourcePoint" />
            <mxPoint x="6870" y="695.7106781186548" as="targetPoint" />
          </mxGeometry>
        </mxCell>
        <mxCell id="MlXYabZcb-Fr3cg8tZfr-218" value="Print &quot;You ask John a few questions about the day Bob was murder. He tells you a few bits of information. First he works in a mostly abandoned warehouse, and Bob was last seen close to that warehouse. Second, he didn&#39;t hear any noises expect the noise made by himself. Third, he may have seen a door open and close but he was very far away from the door (enough to not hear it). Lastly his boss is shady, and he saw people just standing around the warehouse sometimes starting a few weeks back. Do you go to the warehouse? (If not you interrogate John.)&quot;&amp;nbsp;" style="shape=parallelogram;perimeter=parallelogramPerimeter;whiteSpace=wrap;html=1;fixedSize=1;" vertex="1" parent="WIyWlLk6GJQsqaUBKTNV-1">
          <mxGeometry x="6670" y="670" width="400" height="120" as="geometry" />
        </mxCell>
        <mxCell id="MlXYabZcb-Fr3cg8tZfr-219" value="" style="endArrow=classic;html=1;rounded=0;entryX=0.5;entryY=0;entryDx=0;entryDy=0;" edge="1" parent="WIyWlLk6GJQsqaUBKTNV-1" source="MlXYabZcb-Fr3cg8tZfr-218" target="MlXYabZcb-Fr3cg8tZfr-220">
          <mxGeometry width="50" height="50" relative="1" as="geometry">
            <mxPoint x="6870" y="810" as="sourcePoint" />
            <mxPoint x="6870" y="830.7106781186548" as="targetPoint" />
          </mxGeometry>
        </mxCell>
        <mxCell id="MlXYabZcb-Fr3cg8tZfr-220" value="Read user input to strUserResponse" style="shape=parallelogram;perimeter=parallelogramPerimeter;whiteSpace=wrap;html=1;fixedSize=1;" vertex="1" parent="WIyWlLk6GJQsqaUBKTNV-1">
          <mxGeometry x="6810" y="830" width="120" height="60" as="geometry" />
        </mxCell>
        <mxCell id="MlXYabZcb-Fr3cg8tZfr-221" value="" style="endArrow=classic;html=1;rounded=0;entryX=0.5;entryY=0;entryDx=0;entryDy=0;" edge="1" parent="WIyWlLk6GJQsqaUBKTNV-1" source="MlXYabZcb-Fr3cg8tZfr-220" target="MlXYabZcb-Fr3cg8tZfr-222">
          <mxGeometry width="50" height="50" relative="1" as="geometry">
            <mxPoint x="6870" y="940" as="sourcePoint" />
            <mxPoint x="6870" y="960.7106781186548" as="targetPoint" />
          </mxGeometry>
        </mxCell>
        <mxCell id="MlXYabZcb-Fr3cg8tZfr-222" value="if&amp;nbsp;(strUserReponse.&lt;br&gt;equals(STRYES))" style="rhombus;whiteSpace=wrap;html=1;" vertex="1" parent="WIyWlLk6GJQsqaUBKTNV-1">
          <mxGeometry x="6802.5" y="960" width="135" height="110" as="geometry" />
        </mxCell>
        <mxCell id="MlXYabZcb-Fr3cg8tZfr-223" value="" style="endArrow=classic;html=1;rounded=0;entryX=1;entryY=0.5;entryDx=0;entryDy=0;" edge="1" parent="WIyWlLk6GJQsqaUBKTNV-1" source="MlXYabZcb-Fr3cg8tZfr-222" target="MlXYabZcb-Fr3cg8tZfr-225">
          <mxGeometry width="50" height="50" relative="1" as="geometry">
            <mxPoint x="6731.789321881345" y="1065" as="sourcePoint" />
            <mxPoint x="6730" y="1015" as="targetPoint" />
          </mxGeometry>
        </mxCell>
        <mxCell id="MlXYabZcb-Fr3cg8tZfr-224" value="" style="endArrow=classic;html=1;rounded=0;entryX=0;entryY=0.5;entryDx=0;entryDy=0;" edge="1" parent="WIyWlLk6GJQsqaUBKTNV-1" source="MlXYabZcb-Fr3cg8tZfr-222" target="MlXYabZcb-Fr3cg8tZfr-226">
          <mxGeometry width="50" height="50" relative="1" as="geometry">
            <mxPoint x="6937.5" y="1065" as="sourcePoint" />
            <mxPoint x="7008.210678118655" y="1015" as="targetPoint" />
          </mxGeometry>
        </mxCell>
        <mxCell id="MlXYabZcb-Fr3cg8tZfr-225" value="false" style="rounded=0;whiteSpace=wrap;html=1;" vertex="1" parent="WIyWlLk6GJQsqaUBKTNV-1">
          <mxGeometry x="5660" y="985" width="120" height="60" as="geometry" />
        </mxCell>
        <mxCell id="MlXYabZcb-Fr3cg8tZfr-226" value="true" style="rounded=0;whiteSpace=wrap;html=1;" vertex="1" parent="WIyWlLk6GJQsqaUBKTNV-1">
          <mxGeometry x="7960" y="980" width="120" height="60" as="geometry" />
        </mxCell>
        <mxCell id="MlXYabZcb-Fr3cg8tZfr-227" value="" style="endArrow=classic;html=1;rounded=0;entryX=0.5;entryY=0;entryDx=0;entryDy=0;" edge="1" parent="WIyWlLk6GJQsqaUBKTNV-1" source="MlXYabZcb-Fr3cg8tZfr-225" target="MlXYabZcb-Fr3cg8tZfr-228">
          <mxGeometry width="50" height="50" relative="1" as="geometry">
            <mxPoint x="5720" y="1095" as="sourcePoint" />
            <mxPoint x="5720" y="1115.7106781186549" as="targetPoint" />
          </mxGeometry>
        </mxCell>
        <mxCell id="MlXYabZcb-Fr3cg8tZfr-228" value="Print &quot;You decide to not go to the warehouse and instead decide to interrogate John (using totally ethical techniques), he finally lets it slip that he&#39;s not totally not involved in the murder, of Bob. He admits to be the lookout. Do you offer him a sum of money to convivence him to help you try and capture the killer&#39;s? (If not you&#39;ll hand him over to the police.)&quot;" style="shape=parallelogram;perimeter=parallelogramPerimeter;whiteSpace=wrap;html=1;fixedSize=1;" vertex="1" parent="WIyWlLk6GJQsqaUBKTNV-1">
          <mxGeometry x="5530" y="1090" width="380" height="110" as="geometry" />
        </mxCell>
        <mxCell id="MlXYabZcb-Fr3cg8tZfr-229" value="" style="endArrow=classic;html=1;rounded=0;entryX=0.5;entryY=0;entryDx=0;entryDy=0;" edge="1" parent="WIyWlLk6GJQsqaUBKTNV-1" source="MlXYabZcb-Fr3cg8tZfr-228" target="MlXYabZcb-Fr3cg8tZfr-230">
          <mxGeometry width="50" height="50" relative="1" as="geometry">
            <mxPoint x="5720" y="1230" as="sourcePoint" />
            <mxPoint x="5720" y="1250.7106781186549" as="targetPoint" />
          </mxGeometry>
        </mxCell>
        <mxCell id="MlXYabZcb-Fr3cg8tZfr-230" value="Read user input to strUserResponse" style="shape=parallelogram;perimeter=parallelogramPerimeter;whiteSpace=wrap;html=1;fixedSize=1;" vertex="1" parent="WIyWlLk6GJQsqaUBKTNV-1">
          <mxGeometry x="5660" y="1250" width="120" height="60" as="geometry" />
        </mxCell>
        <mxCell id="MlXYabZcb-Fr3cg8tZfr-231" value="" style="endArrow=classic;html=1;rounded=0;entryX=0.5;entryY=0;entryDx=0;entryDy=0;" edge="1" parent="WIyWlLk6GJQsqaUBKTNV-1" source="MlXYabZcb-Fr3cg8tZfr-230" target="MlXYabZcb-Fr3cg8tZfr-232">
          <mxGeometry width="50" height="50" relative="1" as="geometry">
            <mxPoint x="5720" y="1360" as="sourcePoint" />
            <mxPoint x="5720" y="1380.7106781186549" as="targetPoint" />
          </mxGeometry>
        </mxCell>
        <mxCell id="MlXYabZcb-Fr3cg8tZfr-232" value="if&amp;nbsp;(strUserReponse.&lt;br&gt;equals(STRYES))" style="rhombus;whiteSpace=wrap;html=1;" vertex="1" parent="WIyWlLk6GJQsqaUBKTNV-1">
          <mxGeometry x="5652.5" y="1380" width="135" height="110" as="geometry" />
        </mxCell>
        <mxCell id="MlXYabZcb-Fr3cg8tZfr-233" value="" style="endArrow=classic;html=1;rounded=0;entryX=1;entryY=0.5;entryDx=0;entryDy=0;exitX=0;exitY=0.5;exitDx=0;exitDy=0;" edge="1" parent="WIyWlLk6GJQsqaUBKTNV-1" source="MlXYabZcb-Fr3cg8tZfr-232" target="MlXYabZcb-Fr3cg8tZfr-235">
          <mxGeometry width="50" height="50" relative="1" as="geometry">
            <mxPoint x="5302.5" y="1435" as="sourcePoint" />
            <mxPoint x="5231.789321881345" y="1435" as="targetPoint" />
          </mxGeometry>
        </mxCell>
        <mxCell id="MlXYabZcb-Fr3cg8tZfr-234" value="" style="endArrow=classic;html=1;rounded=0;entryX=0;entryY=0.5;entryDx=0;entryDy=0;exitX=1;exitY=0.5;exitDx=0;exitDy=0;" edge="1" parent="WIyWlLk6GJQsqaUBKTNV-1" source="MlXYabZcb-Fr3cg8tZfr-232" target="MlXYabZcb-Fr3cg8tZfr-236">
          <mxGeometry width="50" height="50" relative="1" as="geometry">
            <mxPoint x="5790" y="1440" as="sourcePoint" />
            <mxPoint x="5858.210678118655" y="1455" as="targetPoint" />
          </mxGeometry>
        </mxCell>
        <mxCell id="MlXYabZcb-Fr3cg8tZfr-235" value="false" style="rounded=0;whiteSpace=wrap;html=1;" vertex="1" parent="WIyWlLk6GJQsqaUBKTNV-1">
          <mxGeometry x="5110" y="1405" width="120" height="60" as="geometry" />
        </mxCell>
        <mxCell id="MlXYabZcb-Fr3cg8tZfr-236" value="true" style="rounded=0;whiteSpace=wrap;html=1;" vertex="1" parent="WIyWlLk6GJQsqaUBKTNV-1">
          <mxGeometry x="6210" y="1405" width="120" height="60" as="geometry" />
        </mxCell>
        <mxCell id="MlXYabZcb-Fr3cg8tZfr-237" value="" style="endArrow=classic;html=1;rounded=0;entryX=0.5;entryY=0;entryDx=0;entryDy=0;" edge="1" parent="WIyWlLk6GJQsqaUBKTNV-1" source="MlXYabZcb-Fr3cg8tZfr-235" target="MlXYabZcb-Fr3cg8tZfr-238">
          <mxGeometry width="50" height="50" relative="1" as="geometry">
            <mxPoint x="5170" y="1515" as="sourcePoint" />
            <mxPoint x="5170" y="1535.7106781186549" as="targetPoint" />
          </mxGeometry>
        </mxCell>
        <mxCell id="MlXYabZcb-Fr3cg8tZfr-238" value="Print &quot;You decide not to give money or bribe an accomplice of a criminal. Instead he&#39;s taken to jail for multiple years, and you continue your search.&amp;nbsp; Do you want to go to the crime scene? (If not you&#39;ll go ask other detectives for help)&quot;" style="shape=parallelogram;perimeter=parallelogramPerimeter;whiteSpace=wrap;html=1;fixedSize=1;" vertex="1" parent="WIyWlLk6GJQsqaUBKTNV-1">
          <mxGeometry x="5060" y="1500" width="220" height="130" as="geometry" />
        </mxCell>
        <mxCell id="MlXYabZcb-Fr3cg8tZfr-239" value="" style="endArrow=classic;html=1;rounded=0;entryX=0.5;entryY=0;entryDx=0;entryDy=0;" edge="1" parent="WIyWlLk6GJQsqaUBKTNV-1" source="MlXYabZcb-Fr3cg8tZfr-238" target="MlXYabZcb-Fr3cg8tZfr-240">
          <mxGeometry width="50" height="50" relative="1" as="geometry">
            <mxPoint x="5170" y="1650" as="sourcePoint" />
            <mxPoint x="5170" y="1670.7106781186549" as="targetPoint" />
          </mxGeometry>
        </mxCell>
        <mxCell id="MlXYabZcb-Fr3cg8tZfr-240" value="Read user input to strUserResponse" style="shape=parallelogram;perimeter=parallelogramPerimeter;whiteSpace=wrap;html=1;fixedSize=1;" vertex="1" parent="WIyWlLk6GJQsqaUBKTNV-1">
          <mxGeometry x="5110" y="1670" width="120" height="60" as="geometry" />
        </mxCell>
        <mxCell id="MlXYabZcb-Fr3cg8tZfr-241" value="" style="endArrow=classic;html=1;rounded=0;entryX=0.5;entryY=0;entryDx=0;entryDy=0;" edge="1" parent="WIyWlLk6GJQsqaUBKTNV-1" source="MlXYabZcb-Fr3cg8tZfr-240" target="MlXYabZcb-Fr3cg8tZfr-242">
          <mxGeometry width="50" height="50" relative="1" as="geometry">
            <mxPoint x="5170" y="1780" as="sourcePoint" />
            <mxPoint x="5170" y="1800.7106781186549" as="targetPoint" />
          </mxGeometry>
        </mxCell>
        <mxCell id="MlXYabZcb-Fr3cg8tZfr-242" value="if&amp;nbsp;(strUserReponse.&lt;br&gt;equals(STRYES))" style="rhombus;whiteSpace=wrap;html=1;" vertex="1" parent="WIyWlLk6GJQsqaUBKTNV-1">
          <mxGeometry x="5102.5" y="1800" width="135" height="110" as="geometry" />
        </mxCell>
        <mxCell id="MlXYabZcb-Fr3cg8tZfr-243" value="" style="endArrow=classic;html=1;rounded=0;entryX=1;entryY=0.5;entryDx=0;entryDy=0;exitX=0;exitY=0.5;exitDx=0;exitDy=0;" edge="1" parent="WIyWlLk6GJQsqaUBKTNV-1" source="MlXYabZcb-Fr3cg8tZfr-242" target="MlXYabZcb-Fr3cg8tZfr-245">
          <mxGeometry width="50" height="50" relative="1" as="geometry">
            <mxPoint x="5100" y="1855" as="sourcePoint" />
            <mxPoint x="4951.789321881345" y="1855" as="targetPoint" />
          </mxGeometry>
        </mxCell>
        <mxCell id="MlXYabZcb-Fr3cg8tZfr-244" value="" style="endArrow=classic;html=1;rounded=0;entryX=0;entryY=0.5;entryDx=0;entryDy=0;" edge="1" parent="WIyWlLk6GJQsqaUBKTNV-1" source="MlXYabZcb-Fr3cg8tZfr-242" target="MlXYabZcb-Fr3cg8tZfr-246">
          <mxGeometry width="50" height="50" relative="1" as="geometry">
            <mxPoint x="5237.5" y="1905" as="sourcePoint" />
            <mxPoint x="5308.210678118655" y="1855" as="targetPoint" />
          </mxGeometry>
        </mxCell>
        <mxCell id="MlXYabZcb-Fr3cg8tZfr-245" value="false" style="rounded=0;whiteSpace=wrap;html=1;" vertex="1" parent="WIyWlLk6GJQsqaUBKTNV-1">
          <mxGeometry x="4830" y="1825" width="120" height="60" as="geometry" />
        </mxCell>
        <mxCell id="MlXYabZcb-Fr3cg8tZfr-246" value="true" style="rounded=0;whiteSpace=wrap;html=1;" vertex="1" parent="WIyWlLk6GJQsqaUBKTNV-1">
          <mxGeometry x="5390" y="1825" width="120" height="60" as="geometry" />
        </mxCell>
        <mxCell id="MlXYabZcb-Fr3cg8tZfr-247" value="" style="endArrow=classic;html=1;rounded=0;entryX=0.5;entryY=0;entryDx=0;entryDy=0;entryPerimeter=0;" edge="1" parent="WIyWlLk6GJQsqaUBKTNV-1" source="MlXYabZcb-Fr3cg8tZfr-245" target="MlXYabZcb-Fr3cg8tZfr-248">
          <mxGeometry width="50" height="50" relative="1" as="geometry">
            <mxPoint x="4890" y="1935" as="sourcePoint" />
            <mxPoint x="4890" y="1955.7106781186549" as="targetPoint" />
          </mxGeometry>
        </mxCell>
        <mxCell id="MlXYabZcb-Fr3cg8tZfr-248" value="Print &quot;You ask you&#39;re colleagues&amp;nbsp;for help on this case, and then spend a long time just thinking it. After a while they remember that there warehouse is run by someone named Mat, and they are known for being shady, the police have always been looking for a reason to arrest him, but haven&#39;t had any hard evidence, so if he can be connected to the accomplice of a murder then they can finally arrest him, but he probably won&#39;t give up any information and the real murders will run away. Do you tell the police to go arrest him?&quot;" style="shape=parallelogram;perimeter=parallelogramPerimeter;whiteSpace=wrap;html=1;fixedSize=1;" vertex="1" parent="WIyWlLk6GJQsqaUBKTNV-1">
          <mxGeometry x="4630" y="1930" width="520" height="100" as="geometry" />
        </mxCell>
        <mxCell id="MlXYabZcb-Fr3cg8tZfr-249" value="" style="endArrow=classic;html=1;rounded=0;entryX=0.5;entryY=0;entryDx=0;entryDy=0;" edge="1" parent="WIyWlLk6GJQsqaUBKTNV-1" source="MlXYabZcb-Fr3cg8tZfr-248" target="MlXYabZcb-Fr3cg8tZfr-250">
          <mxGeometry width="50" height="50" relative="1" as="geometry">
            <mxPoint x="4890" y="2070" as="sourcePoint" />
            <mxPoint x="4890" y="2090.710678118655" as="targetPoint" />
          </mxGeometry>
        </mxCell>
        <mxCell id="MlXYabZcb-Fr3cg8tZfr-250" value="Read user input to strUserResponse" style="shape=parallelogram;perimeter=parallelogramPerimeter;whiteSpace=wrap;html=1;fixedSize=1;" vertex="1" parent="WIyWlLk6GJQsqaUBKTNV-1">
          <mxGeometry x="4830" y="2090" width="120" height="60" as="geometry" />
        </mxCell>
        <mxCell id="MlXYabZcb-Fr3cg8tZfr-251" value="" style="endArrow=classic;html=1;rounded=0;entryX=0.5;entryY=0;entryDx=0;entryDy=0;" edge="1" parent="WIyWlLk6GJQsqaUBKTNV-1" source="MlXYabZcb-Fr3cg8tZfr-250" target="MlXYabZcb-Fr3cg8tZfr-252">
          <mxGeometry width="50" height="50" relative="1" as="geometry">
            <mxPoint x="4890" y="2200" as="sourcePoint" />
            <mxPoint x="4890" y="2220.710678118655" as="targetPoint" />
          </mxGeometry>
        </mxCell>
        <mxCell id="MlXYabZcb-Fr3cg8tZfr-252" value="if&amp;nbsp;(strUserReponse.&lt;br&gt;equals(STRYES))" style="rhombus;whiteSpace=wrap;html=1;" vertex="1" parent="WIyWlLk6GJQsqaUBKTNV-1">
          <mxGeometry x="4822.5" y="2220" width="135" height="110" as="geometry" />
        </mxCell>
        <mxCell id="MlXYabZcb-Fr3cg8tZfr-253" value="" style="endArrow=classic;html=1;rounded=0;entryX=1;entryY=0.5;entryDx=0;entryDy=0;" edge="1" parent="WIyWlLk6GJQsqaUBKTNV-1" source="MlXYabZcb-Fr3cg8tZfr-252" target="MlXYabZcb-Fr3cg8tZfr-255">
          <mxGeometry width="50" height="50" relative="1" as="geometry">
            <mxPoint x="4751.789321881345" y="2325" as="sourcePoint" />
            <mxPoint x="4751.789321881345" y="2275" as="targetPoint" />
          </mxGeometry>
        </mxCell>
        <mxCell id="MlXYabZcb-Fr3cg8tZfr-254" value="" style="endArrow=classic;html=1;rounded=0;entryX=0;entryY=0.5;entryDx=0;entryDy=0;" edge="1" parent="WIyWlLk6GJQsqaUBKTNV-1" source="MlXYabZcb-Fr3cg8tZfr-252" target="MlXYabZcb-Fr3cg8tZfr-256">
          <mxGeometry width="50" height="50" relative="1" as="geometry">
            <mxPoint x="4957.5" y="2325" as="sourcePoint" />
            <mxPoint x="5028.210678118655" y="2275" as="targetPoint" />
          </mxGeometry>
        </mxCell>
        <mxCell id="MlXYabZcb-Fr3cg8tZfr-255" value="false" style="rounded=0;whiteSpace=wrap;html=1;" vertex="1" parent="WIyWlLk6GJQsqaUBKTNV-1">
          <mxGeometry x="4630" y="2245" width="120" height="60" as="geometry" />
        </mxCell>
        <mxCell id="MlXYabZcb-Fr3cg8tZfr-256" value="true" style="rounded=0;whiteSpace=wrap;html=1;" vertex="1" parent="WIyWlLk6GJQsqaUBKTNV-1">
          <mxGeometry x="5030" y="2245" width="120" height="60" as="geometry" />
        </mxCell>
        <mxCell id="MlXYabZcb-Fr3cg8tZfr-257" value="" style="endArrow=classic;html=1;rounded=0;entryX=0.711;entryY=0;entryDx=0;entryDy=0;entryPerimeter=0;" edge="1" parent="WIyWlLk6GJQsqaUBKTNV-1" source="MlXYabZcb-Fr3cg8tZfr-256" target="MlXYabZcb-Fr3cg8tZfr-260">
          <mxGeometry width="50" height="50" relative="1" as="geometry">
            <mxPoint x="5090" y="2355" as="sourcePoint" />
            <mxPoint x="5090" y="2375.710678118655" as="targetPoint" />
          </mxGeometry>
        </mxCell>
        <mxCell id="MlXYabZcb-Fr3cg8tZfr-258" value="" style="endArrow=classic;html=1;rounded=0;entryX=0.22;entryY=0.018;entryDx=0;entryDy=0;entryPerimeter=0;" edge="1" parent="WIyWlLk6GJQsqaUBKTNV-1" source="MlXYabZcb-Fr3cg8tZfr-255" target="MlXYabZcb-Fr3cg8tZfr-259">
          <mxGeometry width="50" height="50" relative="1" as="geometry">
            <mxPoint x="4690" y="2355" as="sourcePoint" />
            <mxPoint x="4690" y="2375.710678118655" as="targetPoint" />
          </mxGeometry>
        </mxCell>
        <mxCell id="rcL9RBWmiIsgMO7nx0i4-1" style="edgeStyle=orthogonalEdgeStyle;rounded=0;orthogonalLoop=1;jettySize=auto;html=1;exitX=0.5;exitY=1;exitDx=0;exitDy=0;entryX=1;entryY=0.5;entryDx=0;entryDy=0;" edge="1" parent="WIyWlLk6GJQsqaUBKTNV-1" source="MlXYabZcb-Fr3cg8tZfr-259" target="MlXYabZcb-Fr3cg8tZfr-403">
          <mxGeometry relative="1" as="geometry">
            <Array as="points">
              <mxPoint x="4770" y="2680" />
            </Array>
          </mxGeometry>
        </mxCell>
        <mxCell id="MlXYabZcb-Fr3cg8tZfr-259" value="Print &quot;After a long him of stalking all people related to the crime, a lot of investigation, and teamwork with your colleagues, you find out that someone named Don is behind the murders. You also find out he&#39;s part of Cicada 3301. You get the police to raid Cicada 3301 on the day they all where suppose to meet up, and after a short fire fight, 14 members were arrested with 1 dead.&quot;" style="shape=parallelogram;perimeter=parallelogramPerimeter;whiteSpace=wrap;html=1;fixedSize=1;" vertex="1" parent="WIyWlLk6GJQsqaUBKTNV-1">
          <mxGeometry x="4630" y="2380" width="280" height="130" as="geometry" />
        </mxCell>
        <mxCell id="rcL9RBWmiIsgMO7nx0i4-2" style="edgeStyle=orthogonalEdgeStyle;rounded=0;orthogonalLoop=1;jettySize=auto;html=1;exitX=0.5;exitY=1;exitDx=0;exitDy=0;" edge="1" parent="WIyWlLk6GJQsqaUBKTNV-1" source="MlXYabZcb-Fr3cg8tZfr-260">
          <mxGeometry relative="1" as="geometry">
            <mxPoint x="4720" y="2680" as="targetPoint" />
            <Array as="points">
              <mxPoint x="5045" y="2680" />
            </Array>
          </mxGeometry>
        </mxCell>
        <mxCell id="MlXYabZcb-Fr3cg8tZfr-260" value="Print &quot;The police go and arrest Mat, but he don&#39;t tell them anything. On top of that even after a week of investigating you don&#39;t find anything on other people related to the crime. Well at least you have 2 people related to the crime arrested. The case closes due to there being no leads.&quot;" style="shape=parallelogram;perimeter=parallelogramPerimeter;whiteSpace=wrap;html=1;fixedSize=1;" vertex="1" parent="WIyWlLk6GJQsqaUBKTNV-1">
          <mxGeometry x="4940" y="2380" width="210" height="130" as="geometry" />
        </mxCell>
        <mxCell id="MlXYabZcb-Fr3cg8tZfr-261" value="" style="endArrow=classic;html=1;rounded=0;entryX=0.5;entryY=0;entryDx=0;entryDy=0;entryPerimeter=0;" edge="1" parent="WIyWlLk6GJQsqaUBKTNV-1" target="MlXYabZcb-Fr3cg8tZfr-262">
          <mxGeometry width="50" height="50" relative="1" as="geometry">
            <mxPoint x="5450" y="1885" as="sourcePoint" />
            <mxPoint x="5450" y="1955.7106781186549" as="targetPoint" />
            <Array as="points" />
          </mxGeometry>
        </mxCell>
        <mxCell id="MlXYabZcb-Fr3cg8tZfr-262" value="Print &quot;You go to the crime scene but the body is missing. . . strange. You look around but can&#39;t find anything. There is both a forest and a river nearby perfect for throwing a body away. Do you want to investigate the river? (If not, you&#39;ll investigate the forest)&quot;" style="shape=parallelogram;perimeter=parallelogramPerimeter;whiteSpace=wrap;html=1;fixedSize=1;" vertex="1" parent="WIyWlLk6GJQsqaUBKTNV-1">
          <mxGeometry x="5355" y="1910" width="190" height="150" as="geometry" />
        </mxCell>
        <mxCell id="MlXYabZcb-Fr3cg8tZfr-263" value="" style="endArrow=classic;html=1;rounded=0;entryX=0.5;entryY=0;entryDx=0;entryDy=0;" edge="1" parent="WIyWlLk6GJQsqaUBKTNV-1" source="MlXYabZcb-Fr3cg8tZfr-262" target="MlXYabZcb-Fr3cg8tZfr-264">
          <mxGeometry width="50" height="50" relative="1" as="geometry">
            <mxPoint x="5450" y="2070" as="sourcePoint" />
            <mxPoint x="5450" y="2090.710678118655" as="targetPoint" />
          </mxGeometry>
        </mxCell>
        <mxCell id="MlXYabZcb-Fr3cg8tZfr-264" value="Read user input to strUserResponse" style="shape=parallelogram;perimeter=parallelogramPerimeter;whiteSpace=wrap;html=1;fixedSize=1;" vertex="1" parent="WIyWlLk6GJQsqaUBKTNV-1">
          <mxGeometry x="5390" y="2090" width="120" height="60" as="geometry" />
        </mxCell>
        <mxCell id="MlXYabZcb-Fr3cg8tZfr-265" value="" style="endArrow=classic;html=1;rounded=0;entryX=0.5;entryY=0;entryDx=0;entryDy=0;" edge="1" parent="WIyWlLk6GJQsqaUBKTNV-1" source="MlXYabZcb-Fr3cg8tZfr-264" target="MlXYabZcb-Fr3cg8tZfr-266">
          <mxGeometry width="50" height="50" relative="1" as="geometry">
            <mxPoint x="5450" y="2200" as="sourcePoint" />
            <mxPoint x="5450" y="2220.710678118655" as="targetPoint" />
          </mxGeometry>
        </mxCell>
        <mxCell id="MlXYabZcb-Fr3cg8tZfr-266" value="if&amp;nbsp;(strUserReponse.&lt;br&gt;equals(STRYES))" style="rhombus;whiteSpace=wrap;html=1;" vertex="1" parent="WIyWlLk6GJQsqaUBKTNV-1">
          <mxGeometry x="5382.5" y="2220" width="135" height="110" as="geometry" />
        </mxCell>
        <mxCell id="MlXYabZcb-Fr3cg8tZfr-267" value="" style="endArrow=classic;html=1;rounded=0;entryX=1;entryY=0.5;entryDx=0;entryDy=0;" edge="1" parent="WIyWlLk6GJQsqaUBKTNV-1" source="MlXYabZcb-Fr3cg8tZfr-266" target="MlXYabZcb-Fr3cg8tZfr-269">
          <mxGeometry width="50" height="50" relative="1" as="geometry">
            <mxPoint x="5311.789321881345" y="2325" as="sourcePoint" />
            <mxPoint x="5311.789321881345" y="2275" as="targetPoint" />
          </mxGeometry>
        </mxCell>
        <mxCell id="MlXYabZcb-Fr3cg8tZfr-268" value="" style="endArrow=classic;html=1;rounded=0;entryX=0;entryY=0.5;entryDx=0;entryDy=0;" edge="1" parent="WIyWlLk6GJQsqaUBKTNV-1" source="MlXYabZcb-Fr3cg8tZfr-266" target="MlXYabZcb-Fr3cg8tZfr-270">
          <mxGeometry width="50" height="50" relative="1" as="geometry">
            <mxPoint x="5517.5" y="2325" as="sourcePoint" />
            <mxPoint x="5588.210678118655" y="2275" as="targetPoint" />
          </mxGeometry>
        </mxCell>
        <mxCell id="MlXYabZcb-Fr3cg8tZfr-269" value="false" style="rounded=0;whiteSpace=wrap;html=1;" vertex="1" parent="WIyWlLk6GJQsqaUBKTNV-1">
          <mxGeometry x="5190" y="2245" width="120" height="60" as="geometry" />
        </mxCell>
        <mxCell id="MlXYabZcb-Fr3cg8tZfr-270" value="true" style="rounded=0;whiteSpace=wrap;html=1;" vertex="1" parent="WIyWlLk6GJQsqaUBKTNV-1">
          <mxGeometry x="5590" y="2245" width="120" height="60" as="geometry" />
        </mxCell>
        <mxCell id="MlXYabZcb-Fr3cg8tZfr-271" value="" style="endArrow=classic;html=1;rounded=0;entryX=0.663;entryY=0.01;entryDx=0;entryDy=0;entryPerimeter=0;" edge="1" parent="WIyWlLk6GJQsqaUBKTNV-1" source="MlXYabZcb-Fr3cg8tZfr-270" target="MlXYabZcb-Fr3cg8tZfr-274">
          <mxGeometry width="50" height="50" relative="1" as="geometry">
            <mxPoint x="5650" y="2355" as="sourcePoint" />
            <mxPoint x="5650" y="2375.710678118655" as="targetPoint" />
          </mxGeometry>
        </mxCell>
        <mxCell id="MlXYabZcb-Fr3cg8tZfr-272" value="" style="endArrow=classic;html=1;rounded=0;entryX=0.219;entryY=0;entryDx=0;entryDy=0;entryPerimeter=0;" edge="1" parent="WIyWlLk6GJQsqaUBKTNV-1" source="MlXYabZcb-Fr3cg8tZfr-269" target="MlXYabZcb-Fr3cg8tZfr-273">
          <mxGeometry width="50" height="50" relative="1" as="geometry">
            <mxPoint x="5250" y="2355" as="sourcePoint" />
            <mxPoint x="5250" y="2375.710678118655" as="targetPoint" />
          </mxGeometry>
        </mxCell>
        <mxCell id="MlXYabZcb-Fr3cg8tZfr-273" value="Print &quot;You drive out to the forest that surrounds the area looking for any signs of a body. You find what looks to be a few broken branches and a path of disturbed foliage. following the path you find a path of earth that is hidden very well, but still looks like someone dug it up. After digging it back up you discover a body, but you can&#39;t tell who it is due to the mutilation. You head back home disturbed. You&#39;ll have to pick up the case tomorrow. &quot;" style="shape=parallelogram;perimeter=parallelogramPerimeter;whiteSpace=wrap;html=1;fixedSize=1;" vertex="1" parent="WIyWlLk6GJQsqaUBKTNV-1">
          <mxGeometry x="5190" y="2380" width="260" height="160" as="geometry" />
        </mxCell>
        <mxCell id="rcL9RBWmiIsgMO7nx0i4-3" style="edgeStyle=orthogonalEdgeStyle;rounded=0;orthogonalLoop=1;jettySize=auto;html=1;exitX=0.5;exitY=1;exitDx=0;exitDy=0;entryX=1;entryY=0.75;entryDx=0;entryDy=0;" edge="1" parent="WIyWlLk6GJQsqaUBKTNV-1" source="MlXYabZcb-Fr3cg8tZfr-274" target="MlXYabZcb-Fr3cg8tZfr-403">
          <mxGeometry relative="1" as="geometry">
            <Array as="points">
              <mxPoint x="5625" y="2680" />
              <mxPoint x="4726" y="2680" />
            </Array>
          </mxGeometry>
        </mxCell>
        <mxCell id="MlXYabZcb-Fr3cg8tZfr-274" value="Print &quot;You look around the river for a long time but only find fish and stones. After a long wet day you head back home. You&#39;ll have to pick up the case tomorrow.&quot;" style="shape=parallelogram;perimeter=parallelogramPerimeter;whiteSpace=wrap;html=1;fixedSize=1;" vertex="1" parent="WIyWlLk6GJQsqaUBKTNV-1">
          <mxGeometry x="5540" y="2380" width="170" height="110" as="geometry" />
        </mxCell>
        <mxCell id="MlXYabZcb-Fr3cg8tZfr-275" value="" style="endArrow=classic;html=1;rounded=0;entryX=0.5;entryY=0;entryDx=0;entryDy=0;" edge="1" parent="WIyWlLk6GJQsqaUBKTNV-1" target="MlXYabZcb-Fr3cg8tZfr-276">
          <mxGeometry width="50" height="50" relative="1" as="geometry">
            <mxPoint x="6270" y="1465" as="sourcePoint" />
            <mxPoint x="6270" y="1535.7106781186549" as="targetPoint" />
          </mxGeometry>
        </mxCell>
        <mxCell id="MlXYabZcb-Fr3cg8tZfr-276" value="Print &quot;You offer John some money to help you, and he agrees as long as you also change his identity after the killers are captured. Do you to have him try and meet up with his boss (possibly attached to the murder) so you can ambush them?&lt;br&gt;&amp;nbsp;(If not, you&#39;ll have him to give you the names and places). &quot;" style="shape=parallelogram;perimeter=parallelogramPerimeter;whiteSpace=wrap;html=1;fixedSize=1;" vertex="1" parent="WIyWlLk6GJQsqaUBKTNV-1">
          <mxGeometry x="6130" y="1500" width="280" height="120" as="geometry" />
        </mxCell>
        <mxCell id="MlXYabZcb-Fr3cg8tZfr-277" value="" style="endArrow=classic;html=1;rounded=0;entryX=0.5;entryY=0;entryDx=0;entryDy=0;" edge="1" parent="WIyWlLk6GJQsqaUBKTNV-1" source="MlXYabZcb-Fr3cg8tZfr-276" target="MlXYabZcb-Fr3cg8tZfr-278">
          <mxGeometry width="50" height="50" relative="1" as="geometry">
            <mxPoint x="6270" y="1650" as="sourcePoint" />
            <mxPoint x="6270" y="1670.7106781186549" as="targetPoint" />
          </mxGeometry>
        </mxCell>
        <mxCell id="MlXYabZcb-Fr3cg8tZfr-278" value="Read user input to strUserResponse" style="shape=parallelogram;perimeter=parallelogramPerimeter;whiteSpace=wrap;html=1;fixedSize=1;" vertex="1" parent="WIyWlLk6GJQsqaUBKTNV-1">
          <mxGeometry x="6210" y="1670" width="120" height="60" as="geometry" />
        </mxCell>
        <mxCell id="MlXYabZcb-Fr3cg8tZfr-279" value="" style="endArrow=classic;html=1;rounded=0;entryX=0.5;entryY=0;entryDx=0;entryDy=0;" edge="1" parent="WIyWlLk6GJQsqaUBKTNV-1" source="MlXYabZcb-Fr3cg8tZfr-278" target="MlXYabZcb-Fr3cg8tZfr-280">
          <mxGeometry width="50" height="50" relative="1" as="geometry">
            <mxPoint x="6270" y="1780" as="sourcePoint" />
            <mxPoint x="6270" y="1800.7106781186549" as="targetPoint" />
          </mxGeometry>
        </mxCell>
        <mxCell id="MlXYabZcb-Fr3cg8tZfr-280" value="if&amp;nbsp;(strUserReponse.&lt;br&gt;equals(STRYES))" style="rhombus;whiteSpace=wrap;html=1;" vertex="1" parent="WIyWlLk6GJQsqaUBKTNV-1">
          <mxGeometry x="6202.5" y="1800" width="135" height="110" as="geometry" />
        </mxCell>
        <mxCell id="MlXYabZcb-Fr3cg8tZfr-281" value="" style="endArrow=classic;html=1;rounded=0;entryX=1;entryY=0.5;entryDx=0;entryDy=0;exitX=0;exitY=0.5;exitDx=0;exitDy=0;" edge="1" parent="WIyWlLk6GJQsqaUBKTNV-1" source="MlXYabZcb-Fr3cg8tZfr-280" target="MlXYabZcb-Fr3cg8tZfr-283">
          <mxGeometry width="50" height="50" relative="1" as="geometry">
            <mxPoint x="6200" y="1855" as="sourcePoint" />
            <mxPoint x="6051.789321881345" y="1855" as="targetPoint" />
          </mxGeometry>
        </mxCell>
        <mxCell id="MlXYabZcb-Fr3cg8tZfr-282" value="" style="endArrow=classic;html=1;rounded=0;entryX=0;entryY=0.5;entryDx=0;entryDy=0;" edge="1" parent="WIyWlLk6GJQsqaUBKTNV-1" source="MlXYabZcb-Fr3cg8tZfr-280" target="MlXYabZcb-Fr3cg8tZfr-284">
          <mxGeometry width="50" height="50" relative="1" as="geometry">
            <mxPoint x="6337.5" y="1905" as="sourcePoint" />
            <mxPoint x="6408.210678118655" y="1855" as="targetPoint" />
          </mxGeometry>
        </mxCell>
        <mxCell id="MlXYabZcb-Fr3cg8tZfr-283" value="false" style="rounded=0;whiteSpace=wrap;html=1;" vertex="1" parent="WIyWlLk6GJQsqaUBKTNV-1">
          <mxGeometry x="5930" y="1825" width="120" height="60" as="geometry" />
        </mxCell>
        <mxCell id="MlXYabZcb-Fr3cg8tZfr-284" value="true" style="rounded=0;whiteSpace=wrap;html=1;" vertex="1" parent="WIyWlLk6GJQsqaUBKTNV-1">
          <mxGeometry x="6490" y="1825" width="120" height="60" as="geometry" />
        </mxCell>
        <mxCell id="MlXYabZcb-Fr3cg8tZfr-285" value="" style="endArrow=classic;html=1;rounded=0;entryX=0.5;entryY=0;entryDx=0;entryDy=0;entryPerimeter=0;" edge="1" parent="WIyWlLk6GJQsqaUBKTNV-1" source="MlXYabZcb-Fr3cg8tZfr-283" target="MlXYabZcb-Fr3cg8tZfr-286">
          <mxGeometry width="50" height="50" relative="1" as="geometry">
            <mxPoint x="5990" y="1935" as="sourcePoint" />
            <mxPoint x="5990" y="1955.7106781186549" as="targetPoint" />
          </mxGeometry>
        </mxCell>
        <mxCell id="MlXYabZcb-Fr3cg8tZfr-286" value="Print &quot;John tells you his boss is Mat and he meets up with him at &quot;The Whiskey Bar&quot; to be paid.&lt;br&gt;&amp;nbsp;Do you wish to go to &quot;The Whiskey Bar&quot;? &quot;" style="shape=parallelogram;perimeter=parallelogramPerimeter;whiteSpace=wrap;html=1;fixedSize=1;" vertex="1" parent="WIyWlLk6GJQsqaUBKTNV-1">
          <mxGeometry x="5895" y="1930" width="190" height="120" as="geometry" />
        </mxCell>
        <mxCell id="MlXYabZcb-Fr3cg8tZfr-287" value="" style="endArrow=classic;html=1;rounded=0;entryX=0.5;entryY=0;entryDx=0;entryDy=0;" edge="1" parent="WIyWlLk6GJQsqaUBKTNV-1" source="MlXYabZcb-Fr3cg8tZfr-286" target="MlXYabZcb-Fr3cg8tZfr-288">
          <mxGeometry width="50" height="50" relative="1" as="geometry">
            <mxPoint x="5990" y="2070" as="sourcePoint" />
            <mxPoint x="5990" y="2090.710678118655" as="targetPoint" />
          </mxGeometry>
        </mxCell>
        <mxCell id="MlXYabZcb-Fr3cg8tZfr-288" value="Read user input to strUserResponse" style="shape=parallelogram;perimeter=parallelogramPerimeter;whiteSpace=wrap;html=1;fixedSize=1;" vertex="1" parent="WIyWlLk6GJQsqaUBKTNV-1">
          <mxGeometry x="5930" y="2090" width="120" height="60" as="geometry" />
        </mxCell>
        <mxCell id="MlXYabZcb-Fr3cg8tZfr-289" value="" style="endArrow=classic;html=1;rounded=0;entryX=0.5;entryY=0;entryDx=0;entryDy=0;" edge="1" parent="WIyWlLk6GJQsqaUBKTNV-1" source="MlXYabZcb-Fr3cg8tZfr-288" target="MlXYabZcb-Fr3cg8tZfr-290">
          <mxGeometry width="50" height="50" relative="1" as="geometry">
            <mxPoint x="5990" y="2200" as="sourcePoint" />
            <mxPoint x="5990" y="2220.710678118655" as="targetPoint" />
          </mxGeometry>
        </mxCell>
        <mxCell id="MlXYabZcb-Fr3cg8tZfr-290" value="if&amp;nbsp;(strUserReponse.&lt;br&gt;equals(STRYES))" style="rhombus;whiteSpace=wrap;html=1;" vertex="1" parent="WIyWlLk6GJQsqaUBKTNV-1">
          <mxGeometry x="5922.5" y="2220" width="135" height="110" as="geometry" />
        </mxCell>
        <mxCell id="MlXYabZcb-Fr3cg8tZfr-291" value="" style="endArrow=classic;html=1;rounded=0;entryX=1;entryY=0.5;entryDx=0;entryDy=0;" edge="1" parent="WIyWlLk6GJQsqaUBKTNV-1" source="MlXYabZcb-Fr3cg8tZfr-290" target="MlXYabZcb-Fr3cg8tZfr-293">
          <mxGeometry width="50" height="50" relative="1" as="geometry">
            <mxPoint x="5851.789321881345" y="2325" as="sourcePoint" />
            <mxPoint x="5851.789321881345" y="2275" as="targetPoint" />
          </mxGeometry>
        </mxCell>
        <mxCell id="MlXYabZcb-Fr3cg8tZfr-292" value="" style="endArrow=classic;html=1;rounded=0;entryX=0;entryY=0.5;entryDx=0;entryDy=0;" edge="1" parent="WIyWlLk6GJQsqaUBKTNV-1" source="MlXYabZcb-Fr3cg8tZfr-290" target="MlXYabZcb-Fr3cg8tZfr-294">
          <mxGeometry width="50" height="50" relative="1" as="geometry">
            <mxPoint x="6057.5" y="2325" as="sourcePoint" />
            <mxPoint x="6128.210678118655" y="2275" as="targetPoint" />
          </mxGeometry>
        </mxCell>
        <mxCell id="MlXYabZcb-Fr3cg8tZfr-293" value="false" style="rounded=0;whiteSpace=wrap;html=1;" vertex="1" parent="WIyWlLk6GJQsqaUBKTNV-1">
          <mxGeometry x="5730" y="2245" width="120" height="60" as="geometry" />
        </mxCell>
        <mxCell id="MlXYabZcb-Fr3cg8tZfr-294" value="true" style="rounded=0;whiteSpace=wrap;html=1;" vertex="1" parent="WIyWlLk6GJQsqaUBKTNV-1">
          <mxGeometry x="6130" y="2245" width="120" height="60" as="geometry" />
        </mxCell>
        <mxCell id="MlXYabZcb-Fr3cg8tZfr-295" value="" style="endArrow=classic;html=1;rounded=0;entryX=0.772;entryY=0.003;entryDx=0;entryDy=0;entryPerimeter=0;" edge="1" parent="WIyWlLk6GJQsqaUBKTNV-1" source="MlXYabZcb-Fr3cg8tZfr-294" target="MlXYabZcb-Fr3cg8tZfr-298">
          <mxGeometry width="50" height="50" relative="1" as="geometry">
            <mxPoint x="6190" y="2355" as="sourcePoint" />
            <mxPoint x="6190" y="2375.710678118655" as="targetPoint" />
          </mxGeometry>
        </mxCell>
        <mxCell id="MlXYabZcb-Fr3cg8tZfr-296" value="" style="endArrow=classic;html=1;rounded=0;entryX=0.368;entryY=-0.002;entryDx=0;entryDy=0;entryPerimeter=0;" edge="1" parent="WIyWlLk6GJQsqaUBKTNV-1" source="MlXYabZcb-Fr3cg8tZfr-293" target="MlXYabZcb-Fr3cg8tZfr-297">
          <mxGeometry width="50" height="50" relative="1" as="geometry">
            <mxPoint x="5790" y="2355" as="sourcePoint" />
            <mxPoint x="5790" y="2375.710678118655" as="targetPoint" />
          </mxGeometry>
        </mxCell>
        <mxCell id="rcL9RBWmiIsgMO7nx0i4-4" style="edgeStyle=orthogonalEdgeStyle;rounded=0;orthogonalLoop=1;jettySize=auto;html=1;exitX=0.5;exitY=1;exitDx=0;exitDy=0;entryX=1;entryY=0.75;entryDx=0;entryDy=0;" edge="1" parent="WIyWlLk6GJQsqaUBKTNV-1" source="MlXYabZcb-Fr3cg8tZfr-297" target="MlXYabZcb-Fr3cg8tZfr-403">
          <mxGeometry relative="1" as="geometry">
            <Array as="points">
              <mxPoint x="5815" y="2670" />
              <mxPoint x="4726" y="2670" />
            </Array>
          </mxGeometry>
        </mxCell>
        <mxCell id="MlXYabZcb-Fr3cg8tZfr-297" value="Print &quot;You give the names and locations to a different department. They go in and raid the place, arrest 4 people. The case closes, but who knows who did it.&quot;" style="shape=parallelogram;perimeter=parallelogramPerimeter;whiteSpace=wrap;html=1;fixedSize=1;" vertex="1" parent="WIyWlLk6GJQsqaUBKTNV-1">
          <mxGeometry x="5730" y="2380" width="170" height="100" as="geometry" />
        </mxCell>
        <mxCell id="rcL9RBWmiIsgMO7nx0i4-5" style="edgeStyle=orthogonalEdgeStyle;rounded=0;orthogonalLoop=1;jettySize=auto;html=1;exitX=0.5;exitY=1;exitDx=0;exitDy=0;entryX=1;entryY=0.5;entryDx=0;entryDy=0;" edge="1" parent="WIyWlLk6GJQsqaUBKTNV-1" source="MlXYabZcb-Fr3cg8tZfr-298" target="MlXYabZcb-Fr3cg8tZfr-403">
          <mxGeometry relative="1" as="geometry">
            <Array as="points">
              <mxPoint x="6115" y="2680" />
            </Array>
          </mxGeometry>
        </mxCell>
        <mxCell id="MlXYabZcb-Fr3cg8tZfr-298" value="Print &quot;You go down the the Whiskey bar disguised as someone else and sit down at a table close to the person John calls Mat. You overhead him talking with another person. &quot;Is it done Don?&quot;, &quot;Yes&quot;. Then&amp;nbsp; Mat hands the person money and the other person leaves. You call for backup, and take Mat into custody. You send other people to look for the other person but they aren&#39;t found. The case closes with people assuming Mat is responsible for the murder of Bob.&quot;" style="shape=parallelogram;perimeter=parallelogramPerimeter;whiteSpace=wrap;html=1;fixedSize=1;" vertex="1" parent="WIyWlLk6GJQsqaUBKTNV-1">
          <mxGeometry x="5980" y="2380" width="270" height="170" as="geometry" />
        </mxCell>
        <mxCell id="MlXYabZcb-Fr3cg8tZfr-299" value="" style="endArrow=classic;html=1;rounded=0;entryX=0.5;entryY=0;entryDx=0;entryDy=0;entryPerimeter=0;" edge="1" parent="WIyWlLk6GJQsqaUBKTNV-1" target="MlXYabZcb-Fr3cg8tZfr-300">
          <mxGeometry width="50" height="50" relative="1" as="geometry">
            <mxPoint x="6550" y="1885" as="sourcePoint" />
            <mxPoint x="6550" y="1955.7106781186549" as="targetPoint" />
            <Array as="points" />
          </mxGeometry>
        </mxCell>
        <mxCell id="MlXYabZcb-Fr3cg8tZfr-300" value="Print &quot;John agrees to meet his boss, and you go to the meeting place. As soon as John gives the signal to ambush them, a smoke bomb goes off and you hear the back door open and close. Do you give chase or is it too dangerous?&quot;" style="shape=parallelogram;perimeter=parallelogramPerimeter;whiteSpace=wrap;html=1;fixedSize=1;" vertex="1" parent="WIyWlLk6GJQsqaUBKTNV-1">
          <mxGeometry x="6455" y="1930" width="190" height="110" as="geometry" />
        </mxCell>
        <mxCell id="MlXYabZcb-Fr3cg8tZfr-301" value="" style="endArrow=classic;html=1;rounded=0;entryX=0.5;entryY=0;entryDx=0;entryDy=0;" edge="1" parent="WIyWlLk6GJQsqaUBKTNV-1" source="MlXYabZcb-Fr3cg8tZfr-300" target="MlXYabZcb-Fr3cg8tZfr-302">
          <mxGeometry width="50" height="50" relative="1" as="geometry">
            <mxPoint x="6550" y="2070" as="sourcePoint" />
            <mxPoint x="6550" y="2090.710678118655" as="targetPoint" />
          </mxGeometry>
        </mxCell>
        <mxCell id="MlXYabZcb-Fr3cg8tZfr-302" value="Read user input to strUserResponse" style="shape=parallelogram;perimeter=parallelogramPerimeter;whiteSpace=wrap;html=1;fixedSize=1;" vertex="1" parent="WIyWlLk6GJQsqaUBKTNV-1">
          <mxGeometry x="6490" y="2090" width="120" height="60" as="geometry" />
        </mxCell>
        <mxCell id="MlXYabZcb-Fr3cg8tZfr-303" value="" style="endArrow=classic;html=1;rounded=0;entryX=0.5;entryY=0;entryDx=0;entryDy=0;" edge="1" parent="WIyWlLk6GJQsqaUBKTNV-1" source="MlXYabZcb-Fr3cg8tZfr-302" target="MlXYabZcb-Fr3cg8tZfr-304">
          <mxGeometry width="50" height="50" relative="1" as="geometry">
            <mxPoint x="6550" y="2200" as="sourcePoint" />
            <mxPoint x="6550" y="2220.710678118655" as="targetPoint" />
          </mxGeometry>
        </mxCell>
        <mxCell id="MlXYabZcb-Fr3cg8tZfr-304" value="if&amp;nbsp;(strUserReponse.&lt;br&gt;equals(STRYES))" style="rhombus;whiteSpace=wrap;html=1;" vertex="1" parent="WIyWlLk6GJQsqaUBKTNV-1">
          <mxGeometry x="6482.5" y="2220" width="135" height="110" as="geometry" />
        </mxCell>
        <mxCell id="MlXYabZcb-Fr3cg8tZfr-305" value="" style="endArrow=classic;html=1;rounded=0;entryX=1;entryY=0.5;entryDx=0;entryDy=0;" edge="1" parent="WIyWlLk6GJQsqaUBKTNV-1" source="MlXYabZcb-Fr3cg8tZfr-304" target="MlXYabZcb-Fr3cg8tZfr-307">
          <mxGeometry width="50" height="50" relative="1" as="geometry">
            <mxPoint x="6411.789321881345" y="2325" as="sourcePoint" />
            <mxPoint x="6411.789321881345" y="2275" as="targetPoint" />
          </mxGeometry>
        </mxCell>
        <mxCell id="MlXYabZcb-Fr3cg8tZfr-306" value="" style="endArrow=classic;html=1;rounded=0;entryX=0;entryY=0.5;entryDx=0;entryDy=0;" edge="1" parent="WIyWlLk6GJQsqaUBKTNV-1" source="MlXYabZcb-Fr3cg8tZfr-304" target="MlXYabZcb-Fr3cg8tZfr-308">
          <mxGeometry width="50" height="50" relative="1" as="geometry">
            <mxPoint x="6617.5" y="2325" as="sourcePoint" />
            <mxPoint x="6688.210678118655" y="2275" as="targetPoint" />
          </mxGeometry>
        </mxCell>
        <mxCell id="MlXYabZcb-Fr3cg8tZfr-307" value="false" style="rounded=0;whiteSpace=wrap;html=1;" vertex="1" parent="WIyWlLk6GJQsqaUBKTNV-1">
          <mxGeometry x="6290" y="2245" width="120" height="60" as="geometry" />
        </mxCell>
        <mxCell id="MlXYabZcb-Fr3cg8tZfr-308" value="true" style="rounded=0;whiteSpace=wrap;html=1;" vertex="1" parent="WIyWlLk6GJQsqaUBKTNV-1">
          <mxGeometry x="6690" y="2245" width="120" height="60" as="geometry" />
        </mxCell>
        <mxCell id="MlXYabZcb-Fr3cg8tZfr-309" value="" style="endArrow=classic;html=1;rounded=0;entryX=0.673;entryY=0.008;entryDx=0;entryDy=0;entryPerimeter=0;" edge="1" parent="WIyWlLk6GJQsqaUBKTNV-1" source="MlXYabZcb-Fr3cg8tZfr-308" target="MlXYabZcb-Fr3cg8tZfr-312">
          <mxGeometry width="50" height="50" relative="1" as="geometry">
            <mxPoint x="6750" y="2355" as="sourcePoint" />
            <mxPoint x="6750" y="2375.710678118655" as="targetPoint" />
          </mxGeometry>
        </mxCell>
        <mxCell id="MlXYabZcb-Fr3cg8tZfr-310" value="" style="endArrow=classic;html=1;rounded=0;entryX=0.25;entryY=0;entryDx=0;entryDy=0;" edge="1" parent="WIyWlLk6GJQsqaUBKTNV-1" source="MlXYabZcb-Fr3cg8tZfr-307" target="MlXYabZcb-Fr3cg8tZfr-311">
          <mxGeometry width="50" height="50" relative="1" as="geometry">
            <mxPoint x="6350" y="2355" as="sourcePoint" />
            <mxPoint x="6350" y="2375.710678118655" as="targetPoint" />
          </mxGeometry>
        </mxCell>
        <mxCell id="rcL9RBWmiIsgMO7nx0i4-6" style="edgeStyle=orthogonalEdgeStyle;rounded=0;orthogonalLoop=1;jettySize=auto;html=1;exitX=0.5;exitY=1;exitDx=0;exitDy=0;entryX=1;entryY=0.5;entryDx=0;entryDy=0;" edge="1" parent="WIyWlLk6GJQsqaUBKTNV-1" source="MlXYabZcb-Fr3cg8tZfr-311" target="MlXYabZcb-Fr3cg8tZfr-403">
          <mxGeometry relative="1" as="geometry">
            <Array as="points">
              <mxPoint x="6410" y="2670" />
              <mxPoint x="4730" y="2670" />
            </Array>
          </mxGeometry>
        </mxCell>
        <mxCell id="MlXYabZcb-Fr3cg8tZfr-311" value="Print &quot;You back off and go out through the front door. You call for backup, waiting for more people. You see 2 people running through the smoke of a nearby alleyway and give chase. After tackling them it turns out they aren&#39;t John or Mat, just two random drunk people. Later in the day they are identified and both are captured. Neither one gives up any more information on Bob&#39;s murder during a second interrogation. You&#39;ll have to find more information and continue the case at a later date.&quot;" style="shape=parallelogram;perimeter=parallelogramPerimeter;whiteSpace=wrap;html=1;fixedSize=1;" vertex="1" parent="WIyWlLk6GJQsqaUBKTNV-1">
          <mxGeometry x="6290" y="2380" width="240" height="180" as="geometry" />
        </mxCell>
        <mxCell id="rcL9RBWmiIsgMO7nx0i4-7" style="edgeStyle=orthogonalEdgeStyle;rounded=0;orthogonalLoop=1;jettySize=auto;html=1;exitX=0.5;exitY=1;exitDx=0;exitDy=0;entryX=1;entryY=0.5;entryDx=0;entryDy=0;" edge="1" parent="WIyWlLk6GJQsqaUBKTNV-1" target="MlXYabZcb-Fr3cg8tZfr-403">
          <mxGeometry relative="1" as="geometry">
            <mxPoint x="6710" y="2679.9999999999995" as="sourcePoint" />
            <mxPoint x="4720" y="2790.0000000000005" as="targetPoint" />
          </mxGeometry>
        </mxCell>
        <mxCell id="MlXYabZcb-Fr3cg8tZfr-312" value="Print &quot;You give chase and burst through the door, you notice 2 figures through the smoke but they disappear around a corner. After rounding the corner, you don&#39;t see them. After scanning the area you can&#39;t find them anywhere. You spend the rest of the day roaming the city looking for them but you never find them. You&#39;ve lost your only lead and will have to attempt this case at a later date.&quot;" style="shape=parallelogram;perimeter=parallelogramPerimeter;whiteSpace=wrap;html=1;fixedSize=1;" vertex="1" parent="WIyWlLk6GJQsqaUBKTNV-1">
          <mxGeometry x="6630" y="2380" width="180" height="190" as="geometry" />
        </mxCell>
        <mxCell id="MlXYabZcb-Fr3cg8tZfr-313" value="" style="endArrow=classic;html=1;rounded=0;entryX=0.5;entryY=0;entryDx=0;entryDy=0;" edge="1" parent="WIyWlLk6GJQsqaUBKTNV-1" target="MlXYabZcb-Fr3cg8tZfr-314">
          <mxGeometry width="50" height="50" relative="1" as="geometry">
            <mxPoint x="8020" y="1040" as="sourcePoint" />
            <mxPoint x="8020" y="1110.7106781186549" as="targetPoint" />
          </mxGeometry>
        </mxCell>
        <mxCell id="MlXYabZcb-Fr3cg8tZfr-314" value="Print &quot;You decide to go to the warehouse, but you should probably bring some people with you since someone just died there. Do you want to bring the police with you? (If you don&#39;t bring the police with you, John will come with you.)" style="shape=parallelogram;perimeter=parallelogramPerimeter;whiteSpace=wrap;html=1;fixedSize=1;" vertex="1" parent="WIyWlLk6GJQsqaUBKTNV-1">
          <mxGeometry x="7890" y="1080" width="250" height="140" as="geometry" />
        </mxCell>
        <mxCell id="MlXYabZcb-Fr3cg8tZfr-315" value="" style="endArrow=classic;html=1;rounded=0;entryX=0.5;entryY=0;entryDx=0;entryDy=0;" edge="1" parent="WIyWlLk6GJQsqaUBKTNV-1" source="MlXYabZcb-Fr3cg8tZfr-314" target="MlXYabZcb-Fr3cg8tZfr-316">
          <mxGeometry width="50" height="50" relative="1" as="geometry">
            <mxPoint x="8020" y="1225" as="sourcePoint" />
            <mxPoint x="8020" y="1245.7106781186549" as="targetPoint" />
          </mxGeometry>
        </mxCell>
        <mxCell id="MlXYabZcb-Fr3cg8tZfr-316" value="Read user input to strUserResponse" style="shape=parallelogram;perimeter=parallelogramPerimeter;whiteSpace=wrap;html=1;fixedSize=1;" vertex="1" parent="WIyWlLk6GJQsqaUBKTNV-1">
          <mxGeometry x="7960" y="1245" width="120" height="60" as="geometry" />
        </mxCell>
        <mxCell id="MlXYabZcb-Fr3cg8tZfr-317" value="" style="endArrow=classic;html=1;rounded=0;entryX=0.5;entryY=0;entryDx=0;entryDy=0;" edge="1" parent="WIyWlLk6GJQsqaUBKTNV-1" source="MlXYabZcb-Fr3cg8tZfr-316" target="MlXYabZcb-Fr3cg8tZfr-318">
          <mxGeometry width="50" height="50" relative="1" as="geometry">
            <mxPoint x="8020" y="1355" as="sourcePoint" />
            <mxPoint x="8020" y="1375.7106781186549" as="targetPoint" />
          </mxGeometry>
        </mxCell>
        <mxCell id="MlXYabZcb-Fr3cg8tZfr-318" value="if&amp;nbsp;(strUserReponse.&lt;br&gt;equals(STRYES))" style="rhombus;whiteSpace=wrap;html=1;" vertex="1" parent="WIyWlLk6GJQsqaUBKTNV-1">
          <mxGeometry x="7952.5" y="1375" width="135" height="110" as="geometry" />
        </mxCell>
        <mxCell id="MlXYabZcb-Fr3cg8tZfr-319" value="" style="endArrow=classic;html=1;rounded=0;entryX=1;entryY=0.5;entryDx=0;entryDy=0;exitX=0;exitY=0.5;exitDx=0;exitDy=0;" edge="1" parent="WIyWlLk6GJQsqaUBKTNV-1" source="MlXYabZcb-Fr3cg8tZfr-318" target="MlXYabZcb-Fr3cg8tZfr-321">
          <mxGeometry width="50" height="50" relative="1" as="geometry">
            <mxPoint x="7602.5" y="1430" as="sourcePoint" />
            <mxPoint x="7531.789321881345" y="1430" as="targetPoint" />
          </mxGeometry>
        </mxCell>
        <mxCell id="MlXYabZcb-Fr3cg8tZfr-320" value="" style="endArrow=classic;html=1;rounded=0;entryX=0;entryY=0.5;entryDx=0;entryDy=0;exitX=1;exitY=0.5;exitDx=0;exitDy=0;" edge="1" parent="WIyWlLk6GJQsqaUBKTNV-1" source="MlXYabZcb-Fr3cg8tZfr-318" target="MlXYabZcb-Fr3cg8tZfr-322">
          <mxGeometry width="50" height="50" relative="1" as="geometry">
            <mxPoint x="8090" y="1435" as="sourcePoint" />
            <mxPoint x="8158.210678118655" y="1450" as="targetPoint" />
          </mxGeometry>
        </mxCell>
        <mxCell id="MlXYabZcb-Fr3cg8tZfr-321" value="false" style="rounded=0;whiteSpace=wrap;html=1;" vertex="1" parent="WIyWlLk6GJQsqaUBKTNV-1">
          <mxGeometry x="7410" y="1400" width="120" height="60" as="geometry" />
        </mxCell>
        <mxCell id="MlXYabZcb-Fr3cg8tZfr-322" value="true" style="rounded=0;whiteSpace=wrap;html=1;" vertex="1" parent="WIyWlLk6GJQsqaUBKTNV-1">
          <mxGeometry x="8510" y="1400" width="120" height="60" as="geometry" />
        </mxCell>
        <mxCell id="MlXYabZcb-Fr3cg8tZfr-323" value="" style="endArrow=classic;html=1;rounded=0;entryX=0.5;entryY=0;entryDx=0;entryDy=0;" edge="1" parent="WIyWlLk6GJQsqaUBKTNV-1" source="MlXYabZcb-Fr3cg8tZfr-321" target="MlXYabZcb-Fr3cg8tZfr-324">
          <mxGeometry width="50" height="50" relative="1" as="geometry">
            <mxPoint x="7470" y="1510" as="sourcePoint" />
            <mxPoint x="7470" y="1530.7106781186549" as="targetPoint" />
          </mxGeometry>
        </mxCell>
        <mxCell id="MlXYabZcb-Fr3cg8tZfr-324" value="Print &quot;You decide to take John with you to go to the warehouse, on the way you ask him why he works in a mostly abandoned warehouse. He says that he gets paid a lot, which is weird. While there he seems to notice something for just a second but then turns away. Do you ask him about what he noticed?&quot;" style="shape=parallelogram;perimeter=parallelogramPerimeter;whiteSpace=wrap;html=1;fixedSize=1;" vertex="1" parent="WIyWlLk6GJQsqaUBKTNV-1">
          <mxGeometry x="7350" y="1500" width="240" height="120" as="geometry" />
        </mxCell>
        <mxCell id="MlXYabZcb-Fr3cg8tZfr-325" value="" style="endArrow=classic;html=1;rounded=0;entryX=0.5;entryY=0;entryDx=0;entryDy=0;" edge="1" parent="WIyWlLk6GJQsqaUBKTNV-1" source="MlXYabZcb-Fr3cg8tZfr-324" target="MlXYabZcb-Fr3cg8tZfr-326">
          <mxGeometry width="50" height="50" relative="1" as="geometry">
            <mxPoint x="7470" y="1645" as="sourcePoint" />
            <mxPoint x="7470" y="1665.7106781186549" as="targetPoint" />
          </mxGeometry>
        </mxCell>
        <mxCell id="MlXYabZcb-Fr3cg8tZfr-326" value="Read user input to strUserResponse" style="shape=parallelogram;perimeter=parallelogramPerimeter;whiteSpace=wrap;html=1;fixedSize=1;" vertex="1" parent="WIyWlLk6GJQsqaUBKTNV-1">
          <mxGeometry x="7410" y="1665" width="120" height="60" as="geometry" />
        </mxCell>
        <mxCell id="MlXYabZcb-Fr3cg8tZfr-327" value="" style="endArrow=classic;html=1;rounded=0;entryX=0.5;entryY=0;entryDx=0;entryDy=0;" edge="1" parent="WIyWlLk6GJQsqaUBKTNV-1" source="MlXYabZcb-Fr3cg8tZfr-326" target="MlXYabZcb-Fr3cg8tZfr-328">
          <mxGeometry width="50" height="50" relative="1" as="geometry">
            <mxPoint x="7470" y="1775" as="sourcePoint" />
            <mxPoint x="7470" y="1795.7106781186549" as="targetPoint" />
          </mxGeometry>
        </mxCell>
        <mxCell id="MlXYabZcb-Fr3cg8tZfr-328" value="if&amp;nbsp;(strUserReponse.&lt;br&gt;equals(STRYES))" style="rhombus;whiteSpace=wrap;html=1;" vertex="1" parent="WIyWlLk6GJQsqaUBKTNV-1">
          <mxGeometry x="7402.5" y="1795" width="135" height="110" as="geometry" />
        </mxCell>
        <mxCell id="MlXYabZcb-Fr3cg8tZfr-329" value="" style="endArrow=classic;html=1;rounded=0;entryX=1;entryY=0.5;entryDx=0;entryDy=0;exitX=0;exitY=0.5;exitDx=0;exitDy=0;" edge="1" parent="WIyWlLk6GJQsqaUBKTNV-1" source="MlXYabZcb-Fr3cg8tZfr-328" target="MlXYabZcb-Fr3cg8tZfr-331">
          <mxGeometry width="50" height="50" relative="1" as="geometry">
            <mxPoint x="7400" y="1850" as="sourcePoint" />
            <mxPoint x="7251.789321881345" y="1850" as="targetPoint" />
          </mxGeometry>
        </mxCell>
        <mxCell id="MlXYabZcb-Fr3cg8tZfr-330" value="" style="endArrow=classic;html=1;rounded=0;entryX=0;entryY=0.5;entryDx=0;entryDy=0;" edge="1" parent="WIyWlLk6GJQsqaUBKTNV-1" source="MlXYabZcb-Fr3cg8tZfr-328" target="MlXYabZcb-Fr3cg8tZfr-332">
          <mxGeometry width="50" height="50" relative="1" as="geometry">
            <mxPoint x="7537.5" y="1900" as="sourcePoint" />
            <mxPoint x="7608.210678118655" y="1850" as="targetPoint" />
          </mxGeometry>
        </mxCell>
        <mxCell id="MlXYabZcb-Fr3cg8tZfr-331" value="false" style="rounded=0;whiteSpace=wrap;html=1;" vertex="1" parent="WIyWlLk6GJQsqaUBKTNV-1">
          <mxGeometry x="7130" y="1820" width="120" height="60" as="geometry" />
        </mxCell>
        <mxCell id="MlXYabZcb-Fr3cg8tZfr-332" value="true" style="rounded=0;whiteSpace=wrap;html=1;" vertex="1" parent="WIyWlLk6GJQsqaUBKTNV-1">
          <mxGeometry x="7690" y="1820" width="120" height="60" as="geometry" />
        </mxCell>
        <mxCell id="MlXYabZcb-Fr3cg8tZfr-333" value="" style="endArrow=classic;html=1;rounded=0;entryX=0.5;entryY=0;entryDx=0;entryDy=0;entryPerimeter=0;" edge="1" parent="WIyWlLk6GJQsqaUBKTNV-1" source="MlXYabZcb-Fr3cg8tZfr-331" target="MlXYabZcb-Fr3cg8tZfr-334">
          <mxGeometry width="50" height="50" relative="1" as="geometry">
            <mxPoint x="7190" y="1930" as="sourcePoint" />
            <mxPoint x="7190" y="1950.7106781186549" as="targetPoint" />
          </mxGeometry>
        </mxCell>
        <mxCell id="MlXYabZcb-Fr3cg8tZfr-334" value="Print &quot;You don&#39;t ask him about it, but would you like to go over and look at it while he is not looking?&quot;" style="shape=parallelogram;perimeter=parallelogramPerimeter;whiteSpace=wrap;html=1;fixedSize=1;" vertex="1" parent="WIyWlLk6GJQsqaUBKTNV-1">
          <mxGeometry x="7060" y="1920" width="260" height="120" as="geometry" />
        </mxCell>
        <mxCell id="MlXYabZcb-Fr3cg8tZfr-335" value="" style="endArrow=classic;html=1;rounded=0;entryX=0.5;entryY=0;entryDx=0;entryDy=0;" edge="1" parent="WIyWlLk6GJQsqaUBKTNV-1" source="MlXYabZcb-Fr3cg8tZfr-334" target="MlXYabZcb-Fr3cg8tZfr-336">
          <mxGeometry width="50" height="50" relative="1" as="geometry">
            <mxPoint x="7190" y="2065" as="sourcePoint" />
            <mxPoint x="7190" y="2085.710678118655" as="targetPoint" />
          </mxGeometry>
        </mxCell>
        <mxCell id="MlXYabZcb-Fr3cg8tZfr-336" value="Read user input to strUserResponse" style="shape=parallelogram;perimeter=parallelogramPerimeter;whiteSpace=wrap;html=1;fixedSize=1;" vertex="1" parent="WIyWlLk6GJQsqaUBKTNV-1">
          <mxGeometry x="7130" y="2085" width="120" height="60" as="geometry" />
        </mxCell>
        <mxCell id="MlXYabZcb-Fr3cg8tZfr-337" value="" style="endArrow=classic;html=1;rounded=0;entryX=0.5;entryY=0;entryDx=0;entryDy=0;" edge="1" parent="WIyWlLk6GJQsqaUBKTNV-1" source="MlXYabZcb-Fr3cg8tZfr-336" target="MlXYabZcb-Fr3cg8tZfr-338">
          <mxGeometry width="50" height="50" relative="1" as="geometry">
            <mxPoint x="7190" y="2195" as="sourcePoint" />
            <mxPoint x="7190" y="2215.710678118655" as="targetPoint" />
          </mxGeometry>
        </mxCell>
        <mxCell id="MlXYabZcb-Fr3cg8tZfr-338" value="if&amp;nbsp;(strUserReponse.&lt;br&gt;equals(STRYES))" style="rhombus;whiteSpace=wrap;html=1;" vertex="1" parent="WIyWlLk6GJQsqaUBKTNV-1">
          <mxGeometry x="7122.5" y="2215" width="135" height="110" as="geometry" />
        </mxCell>
        <mxCell id="MlXYabZcb-Fr3cg8tZfr-339" value="" style="endArrow=classic;html=1;rounded=0;entryX=1;entryY=0.5;entryDx=0;entryDy=0;" edge="1" parent="WIyWlLk6GJQsqaUBKTNV-1" source="MlXYabZcb-Fr3cg8tZfr-338" target="MlXYabZcb-Fr3cg8tZfr-341">
          <mxGeometry width="50" height="50" relative="1" as="geometry">
            <mxPoint x="7051.789321881345" y="2320" as="sourcePoint" />
            <mxPoint x="7051.789321881345" y="2270" as="targetPoint" />
          </mxGeometry>
        </mxCell>
        <mxCell id="MlXYabZcb-Fr3cg8tZfr-340" value="" style="endArrow=classic;html=1;rounded=0;entryX=0;entryY=0.5;entryDx=0;entryDy=0;" edge="1" parent="WIyWlLk6GJQsqaUBKTNV-1" source="MlXYabZcb-Fr3cg8tZfr-338" target="MlXYabZcb-Fr3cg8tZfr-342">
          <mxGeometry width="50" height="50" relative="1" as="geometry">
            <mxPoint x="7257.5" y="2320" as="sourcePoint" />
            <mxPoint x="7328.210678118655" y="2270" as="targetPoint" />
          </mxGeometry>
        </mxCell>
        <mxCell id="MlXYabZcb-Fr3cg8tZfr-341" value="false" style="rounded=0;whiteSpace=wrap;html=1;" vertex="1" parent="WIyWlLk6GJQsqaUBKTNV-1">
          <mxGeometry x="6930" y="2240" width="120" height="60" as="geometry" />
        </mxCell>
        <mxCell id="MlXYabZcb-Fr3cg8tZfr-342" value="true" style="rounded=0;whiteSpace=wrap;html=1;" vertex="1" parent="WIyWlLk6GJQsqaUBKTNV-1">
          <mxGeometry x="7330" y="2240" width="120" height="60" as="geometry" />
        </mxCell>
        <mxCell id="MlXYabZcb-Fr3cg8tZfr-343" value="" style="endArrow=classic;html=1;rounded=0;entryX=0.832;entryY=0.012;entryDx=0;entryDy=0;entryPerimeter=0;" edge="1" parent="WIyWlLk6GJQsqaUBKTNV-1" source="MlXYabZcb-Fr3cg8tZfr-342" target="MlXYabZcb-Fr3cg8tZfr-346">
          <mxGeometry width="50" height="50" relative="1" as="geometry">
            <mxPoint x="7390" y="2350" as="sourcePoint" />
            <mxPoint x="7390" y="2370.710678118655" as="targetPoint" />
          </mxGeometry>
        </mxCell>
        <mxCell id="MlXYabZcb-Fr3cg8tZfr-344" value="" style="endArrow=classic;html=1;rounded=0;entryX=0.407;entryY=-0.007;entryDx=0;entryDy=0;entryPerimeter=0;" edge="1" parent="WIyWlLk6GJQsqaUBKTNV-1" source="MlXYabZcb-Fr3cg8tZfr-341" target="MlXYabZcb-Fr3cg8tZfr-345">
          <mxGeometry width="50" height="50" relative="1" as="geometry">
            <mxPoint x="6990" y="2350" as="sourcePoint" />
            <mxPoint x="6990" y="2370.710678118655" as="targetPoint" />
          </mxGeometry>
        </mxCell>
        <mxCell id="rcL9RBWmiIsgMO7nx0i4-8" style="edgeStyle=orthogonalEdgeStyle;rounded=0;orthogonalLoop=1;jettySize=auto;html=1;exitX=0.5;exitY=1;exitDx=0;exitDy=0;entryX=1;entryY=0.5;entryDx=0;entryDy=0;" edge="1" parent="WIyWlLk6GJQsqaUBKTNV-1" source="MlXYabZcb-Fr3cg8tZfr-345" target="MlXYabZcb-Fr3cg8tZfr-403">
          <mxGeometry relative="1" as="geometry">
            <mxPoint x="4820" y="2770" as="targetPoint" />
            <Array as="points">
              <mxPoint x="7005" y="2690" />
              <mxPoint x="4730" y="2690" />
            </Array>
          </mxGeometry>
        </mxCell>
        <mxCell id="MlXYabZcb-Fr3cg8tZfr-345" value="Print &quot;You walk around the warehouse with John for while, learning about&amp;nbsp; his wife and kids, but you don&#39;t learn anything of value. You return to your office and decide to work on the case at a later date.&quot;" style="shape=parallelogram;perimeter=parallelogramPerimeter;whiteSpace=wrap;html=1;fixedSize=1;" vertex="1" parent="WIyWlLk6GJQsqaUBKTNV-1">
          <mxGeometry x="6930" y="2375" width="150" height="145" as="geometry" />
        </mxCell>
        <mxCell id="rcL9RBWmiIsgMO7nx0i4-9" style="edgeStyle=orthogonalEdgeStyle;rounded=0;orthogonalLoop=1;jettySize=auto;html=1;exitX=0.5;exitY=1;exitDx=0;exitDy=0;entryX=1;entryY=0.75;entryDx=0;entryDy=0;" edge="1" parent="WIyWlLk6GJQsqaUBKTNV-1" source="MlXYabZcb-Fr3cg8tZfr-346" target="MlXYabZcb-Fr3cg8tZfr-403">
          <mxGeometry relative="1" as="geometry">
            <Array as="points">
              <mxPoint x="7270" y="2660" />
              <mxPoint x="4726" y="2660" />
            </Array>
          </mxGeometry>
        </mxCell>
        <mxCell id="MlXYabZcb-Fr3cg8tZfr-346" value="&lt;font style=&quot;font-size: 10px;&quot;&gt;Print &quot;When John is on the other side of the warehouse you go over to where he looked at (the door that he claimed he maybe saw open and close)V2F0Y2ggdGhlIHBsYWNlIGZvciBhIGZldyBtb3JlIGRheXMsIHRoZW4gd2UgY2Fu&lt;br style=&quot;border-color: var(--border-color);&quot;&gt;IGxlYXZlLiBHZXQgcmlkIG9mIGFueW9uZSB3aG8gaW52ZXN0aWdhdGVzLg==&lt;br style=&quot;border-color: var(--border-color);&quot;&gt;With this there is enough text for you to decipher it (this is left as an exercise to the reader (it&#39;s so basic it can&#39;t be consider a cipher)) and figure out who the killer is. You find and arrest the killer.&amp;nbsp;&lt;br&gt;&quot;.&lt;/font&gt;" style="shape=parallelogram;perimeter=parallelogramPerimeter;whiteSpace=wrap;html=1;fixedSize=1;" vertex="1" parent="WIyWlLk6GJQsqaUBKTNV-1">
          <mxGeometry x="7090" y="2375" width="360" height="145" as="geometry" />
        </mxCell>
        <mxCell id="MlXYabZcb-Fr3cg8tZfr-347" value="" style="endArrow=classic;html=1;rounded=0;entryX=0.5;entryY=0;entryDx=0;entryDy=0;entryPerimeter=0;" edge="1" parent="WIyWlLk6GJQsqaUBKTNV-1" target="MlXYabZcb-Fr3cg8tZfr-348">
          <mxGeometry width="50" height="50" relative="1" as="geometry">
            <mxPoint x="7750" y="1880" as="sourcePoint" />
            <mxPoint x="7750" y="1950.7106781186549" as="targetPoint" />
            <Array as="points" />
          </mxGeometry>
        </mxCell>
        <mxCell id="MlXYabZcb-Fr3cg8tZfr-348" value="Print &quot;You ask John, what did you notice? Is there anything over there? He says that there is nothing over there and it&#39;s fine. Do you want to press him for answers and push past him to look?&quot;" style="shape=parallelogram;perimeter=parallelogramPerimeter;whiteSpace=wrap;html=1;fixedSize=1;" vertex="1" parent="WIyWlLk6GJQsqaUBKTNV-1">
          <mxGeometry x="7655" y="1940" width="190" height="100" as="geometry" />
        </mxCell>
        <mxCell id="MlXYabZcb-Fr3cg8tZfr-349" value="" style="endArrow=classic;html=1;rounded=0;entryX=0.5;entryY=0;entryDx=0;entryDy=0;" edge="1" parent="WIyWlLk6GJQsqaUBKTNV-1" source="MlXYabZcb-Fr3cg8tZfr-348" target="MlXYabZcb-Fr3cg8tZfr-350">
          <mxGeometry width="50" height="50" relative="1" as="geometry">
            <mxPoint x="7750" y="2065" as="sourcePoint" />
            <mxPoint x="7750" y="2085.710678118655" as="targetPoint" />
          </mxGeometry>
        </mxCell>
        <mxCell id="MlXYabZcb-Fr3cg8tZfr-350" value="Read user input to strUserResponse" style="shape=parallelogram;perimeter=parallelogramPerimeter;whiteSpace=wrap;html=1;fixedSize=1;" vertex="1" parent="WIyWlLk6GJQsqaUBKTNV-1">
          <mxGeometry x="7690" y="2085" width="120" height="60" as="geometry" />
        </mxCell>
        <mxCell id="MlXYabZcb-Fr3cg8tZfr-351" value="" style="endArrow=classic;html=1;rounded=0;entryX=0.5;entryY=0;entryDx=0;entryDy=0;" edge="1" parent="WIyWlLk6GJQsqaUBKTNV-1" source="MlXYabZcb-Fr3cg8tZfr-350" target="MlXYabZcb-Fr3cg8tZfr-352">
          <mxGeometry width="50" height="50" relative="1" as="geometry">
            <mxPoint x="7750" y="2195" as="sourcePoint" />
            <mxPoint x="7750" y="2215.710678118655" as="targetPoint" />
          </mxGeometry>
        </mxCell>
        <mxCell id="MlXYabZcb-Fr3cg8tZfr-352" value="if&amp;nbsp;(strUserReponse.&lt;br&gt;equals(STRYES))" style="rhombus;whiteSpace=wrap;html=1;" vertex="1" parent="WIyWlLk6GJQsqaUBKTNV-1">
          <mxGeometry x="7682.5" y="2215" width="135" height="110" as="geometry" />
        </mxCell>
        <mxCell id="MlXYabZcb-Fr3cg8tZfr-353" value="" style="endArrow=classic;html=1;rounded=0;entryX=1;entryY=0.5;entryDx=0;entryDy=0;" edge="1" parent="WIyWlLk6GJQsqaUBKTNV-1" source="MlXYabZcb-Fr3cg8tZfr-352" target="MlXYabZcb-Fr3cg8tZfr-355">
          <mxGeometry width="50" height="50" relative="1" as="geometry">
            <mxPoint x="7611.789321881345" y="2320" as="sourcePoint" />
            <mxPoint x="7611.789321881345" y="2270" as="targetPoint" />
          </mxGeometry>
        </mxCell>
        <mxCell id="MlXYabZcb-Fr3cg8tZfr-354" value="" style="endArrow=classic;html=1;rounded=0;entryX=0;entryY=0.5;entryDx=0;entryDy=0;" edge="1" parent="WIyWlLk6GJQsqaUBKTNV-1" source="MlXYabZcb-Fr3cg8tZfr-352" target="MlXYabZcb-Fr3cg8tZfr-356">
          <mxGeometry width="50" height="50" relative="1" as="geometry">
            <mxPoint x="7817.5" y="2320" as="sourcePoint" />
            <mxPoint x="7888.210678118655" y="2270" as="targetPoint" />
          </mxGeometry>
        </mxCell>
        <mxCell id="MlXYabZcb-Fr3cg8tZfr-355" value="false" style="rounded=0;whiteSpace=wrap;html=1;" vertex="1" parent="WIyWlLk6GJQsqaUBKTNV-1">
          <mxGeometry x="7490" y="2240" width="120" height="60" as="geometry" />
        </mxCell>
        <mxCell id="MlXYabZcb-Fr3cg8tZfr-356" value="true" style="rounded=0;whiteSpace=wrap;html=1;" vertex="1" parent="WIyWlLk6GJQsqaUBKTNV-1">
          <mxGeometry x="7890" y="2240" width="120" height="60" as="geometry" />
        </mxCell>
        <mxCell id="MlXYabZcb-Fr3cg8tZfr-357" value="" style="endArrow=classic;html=1;rounded=0;entryX=0.723;entryY=0.015;entryDx=0;entryDy=0;entryPerimeter=0;" edge="1" parent="WIyWlLk6GJQsqaUBKTNV-1" source="MlXYabZcb-Fr3cg8tZfr-356" target="MlXYabZcb-Fr3cg8tZfr-360">
          <mxGeometry width="50" height="50" relative="1" as="geometry">
            <mxPoint x="7950" y="2350" as="sourcePoint" />
            <mxPoint x="7950" y="2370.710678118655" as="targetPoint" />
          </mxGeometry>
        </mxCell>
        <mxCell id="MlXYabZcb-Fr3cg8tZfr-358" value="" style="endArrow=classic;html=1;rounded=0;entryX=0.274;entryY=0.007;entryDx=0;entryDy=0;entryPerimeter=0;" edge="1" parent="WIyWlLk6GJQsqaUBKTNV-1" source="MlXYabZcb-Fr3cg8tZfr-355" target="MlXYabZcb-Fr3cg8tZfr-359">
          <mxGeometry width="50" height="50" relative="1" as="geometry">
            <mxPoint x="7550" y="2350" as="sourcePoint" />
            <mxPoint x="7550" y="2370" as="targetPoint" />
          </mxGeometry>
        </mxCell>
        <mxCell id="rcL9RBWmiIsgMO7nx0i4-10" style="edgeStyle=orthogonalEdgeStyle;rounded=0;orthogonalLoop=1;jettySize=auto;html=1;exitX=0.5;exitY=1;exitDx=0;exitDy=0;entryX=1;entryY=0.5;entryDx=0;entryDy=0;" edge="1" parent="WIyWlLk6GJQsqaUBKTNV-1" source="MlXYabZcb-Fr3cg8tZfr-359" target="MlXYabZcb-Fr3cg8tZfr-403">
          <mxGeometry relative="1" as="geometry">
            <Array as="points">
              <mxPoint x="7600" y="2680" />
            </Array>
          </mxGeometry>
        </mxCell>
        <mxCell id="MlXYabZcb-Fr3cg8tZfr-359" value="Print &quot;You don&#39;t press John for details and you just walk around the warehouse with John for while, learning about&amp;nbsp; his wife and kids, but you don&#39;t learn anything of value. You return to your office and decide to work on the case at a later date.&quot;" style="shape=parallelogram;perimeter=parallelogramPerimeter;whiteSpace=wrap;html=1;fixedSize=1;" vertex="1" parent="WIyWlLk6GJQsqaUBKTNV-1">
          <mxGeometry x="7490" y="2375" width="220" height="145" as="geometry" />
        </mxCell>
        <mxCell id="rcL9RBWmiIsgMO7nx0i4-11" style="edgeStyle=orthogonalEdgeStyle;rounded=0;orthogonalLoop=1;jettySize=auto;html=1;exitX=0.5;exitY=1;exitDx=0;exitDy=0;entryX=1;entryY=0.5;entryDx=0;entryDy=0;" edge="1" parent="WIyWlLk6GJQsqaUBKTNV-1" source="MlXYabZcb-Fr3cg8tZfr-360" target="MlXYabZcb-Fr3cg8tZfr-403">
          <mxGeometry relative="1" as="geometry">
            <Array as="points">
              <mxPoint x="7900" y="2660" />
              <mxPoint x="4730" y="2660" />
            </Array>
          </mxGeometry>
        </mxCell>
        <mxCell id="MlXYabZcb-Fr3cg8tZfr-360" value="Print &quot;You try to push past him and keep asking him what he saw. He grabs a nearby mop with you are trying to look at the spot he says &quot;Stop being so nosy&quot; and hits you on the back of the head with the mop. You are not heard from or seen again.&quot;" style="shape=parallelogram;perimeter=parallelogramPerimeter;whiteSpace=wrap;html=1;fixedSize=1;" vertex="1" parent="WIyWlLk6GJQsqaUBKTNV-1">
          <mxGeometry x="7790" y="2375" width="220" height="135" as="geometry" />
        </mxCell>
        <mxCell id="MlXYabZcb-Fr3cg8tZfr-361" value="" style="endArrow=classic;html=1;rounded=0;entryX=0.5;entryY=0;entryDx=0;entryDy=0;" edge="1" parent="WIyWlLk6GJQsqaUBKTNV-1" target="MlXYabZcb-Fr3cg8tZfr-362">
          <mxGeometry width="50" height="50" relative="1" as="geometry">
            <mxPoint x="8570" y="1460" as="sourcePoint" />
            <mxPoint x="8570" y="1530.7106781186549" as="targetPoint" />
          </mxGeometry>
        </mxCell>
        <mxCell id="MlXYabZcb-Fr3cg8tZfr-362" value="Print &quot;You go to the warehouse with the police, while there you don&#39;t see anyone nearby, nor do you hear anything. You see markings on the wall that reads RG9uIGRpZCBpdC4gVGhlIGpvYiBpcyBkb25lLg== what could this mean? Anyways do you want to inspect outside the building where Bob was supposedly murdered? (If not, you&#39;ll inspect the door that John said opened and closed)&quot;" style="shape=parallelogram;perimeter=parallelogramPerimeter;whiteSpace=wrap;html=1;fixedSize=1;" vertex="1" parent="WIyWlLk6GJQsqaUBKTNV-1">
          <mxGeometry x="8420" y="1500" width="300" height="130" as="geometry" />
        </mxCell>
        <mxCell id="MlXYabZcb-Fr3cg8tZfr-363" value="" style="endArrow=classic;html=1;rounded=0;entryX=0.5;entryY=0;entryDx=0;entryDy=0;" edge="1" parent="WIyWlLk6GJQsqaUBKTNV-1" source="MlXYabZcb-Fr3cg8tZfr-362" target="MlXYabZcb-Fr3cg8tZfr-364">
          <mxGeometry width="50" height="50" relative="1" as="geometry">
            <mxPoint x="8570" y="1645" as="sourcePoint" />
            <mxPoint x="8570" y="1665.7106781186549" as="targetPoint" />
          </mxGeometry>
        </mxCell>
        <mxCell id="MlXYabZcb-Fr3cg8tZfr-364" value="Read user input to strUserResponse" style="shape=parallelogram;perimeter=parallelogramPerimeter;whiteSpace=wrap;html=1;fixedSize=1;" vertex="1" parent="WIyWlLk6GJQsqaUBKTNV-1">
          <mxGeometry x="8510" y="1665" width="120" height="60" as="geometry" />
        </mxCell>
        <mxCell id="MlXYabZcb-Fr3cg8tZfr-365" value="" style="endArrow=classic;html=1;rounded=0;entryX=0.5;entryY=0;entryDx=0;entryDy=0;" edge="1" parent="WIyWlLk6GJQsqaUBKTNV-1" source="MlXYabZcb-Fr3cg8tZfr-364" target="MlXYabZcb-Fr3cg8tZfr-366">
          <mxGeometry width="50" height="50" relative="1" as="geometry">
            <mxPoint x="8570" y="1775" as="sourcePoint" />
            <mxPoint x="8570" y="1795.7106781186549" as="targetPoint" />
          </mxGeometry>
        </mxCell>
        <mxCell id="MlXYabZcb-Fr3cg8tZfr-366" value="if&amp;nbsp;(strUserReponse.&lt;br&gt;equals(STRYES))" style="rhombus;whiteSpace=wrap;html=1;" vertex="1" parent="WIyWlLk6GJQsqaUBKTNV-1">
          <mxGeometry x="8502.5" y="1795" width="135" height="110" as="geometry" />
        </mxCell>
        <mxCell id="MlXYabZcb-Fr3cg8tZfr-367" value="" style="endArrow=classic;html=1;rounded=0;entryX=1;entryY=0.5;entryDx=0;entryDy=0;exitX=0;exitY=0.5;exitDx=0;exitDy=0;" edge="1" parent="WIyWlLk6GJQsqaUBKTNV-1" source="MlXYabZcb-Fr3cg8tZfr-366" target="MlXYabZcb-Fr3cg8tZfr-369">
          <mxGeometry width="50" height="50" relative="1" as="geometry">
            <mxPoint x="8500" y="1850" as="sourcePoint" />
            <mxPoint x="8351.789321881344" y="1850" as="targetPoint" />
          </mxGeometry>
        </mxCell>
        <mxCell id="MlXYabZcb-Fr3cg8tZfr-368" value="" style="endArrow=classic;html=1;rounded=0;entryX=0;entryY=0.5;entryDx=0;entryDy=0;" edge="1" parent="WIyWlLk6GJQsqaUBKTNV-1" source="MlXYabZcb-Fr3cg8tZfr-366" target="MlXYabZcb-Fr3cg8tZfr-370">
          <mxGeometry width="50" height="50" relative="1" as="geometry">
            <mxPoint x="8637.5" y="1900" as="sourcePoint" />
            <mxPoint x="8708.210678118656" y="1850" as="targetPoint" />
          </mxGeometry>
        </mxCell>
        <mxCell id="MlXYabZcb-Fr3cg8tZfr-369" value="false" style="rounded=0;whiteSpace=wrap;html=1;" vertex="1" parent="WIyWlLk6GJQsqaUBKTNV-1">
          <mxGeometry x="8230" y="1820" width="120" height="60" as="geometry" />
        </mxCell>
        <mxCell id="MlXYabZcb-Fr3cg8tZfr-370" value="true" style="rounded=0;whiteSpace=wrap;html=1;" vertex="1" parent="WIyWlLk6GJQsqaUBKTNV-1">
          <mxGeometry x="8790" y="1820" width="120" height="60" as="geometry" />
        </mxCell>
        <mxCell id="MlXYabZcb-Fr3cg8tZfr-371" value="" style="endArrow=classic;html=1;rounded=0;entryX=0.5;entryY=0;entryDx=0;entryDy=0;entryPerimeter=0;" edge="1" parent="WIyWlLk6GJQsqaUBKTNV-1" source="MlXYabZcb-Fr3cg8tZfr-369" target="MlXYabZcb-Fr3cg8tZfr-372">
          <mxGeometry width="50" height="50" relative="1" as="geometry">
            <mxPoint x="8290" y="1930" as="sourcePoint" />
            <mxPoint x="8290" y="1950.7106781186549" as="targetPoint" />
          </mxGeometry>
        </mxCell>
        <mxCell id="MlXYabZcb-Fr3cg8tZfr-372" value="Print &quot;You decide to inspect the door that John said may have opened and closed, Do you peek around the door to see if anything is different about it? (If not,&lt;br&gt;you look at the weird scratches near the door)&quot;" style="shape=parallelogram;perimeter=parallelogramPerimeter;whiteSpace=wrap;html=1;fixedSize=1;" vertex="1" parent="WIyWlLk6GJQsqaUBKTNV-1">
          <mxGeometry x="8195" y="1930" width="190" height="110" as="geometry" />
        </mxCell>
        <mxCell id="MlXYabZcb-Fr3cg8tZfr-373" value="" style="endArrow=classic;html=1;rounded=0;entryX=0.5;entryY=0;entryDx=0;entryDy=0;" edge="1" parent="WIyWlLk6GJQsqaUBKTNV-1" source="MlXYabZcb-Fr3cg8tZfr-372" target="MlXYabZcb-Fr3cg8tZfr-374">
          <mxGeometry width="50" height="50" relative="1" as="geometry">
            <mxPoint x="8290" y="2065" as="sourcePoint" />
            <mxPoint x="8290" y="2085.710678118655" as="targetPoint" />
          </mxGeometry>
        </mxCell>
        <mxCell id="MlXYabZcb-Fr3cg8tZfr-374" value="Read user input to strUserResponse" style="shape=parallelogram;perimeter=parallelogramPerimeter;whiteSpace=wrap;html=1;fixedSize=1;" vertex="1" parent="WIyWlLk6GJQsqaUBKTNV-1">
          <mxGeometry x="8230" y="2085" width="120" height="60" as="geometry" />
        </mxCell>
        <mxCell id="MlXYabZcb-Fr3cg8tZfr-375" value="" style="endArrow=classic;html=1;rounded=0;entryX=0.5;entryY=0;entryDx=0;entryDy=0;" edge="1" parent="WIyWlLk6GJQsqaUBKTNV-1" source="MlXYabZcb-Fr3cg8tZfr-374" target="MlXYabZcb-Fr3cg8tZfr-376">
          <mxGeometry width="50" height="50" relative="1" as="geometry">
            <mxPoint x="8290" y="2195" as="sourcePoint" />
            <mxPoint x="8290" y="2215.710678118655" as="targetPoint" />
          </mxGeometry>
        </mxCell>
        <mxCell id="MlXYabZcb-Fr3cg8tZfr-376" value="if&amp;nbsp;(strUserReponse.&lt;br&gt;equals(STRYES))" style="rhombus;whiteSpace=wrap;html=1;" vertex="1" parent="WIyWlLk6GJQsqaUBKTNV-1">
          <mxGeometry x="8222.5" y="2215" width="135" height="110" as="geometry" />
        </mxCell>
        <mxCell id="MlXYabZcb-Fr3cg8tZfr-377" value="" style="endArrow=classic;html=1;rounded=0;entryX=1;entryY=0.5;entryDx=0;entryDy=0;" edge="1" parent="WIyWlLk6GJQsqaUBKTNV-1" source="MlXYabZcb-Fr3cg8tZfr-376" target="MlXYabZcb-Fr3cg8tZfr-379">
          <mxGeometry width="50" height="50" relative="1" as="geometry">
            <mxPoint x="8151.789321881345" y="2320" as="sourcePoint" />
            <mxPoint x="8151.789321881345" y="2270" as="targetPoint" />
          </mxGeometry>
        </mxCell>
        <mxCell id="MlXYabZcb-Fr3cg8tZfr-378" value="" style="endArrow=classic;html=1;rounded=0;entryX=0;entryY=0.5;entryDx=0;entryDy=0;" edge="1" parent="WIyWlLk6GJQsqaUBKTNV-1" source="MlXYabZcb-Fr3cg8tZfr-376" target="MlXYabZcb-Fr3cg8tZfr-380">
          <mxGeometry width="50" height="50" relative="1" as="geometry">
            <mxPoint x="8357.5" y="2320" as="sourcePoint" />
            <mxPoint x="8428.210678118656" y="2270" as="targetPoint" />
          </mxGeometry>
        </mxCell>
        <mxCell id="MlXYabZcb-Fr3cg8tZfr-379" value="false" style="rounded=0;whiteSpace=wrap;html=1;" vertex="1" parent="WIyWlLk6GJQsqaUBKTNV-1">
          <mxGeometry x="8030" y="2240" width="120" height="60" as="geometry" />
        </mxCell>
        <mxCell id="MlXYabZcb-Fr3cg8tZfr-380" value="true" style="rounded=0;whiteSpace=wrap;html=1;" vertex="1" parent="WIyWlLk6GJQsqaUBKTNV-1">
          <mxGeometry x="8430" y="2240" width="120" height="60" as="geometry" />
        </mxCell>
        <mxCell id="MlXYabZcb-Fr3cg8tZfr-381" value="" style="endArrow=classic;html=1;rounded=0;entryX=0.85;entryY=0.017;entryDx=0;entryDy=0;entryPerimeter=0;" edge="1" parent="WIyWlLk6GJQsqaUBKTNV-1" source="MlXYabZcb-Fr3cg8tZfr-380">
          <mxGeometry width="50" height="50" relative="1" as="geometry">
            <mxPoint x="8490" y="2350" as="sourcePoint" />
            <mxPoint x="8490" y="2376.6150000000002" as="targetPoint" />
          </mxGeometry>
        </mxCell>
        <mxCell id="MlXYabZcb-Fr3cg8tZfr-382" value="" style="endArrow=classic;html=1;rounded=0;entryX=0.5;entryY=0;entryDx=0;entryDy=0;" edge="1" parent="WIyWlLk6GJQsqaUBKTNV-1" source="MlXYabZcb-Fr3cg8tZfr-379">
          <mxGeometry width="50" height="50" relative="1" as="geometry">
            <mxPoint x="8090" y="2350" as="sourcePoint" />
            <mxPoint x="8090" y="2375" as="targetPoint" />
          </mxGeometry>
        </mxCell>
        <mxCell id="MlXYabZcb-Fr3cg8tZfr-385" value="" style="endArrow=classic;html=1;rounded=0;entryX=0.5;entryY=0;entryDx=0;entryDy=0;entryPerimeter=0;" edge="1" parent="WIyWlLk6GJQsqaUBKTNV-1" target="MlXYabZcb-Fr3cg8tZfr-386">
          <mxGeometry width="50" height="50" relative="1" as="geometry">
            <mxPoint x="8850" y="1880" as="sourcePoint" />
            <mxPoint x="8850" y="1950.7106781186549" as="targetPoint" />
            <Array as="points" />
          </mxGeometry>
        </mxCell>
        <mxCell id="MlXYabZcb-Fr3cg8tZfr-386" value="Print &quot;You look around but can&#39;t find Bob&#39;s body anywhere, just signs of a struggle and a little blood, after testing the blood it is confirmed to be Bob&#39;s. Would you like to look around for Bob&#39;s body? (If not you&#39;ll report back to your office).&quot;" style="shape=parallelogram;perimeter=parallelogramPerimeter;whiteSpace=wrap;html=1;fixedSize=1;" vertex="1" parent="WIyWlLk6GJQsqaUBKTNV-1">
          <mxGeometry x="8730" y="1930" width="240" height="85" as="geometry" />
        </mxCell>
        <mxCell id="MlXYabZcb-Fr3cg8tZfr-387" value="" style="endArrow=classic;html=1;rounded=0;entryX=0.5;entryY=0;entryDx=0;entryDy=0;" edge="1" parent="WIyWlLk6GJQsqaUBKTNV-1" source="MlXYabZcb-Fr3cg8tZfr-386" target="MlXYabZcb-Fr3cg8tZfr-388">
          <mxGeometry width="50" height="50" relative="1" as="geometry">
            <mxPoint x="8850" y="2065" as="sourcePoint" />
            <mxPoint x="8850" y="2085.710678118655" as="targetPoint" />
          </mxGeometry>
        </mxCell>
        <mxCell id="MlXYabZcb-Fr3cg8tZfr-388" value="Read user input to strUserResponse" style="shape=parallelogram;perimeter=parallelogramPerimeter;whiteSpace=wrap;html=1;fixedSize=1;" vertex="1" parent="WIyWlLk6GJQsqaUBKTNV-1">
          <mxGeometry x="8790" y="2085" width="120" height="60" as="geometry" />
        </mxCell>
        <mxCell id="MlXYabZcb-Fr3cg8tZfr-389" value="" style="endArrow=classic;html=1;rounded=0;entryX=0.5;entryY=0;entryDx=0;entryDy=0;" edge="1" parent="WIyWlLk6GJQsqaUBKTNV-1" source="MlXYabZcb-Fr3cg8tZfr-388" target="MlXYabZcb-Fr3cg8tZfr-390">
          <mxGeometry width="50" height="50" relative="1" as="geometry">
            <mxPoint x="8850" y="2195" as="sourcePoint" />
            <mxPoint x="8850" y="2215.710678118655" as="targetPoint" />
          </mxGeometry>
        </mxCell>
        <mxCell id="MlXYabZcb-Fr3cg8tZfr-390" value="if&amp;nbsp;(strUserReponse.&lt;br&gt;equals(STRYES))" style="rhombus;whiteSpace=wrap;html=1;" vertex="1" parent="WIyWlLk6GJQsqaUBKTNV-1">
          <mxGeometry x="8782.5" y="2215" width="135" height="110" as="geometry" />
        </mxCell>
        <mxCell id="MlXYabZcb-Fr3cg8tZfr-391" value="" style="endArrow=classic;html=1;rounded=0;entryX=1;entryY=0.5;entryDx=0;entryDy=0;" edge="1" parent="WIyWlLk6GJQsqaUBKTNV-1" source="MlXYabZcb-Fr3cg8tZfr-390" target="MlXYabZcb-Fr3cg8tZfr-393">
          <mxGeometry width="50" height="50" relative="1" as="geometry">
            <mxPoint x="8711.789321881344" y="2320" as="sourcePoint" />
            <mxPoint x="8711.789321881344" y="2270" as="targetPoint" />
          </mxGeometry>
        </mxCell>
        <mxCell id="MlXYabZcb-Fr3cg8tZfr-392" value="" style="endArrow=classic;html=1;rounded=0;entryX=0;entryY=0.5;entryDx=0;entryDy=0;" edge="1" parent="WIyWlLk6GJQsqaUBKTNV-1" source="MlXYabZcb-Fr3cg8tZfr-390" target="MlXYabZcb-Fr3cg8tZfr-394">
          <mxGeometry width="50" height="50" relative="1" as="geometry">
            <mxPoint x="8917.5" y="2320" as="sourcePoint" />
            <mxPoint x="8988.210678118656" y="2270" as="targetPoint" />
          </mxGeometry>
        </mxCell>
        <mxCell id="MlXYabZcb-Fr3cg8tZfr-393" value="false" style="rounded=0;whiteSpace=wrap;html=1;" vertex="1" parent="WIyWlLk6GJQsqaUBKTNV-1">
          <mxGeometry x="8590" y="2240" width="120" height="60" as="geometry" />
        </mxCell>
        <mxCell id="MlXYabZcb-Fr3cg8tZfr-394" value="true" style="rounded=0;whiteSpace=wrap;html=1;" vertex="1" parent="WIyWlLk6GJQsqaUBKTNV-1">
          <mxGeometry x="8990" y="2240" width="120" height="60" as="geometry" />
        </mxCell>
        <mxCell id="MlXYabZcb-Fr3cg8tZfr-395" value="" style="endArrow=classic;html=1;rounded=0;entryX=0.5;entryY=0;entryDx=0;entryDy=0;" edge="1" parent="WIyWlLk6GJQsqaUBKTNV-1" source="MlXYabZcb-Fr3cg8tZfr-394" target="MlXYabZcb-Fr3cg8tZfr-398">
          <mxGeometry width="50" height="50" relative="1" as="geometry">
            <mxPoint x="9050" y="2350" as="sourcePoint" />
            <mxPoint x="9050" y="2370.710678118655" as="targetPoint" />
          </mxGeometry>
        </mxCell>
        <mxCell id="MlXYabZcb-Fr3cg8tZfr-396" value="" style="endArrow=classic;html=1;rounded=0;entryX=0.375;entryY=0.005;entryDx=0;entryDy=0;entryPerimeter=0;" edge="1" parent="WIyWlLk6GJQsqaUBKTNV-1" source="MlXYabZcb-Fr3cg8tZfr-393" target="MlXYabZcb-Fr3cg8tZfr-397">
          <mxGeometry width="50" height="50" relative="1" as="geometry">
            <mxPoint x="8650" y="2350" as="sourcePoint" />
            <mxPoint x="8650" y="2380" as="targetPoint" />
          </mxGeometry>
        </mxCell>
        <mxCell id="rcL9RBWmiIsgMO7nx0i4-14" style="edgeStyle=orthogonalEdgeStyle;rounded=0;orthogonalLoop=1;jettySize=auto;html=1;exitX=0.5;exitY=1;exitDx=0;exitDy=0;entryX=1;entryY=0.75;entryDx=0;entryDy=0;" edge="1" parent="WIyWlLk6GJQsqaUBKTNV-1" source="MlXYabZcb-Fr3cg8tZfr-397" target="MlXYabZcb-Fr3cg8tZfr-403">
          <mxGeometry relative="1" as="geometry">
            <Array as="points">
              <mxPoint x="8670" y="2670" />
              <mxPoint x="4726" y="2670" />
            </Array>
          </mxGeometry>
        </mxCell>
        <mxCell id="MlXYabZcb-Fr3cg8tZfr-397" value="Print &quot;You return back to your office with nothing gained expect some jumbled random looking text, only if you have more would it be possible to find out what it&#39;s being encoded with. The case is pass on to someone else to solve.&quot;" style="shape=parallelogram;perimeter=parallelogramPerimeter;whiteSpace=wrap;html=1;fixedSize=1;" vertex="1" parent="WIyWlLk6GJQsqaUBKTNV-1">
          <mxGeometry x="8580" y="2375" width="180" height="145" as="geometry" />
        </mxCell>
        <mxCell id="rcL9RBWmiIsgMO7nx0i4-15" style="edgeStyle=orthogonalEdgeStyle;rounded=0;orthogonalLoop=1;jettySize=auto;html=1;exitX=0.5;exitY=1;exitDx=0;exitDy=0;entryX=1;entryY=0.25;entryDx=0;entryDy=0;" edge="1" parent="WIyWlLk6GJQsqaUBKTNV-1" source="MlXYabZcb-Fr3cg8tZfr-398" target="MlXYabZcb-Fr3cg8tZfr-403">
          <mxGeometry relative="1" as="geometry">
            <mxPoint x="4940" y="2810" as="targetPoint" />
            <Array as="points">
              <mxPoint x="9050" y="2680" />
              <mxPoint x="4735" y="2680" />
            </Array>
          </mxGeometry>
        </mxCell>
        <mxCell id="MlXYabZcb-Fr3cg8tZfr-398" value="Print you look around the surrounding area for bob&#39;s body, but there is nothing? Strange. . . bodies don&#39;t just disappear with so few traces left behind. You decide to check the near by river to try and find the body but come up empty handed. With little else to try doing to head back to your office and watch cat videos (eventually getting dismissed for just watching cat videos)." style="shape=parallelogram;perimeter=parallelogramPerimeter;whiteSpace=wrap;html=1;fixedSize=1;" vertex="1" parent="WIyWlLk6GJQsqaUBKTNV-1">
          <mxGeometry x="8920" y="2375" width="260" height="145" as="geometry" />
        </mxCell>
        <mxCell id="MlXYabZcb-Fr3cg8tZfr-411" style="edgeStyle=orthogonalEdgeStyle;rounded=0;orthogonalLoop=1;jettySize=auto;html=1;exitX=0.5;exitY=1;exitDx=0;exitDy=0;entryX=0;entryY=0.5;entryDx=0;entryDy=0;" edge="1" parent="WIyWlLk6GJQsqaUBKTNV-1" source="MlXYabZcb-Fr3cg8tZfr-399" target="MlXYabZcb-Fr3cg8tZfr-403">
          <mxGeometry relative="1" as="geometry">
            <Array as="points">
              <mxPoint x="1537" y="2690" />
              <mxPoint x="4497" y="2690" />
            </Array>
          </mxGeometry>
        </mxCell>
        <mxCell id="MlXYabZcb-Fr3cg8tZfr-399" value="Print &quot;You reach for a service pistol at your hip but then remember you left it at your office, instead you call in a orbital strike on the sound. A large metal object falls through the roof and crushes whatever was making the sound. Nothing of value could be recovered, due to it all being destroyed. &quot;" style="shape=parallelogram;perimeter=parallelogramPerimeter;whiteSpace=wrap;html=1;fixedSize=1;" vertex="1" parent="WIyWlLk6GJQsqaUBKTNV-1">
          <mxGeometry x="1430" y="2380" width="215" height="200" as="geometry" />
        </mxCell>
        <mxCell id="MlXYabZcb-Fr3cg8tZfr-403" value="Print &quot;That is the end of this story. Thank you for playing.&quot;" style="whiteSpace=wrap;html=1;shape=parallelogram;perimeter=parallelogramPerimeter;fixedSize=1;" vertex="1" parent="WIyWlLk6GJQsqaUBKTNV-1">
          <mxGeometry x="4487.5" y="2640" width="252.5" height="80" as="geometry" />
        </mxCell>
        <mxCell id="MlXYabZcb-Fr3cg8tZfr-423" value="" style="endArrow=classic;html=1;rounded=0;" edge="1" parent="WIyWlLk6GJQsqaUBKTNV-1" source="MlXYabZcb-Fr3cg8tZfr-403">
          <mxGeometry width="50" height="50" relative="1" as="geometry">
            <mxPoint x="4613.75" y="2770" as="sourcePoint" />
            <mxPoint x="4613.75" y="2790.710678118655" as="targetPoint" />
          </mxGeometry>
        </mxCell>
        <mxCell id="MlXYabZcb-Fr3cg8tZfr-424" value="End" style="ellipse;whiteSpace=wrap;html=1;" vertex="1" parent="WIyWlLk6GJQsqaUBKTNV-1">
          <mxGeometry x="4554" y="2790" width="120" height="80" as="geometry" />
        </mxCell>
        <mxCell id="rcL9RBWmiIsgMO7nx0i4-12" style="edgeStyle=orthogonalEdgeStyle;rounded=0;orthogonalLoop=1;jettySize=auto;html=1;exitX=0.5;exitY=1;exitDx=0;exitDy=0;entryX=1;entryY=0.5;entryDx=0;entryDy=0;" edge="1" parent="WIyWlLk6GJQsqaUBKTNV-1" source="MlXYabZcb-Fr3cg8tZfr-425" target="MlXYabZcb-Fr3cg8tZfr-403">
          <mxGeometry relative="1" as="geometry">
            <mxPoint x="4780" y="2710.0000000000005" as="targetPoint" />
            <mxPoint x="8270" y="2499.9999999999995" as="sourcePoint" />
            <Array as="points">
              <mxPoint x="8220" y="2670" />
              <mxPoint x="4780" y="2670" />
              <mxPoint x="4780" y="2680" />
            </Array>
          </mxGeometry>
        </mxCell>
        <mxCell id="MlXYabZcb-Fr3cg8tZfr-425" value="&lt;font style=&quot;font-size: 10px;&quot;&gt;Print &quot;As you look closer the scratches turn out to be more weird text that is written on the wall, V2F0Y2ggdGhlIHBsYWNlIGZvciBhIGZldyBtb3JlIGRheXMsIHRoZW4gd2UgY2Fu&lt;br&gt;IGxlYXZlLiBHZXQgcmlkIG9mIGFueW9uZSB3aG8gaW52ZXN0aWdhdGVzLg==&lt;br&gt;With this there is enough text for you to decipher it (this is left as an exercise to the reader (it&#39;s so basic it can&#39;t be consider a cipher)) and figure out who the killer is. You find and arrest the killer. &quot;&lt;/font&gt;" style="shape=parallelogram;perimeter=parallelogramPerimeter;whiteSpace=wrap;html=1;fixedSize=1;" vertex="1" parent="WIyWlLk6GJQsqaUBKTNV-1">
          <mxGeometry x="8020" y="2375" width="400" height="95" as="geometry" />
        </mxCell>
        <mxCell id="rcL9RBWmiIsgMO7nx0i4-13" style="edgeStyle=orthogonalEdgeStyle;rounded=0;orthogonalLoop=1;jettySize=auto;html=1;exitX=0.5;exitY=1;exitDx=0;exitDy=0;entryX=1;entryY=0.75;entryDx=0;entryDy=0;" edge="1" parent="WIyWlLk6GJQsqaUBKTNV-1" source="MlXYabZcb-Fr3cg8tZfr-426" target="MlXYabZcb-Fr3cg8tZfr-403">
          <mxGeometry relative="1" as="geometry">
            <Array as="points">
              <mxPoint x="8500" y="2680" />
              <mxPoint x="4726" y="2680" />
            </Array>
          </mxGeometry>
        </mxCell>
        <mxCell id="MlXYabZcb-Fr3cg8tZfr-426" value="Print &quot;As you open the door a grenade explodes, it was booby trapped!. The police take you to the hospital, but you are unable to continue the case. You survive. . .&quot;" style="shape=parallelogram;perimeter=parallelogramPerimeter;whiteSpace=wrap;html=1;fixedSize=1;" vertex="1" parent="WIyWlLk6GJQsqaUBKTNV-1">
          <mxGeometry x="8430" y="2375" width="140" height="115" as="geometry" />
        </mxCell>
      </root>
    </mxGraphModel>
  </diagram>
</mxfile>
